G04 EAGLE Gerber RS-274X export*
G75*
%MOMM*%
%FSLAX34Y34*%
%LPD*%
%INBottom Copper*%
%IPPOS*%
%AMOC8*
5,1,8,0,0,1.08239X$1,22.5*%
G01*
%ADD10C,1.258000*%
%ADD11C,1.950000*%
%ADD12C,1.879600*%
%ADD13C,1.308000*%
%ADD14C,2.250000*%
%ADD15C,0.756400*%
%ADD16C,0.508000*%

G36*
X419158Y6105D02*
X419158Y6105D01*
X419216Y6103D01*
X419298Y6125D01*
X419382Y6137D01*
X419435Y6160D01*
X419491Y6175D01*
X419564Y6218D01*
X419641Y6253D01*
X419686Y6291D01*
X419736Y6320D01*
X419794Y6382D01*
X419858Y6436D01*
X419890Y6485D01*
X419930Y6528D01*
X419969Y6603D01*
X420016Y6673D01*
X420033Y6729D01*
X420060Y6781D01*
X420071Y6849D01*
X420101Y6944D01*
X420104Y7044D01*
X420115Y7112D01*
X420115Y87885D01*
X500888Y87885D01*
X500946Y87893D01*
X501004Y87891D01*
X501086Y87913D01*
X501170Y87925D01*
X501223Y87949D01*
X501279Y87963D01*
X501352Y88006D01*
X501429Y88041D01*
X501474Y88079D01*
X501524Y88109D01*
X501582Y88170D01*
X501646Y88225D01*
X501678Y88273D01*
X501718Y88316D01*
X501757Y88391D01*
X501804Y88461D01*
X501821Y88517D01*
X501848Y88569D01*
X501859Y88637D01*
X501889Y88732D01*
X501892Y88832D01*
X501903Y88900D01*
X501903Y584200D01*
X501895Y584258D01*
X501897Y584316D01*
X501875Y584398D01*
X501863Y584482D01*
X501840Y584535D01*
X501825Y584591D01*
X501782Y584664D01*
X501747Y584741D01*
X501709Y584786D01*
X501680Y584836D01*
X501618Y584894D01*
X501564Y584958D01*
X501515Y584990D01*
X501472Y585030D01*
X501397Y585069D01*
X501327Y585116D01*
X501271Y585133D01*
X501219Y585160D01*
X501151Y585171D01*
X501056Y585201D01*
X500956Y585204D01*
X500888Y585215D01*
X420115Y585215D01*
X420115Y665988D01*
X420107Y666046D01*
X420109Y666104D01*
X420087Y666186D01*
X420075Y666270D01*
X420052Y666323D01*
X420037Y666379D01*
X419994Y666452D01*
X419959Y666529D01*
X419921Y666574D01*
X419892Y666624D01*
X419830Y666682D01*
X419776Y666746D01*
X419727Y666778D01*
X419684Y666818D01*
X419609Y666857D01*
X419539Y666904D01*
X419483Y666921D01*
X419431Y666948D01*
X419363Y666959D01*
X419268Y666989D01*
X419168Y666992D01*
X419100Y667003D01*
X7112Y667003D01*
X7054Y666995D01*
X6996Y666997D01*
X6914Y666975D01*
X6830Y666963D01*
X6777Y666940D01*
X6721Y666925D01*
X6648Y666882D01*
X6571Y666847D01*
X6526Y666809D01*
X6476Y666780D01*
X6418Y666718D01*
X6354Y666664D01*
X6322Y666615D01*
X6282Y666572D01*
X6243Y666497D01*
X6196Y666427D01*
X6179Y666371D01*
X6152Y666319D01*
X6141Y666251D01*
X6111Y666156D01*
X6108Y666056D01*
X6097Y665988D01*
X6097Y88900D01*
X6105Y88842D01*
X6103Y88784D01*
X6125Y88702D01*
X6137Y88619D01*
X6160Y88565D01*
X6175Y88509D01*
X6218Y88436D01*
X6253Y88359D01*
X6291Y88314D01*
X6320Y88264D01*
X6382Y88206D01*
X6436Y88142D01*
X6485Y88110D01*
X6528Y88070D01*
X6603Y88031D01*
X6673Y87985D01*
X6729Y87967D01*
X6781Y87940D01*
X6849Y87929D01*
X6944Y87899D01*
X7044Y87896D01*
X7112Y87885D01*
X87885Y87885D01*
X87885Y7112D01*
X87893Y7054D01*
X87891Y6996D01*
X87913Y6914D01*
X87925Y6830D01*
X87949Y6777D01*
X87963Y6721D01*
X88006Y6648D01*
X88041Y6571D01*
X88079Y6526D01*
X88109Y6476D01*
X88170Y6418D01*
X88225Y6354D01*
X88273Y6322D01*
X88316Y6282D01*
X88391Y6243D01*
X88461Y6196D01*
X88517Y6179D01*
X88569Y6152D01*
X88637Y6141D01*
X88732Y6111D01*
X88832Y6108D01*
X88900Y6097D01*
X419100Y6097D01*
X419158Y6105D01*
G37*
%LPC*%
G36*
X417829Y292099D02*
X417829Y292099D01*
X417829Y293116D01*
X417821Y293174D01*
X417822Y293232D01*
X417801Y293314D01*
X417789Y293397D01*
X417765Y293451D01*
X417751Y293507D01*
X417708Y293580D01*
X417673Y293657D01*
X417635Y293702D01*
X417605Y293752D01*
X417544Y293810D01*
X417489Y293874D01*
X417441Y293906D01*
X417398Y293946D01*
X417323Y293985D01*
X417253Y294031D01*
X417197Y294049D01*
X417145Y294076D01*
X417077Y294087D01*
X416982Y294117D01*
X416882Y294120D01*
X416814Y294131D01*
X406064Y294131D01*
X406185Y294896D01*
X406766Y296683D01*
X407619Y298357D01*
X408724Y299878D01*
X410052Y301206D01*
X411573Y302311D01*
X413247Y303164D01*
X415034Y303745D01*
X415833Y303871D01*
X415839Y303873D01*
X415845Y303873D01*
X415975Y303915D01*
X416105Y303955D01*
X416110Y303958D01*
X416116Y303960D01*
X416229Y304036D01*
X416343Y304110D01*
X416347Y304115D01*
X416352Y304118D01*
X416440Y304223D01*
X416528Y304325D01*
X416531Y304331D01*
X416535Y304336D01*
X416590Y304460D01*
X416647Y304584D01*
X416648Y304590D01*
X416650Y304596D01*
X416669Y304730D01*
X416689Y304865D01*
X416688Y304871D01*
X416689Y304877D01*
X416670Y305010D01*
X416652Y305147D01*
X416649Y305152D01*
X416649Y305158D01*
X416593Y305282D01*
X416538Y305407D01*
X416534Y305412D01*
X416532Y305418D01*
X416443Y305521D01*
X416356Y305626D01*
X416351Y305629D01*
X416347Y305634D01*
X416310Y305657D01*
X416121Y305785D01*
X416087Y305797D01*
X416063Y305812D01*
X413319Y306948D01*
X409818Y310449D01*
X407923Y315024D01*
X407923Y319976D01*
X409818Y324551D01*
X413319Y328052D01*
X414971Y328736D01*
X414996Y328751D01*
X415024Y328760D01*
X415119Y328823D01*
X415216Y328880D01*
X415236Y328902D01*
X415261Y328918D01*
X415334Y329005D01*
X415411Y329087D01*
X415425Y329113D01*
X415444Y329136D01*
X415490Y329239D01*
X415541Y329340D01*
X415547Y329369D01*
X415559Y329395D01*
X415575Y329508D01*
X415596Y329619D01*
X415594Y329648D01*
X415598Y329677D01*
X415582Y329789D01*
X415572Y329902D01*
X415561Y329929D01*
X415557Y329958D01*
X415511Y330061D01*
X415470Y330167D01*
X415452Y330191D01*
X415440Y330218D01*
X415367Y330304D01*
X415298Y330394D01*
X415275Y330412D01*
X415256Y330434D01*
X415189Y330476D01*
X415071Y330564D01*
X415012Y330586D01*
X414971Y330612D01*
X410779Y332348D01*
X407278Y335849D01*
X406932Y336685D01*
X406931Y336686D01*
X406931Y336687D01*
X406860Y336808D01*
X406788Y336929D01*
X406787Y336930D01*
X406786Y336932D01*
X406683Y337028D01*
X406581Y337125D01*
X406580Y337125D01*
X406579Y337126D01*
X406453Y337191D01*
X406328Y337255D01*
X406327Y337255D01*
X406325Y337256D01*
X406311Y337258D01*
X406049Y337310D01*
X406019Y337307D01*
X405994Y337311D01*
X338015Y337311D01*
X337929Y337299D01*
X337841Y337296D01*
X337789Y337279D01*
X337734Y337271D01*
X337654Y337236D01*
X337571Y337209D01*
X337532Y337181D01*
X337475Y337155D01*
X337361Y337059D01*
X337298Y337014D01*
X333366Y333082D01*
X331312Y332231D01*
X194468Y332231D01*
X192414Y333082D01*
X190699Y334797D01*
X182217Y343279D01*
X182216Y343280D01*
X182215Y343281D01*
X182102Y343366D01*
X181990Y343450D01*
X181989Y343451D01*
X181987Y343452D01*
X181855Y343501D01*
X181724Y343551D01*
X181723Y343551D01*
X181721Y343552D01*
X181582Y343563D01*
X181441Y343575D01*
X181440Y343574D01*
X181438Y343575D01*
X181423Y343571D01*
X181162Y343519D01*
X181135Y343505D01*
X181111Y343499D01*
X180276Y343153D01*
X175324Y343153D01*
X170749Y345048D01*
X167248Y348549D01*
X165353Y353124D01*
X165353Y358076D01*
X167248Y362651D01*
X170749Y366152D01*
X175324Y368047D01*
X180276Y368047D01*
X184851Y366152D01*
X188352Y362651D01*
X190247Y358076D01*
X190247Y353124D01*
X189901Y352289D01*
X189900Y352288D01*
X189900Y352286D01*
X189866Y352153D01*
X189830Y352014D01*
X189830Y352012D01*
X189830Y352011D01*
X189834Y351870D01*
X189838Y351730D01*
X189839Y351728D01*
X189839Y351727D01*
X189882Y351592D01*
X189925Y351459D01*
X189926Y351458D01*
X189926Y351456D01*
X189935Y351444D01*
X190083Y351223D01*
X190106Y351203D01*
X190121Y351183D01*
X197598Y343706D01*
X197667Y343654D01*
X197731Y343594D01*
X197781Y343568D01*
X197825Y343535D01*
X197906Y343504D01*
X197984Y343464D01*
X198032Y343456D01*
X198090Y343434D01*
X198238Y343422D01*
X198315Y343409D01*
X246138Y343409D01*
X246167Y343413D01*
X246196Y343410D01*
X246307Y343433D01*
X246419Y343449D01*
X246446Y343461D01*
X246475Y343466D01*
X246575Y343518D01*
X246679Y343565D01*
X246701Y343584D01*
X246727Y343597D01*
X246809Y343675D01*
X246896Y343748D01*
X246912Y343773D01*
X246933Y343793D01*
X246991Y343891D01*
X247053Y343985D01*
X247062Y344013D01*
X247077Y344038D01*
X247105Y344148D01*
X247139Y344256D01*
X247140Y344286D01*
X247147Y344314D01*
X247144Y344427D01*
X247146Y344540D01*
X247139Y344569D01*
X247138Y344598D01*
X247103Y344706D01*
X247075Y344815D01*
X247060Y344841D01*
X247051Y344869D01*
X247005Y344932D01*
X246929Y345060D01*
X246884Y345103D01*
X246856Y345142D01*
X243448Y348549D01*
X241553Y353124D01*
X241553Y358076D01*
X243448Y362651D01*
X246949Y366152D01*
X251524Y368047D01*
X256476Y368047D01*
X261051Y366152D01*
X264552Y362651D01*
X266447Y358076D01*
X266447Y353124D01*
X264552Y348549D01*
X261144Y345142D01*
X261127Y345118D01*
X261104Y345099D01*
X261041Y345005D01*
X260973Y344915D01*
X260963Y344887D01*
X260947Y344863D01*
X260912Y344755D01*
X260872Y344649D01*
X260870Y344620D01*
X260861Y344592D01*
X260858Y344478D01*
X260849Y344366D01*
X260854Y344337D01*
X260854Y344308D01*
X260882Y344198D01*
X260904Y344087D01*
X260918Y344061D01*
X260925Y344033D01*
X260983Y343935D01*
X261035Y343835D01*
X261056Y343813D01*
X261071Y343788D01*
X261153Y343711D01*
X261231Y343629D01*
X261257Y343614D01*
X261278Y343594D01*
X261379Y343542D01*
X261476Y343485D01*
X261505Y343478D01*
X261531Y343464D01*
X261608Y343451D01*
X261752Y343415D01*
X261814Y343417D01*
X261862Y343409D01*
X327465Y343409D01*
X327551Y343421D01*
X327639Y343424D01*
X327691Y343441D01*
X327746Y343449D01*
X327826Y343484D01*
X327909Y343511D01*
X327948Y343539D01*
X328005Y343565D01*
X328119Y343661D01*
X328182Y343706D01*
X332114Y347638D01*
X334168Y348489D01*
X405994Y348489D01*
X405996Y348489D01*
X405997Y348489D01*
X406138Y348509D01*
X406276Y348529D01*
X406277Y348529D01*
X406279Y348529D01*
X406407Y348587D01*
X406535Y348645D01*
X406536Y348646D01*
X406538Y348647D01*
X406645Y348738D01*
X406752Y348828D01*
X406753Y348830D01*
X406754Y348831D01*
X406762Y348844D01*
X406910Y349065D01*
X406919Y349094D01*
X406932Y349115D01*
X407278Y349951D01*
X410779Y353452D01*
X415354Y355347D01*
X420306Y355347D01*
X424881Y353452D01*
X428382Y349951D01*
X430277Y345376D01*
X430277Y340424D01*
X428382Y335849D01*
X424881Y332348D01*
X423229Y331664D01*
X423204Y331649D01*
X423176Y331640D01*
X423081Y331577D01*
X422984Y331520D01*
X422964Y331498D01*
X422939Y331482D01*
X422866Y331395D01*
X422789Y331313D01*
X422775Y331287D01*
X422756Y331264D01*
X422710Y331161D01*
X422659Y331060D01*
X422653Y331031D01*
X422641Y331005D01*
X422625Y330892D01*
X422604Y330781D01*
X422606Y330752D01*
X422602Y330723D01*
X422618Y330611D01*
X422628Y330498D01*
X422639Y330471D01*
X422643Y330442D01*
X422689Y330339D01*
X422730Y330233D01*
X422748Y330209D01*
X422760Y330182D01*
X422833Y330096D01*
X422902Y330006D01*
X422925Y329988D01*
X422944Y329966D01*
X423011Y329924D01*
X423129Y329836D01*
X423188Y329814D01*
X423229Y329788D01*
X427421Y328052D01*
X430922Y324551D01*
X432817Y319976D01*
X432817Y315024D01*
X430922Y310449D01*
X427421Y306948D01*
X422828Y305046D01*
X422748Y305027D01*
X422652Y305013D01*
X422610Y304995D01*
X422565Y304984D01*
X422481Y304937D01*
X422393Y304897D01*
X422358Y304867D01*
X422317Y304845D01*
X422250Y304776D01*
X422176Y304714D01*
X422150Y304675D01*
X422118Y304642D01*
X422072Y304557D01*
X422018Y304477D01*
X422004Y304433D01*
X421982Y304392D01*
X421962Y304298D01*
X421933Y304206D01*
X421931Y304160D01*
X421922Y304115D01*
X421928Y304018D01*
X421925Y303922D01*
X421937Y303877D01*
X421940Y303831D01*
X421973Y303740D01*
X421997Y303647D01*
X422021Y303607D01*
X422036Y303563D01*
X422093Y303485D01*
X422142Y303402D01*
X422176Y303371D01*
X422203Y303333D01*
X422264Y303288D01*
X422350Y303208D01*
X422424Y303170D01*
X422473Y303133D01*
X424087Y302311D01*
X425608Y301206D01*
X426936Y299878D01*
X428041Y298357D01*
X428894Y296683D01*
X429475Y294896D01*
X429596Y294131D01*
X418846Y294131D01*
X418788Y294123D01*
X418730Y294125D01*
X418648Y294103D01*
X418565Y294091D01*
X418511Y294067D01*
X418455Y294053D01*
X418382Y294010D01*
X418305Y293975D01*
X418261Y293937D01*
X418210Y293907D01*
X418153Y293846D01*
X418088Y293791D01*
X418056Y293743D01*
X418016Y293700D01*
X417977Y293625D01*
X417931Y293555D01*
X417913Y293499D01*
X417886Y293447D01*
X417875Y293379D01*
X417845Y293284D01*
X417842Y293184D01*
X417831Y293116D01*
X417831Y292099D01*
X417829Y292099D01*
G37*
%LPD*%
%LPC*%
G36*
X417829Y139699D02*
X417829Y139699D01*
X417829Y140716D01*
X417821Y140774D01*
X417822Y140832D01*
X417801Y140914D01*
X417789Y140997D01*
X417765Y141051D01*
X417751Y141107D01*
X417708Y141180D01*
X417673Y141257D01*
X417635Y141302D01*
X417605Y141352D01*
X417544Y141410D01*
X417489Y141474D01*
X417441Y141506D01*
X417398Y141546D01*
X417323Y141585D01*
X417253Y141631D01*
X417197Y141649D01*
X417145Y141676D01*
X417077Y141687D01*
X416982Y141717D01*
X416882Y141720D01*
X416814Y141731D01*
X406064Y141731D01*
X406185Y142496D01*
X406766Y144283D01*
X407619Y145957D01*
X408724Y147478D01*
X410052Y148806D01*
X411573Y149911D01*
X413247Y150764D01*
X415034Y151345D01*
X415833Y151471D01*
X415839Y151473D01*
X415845Y151473D01*
X415975Y151515D01*
X416105Y151555D01*
X416110Y151558D01*
X416116Y151560D01*
X416229Y151636D01*
X416343Y151710D01*
X416347Y151715D01*
X416352Y151718D01*
X416440Y151823D01*
X416528Y151925D01*
X416531Y151931D01*
X416535Y151936D01*
X416590Y152060D01*
X416647Y152184D01*
X416648Y152190D01*
X416650Y152196D01*
X416669Y152330D01*
X416689Y152465D01*
X416688Y152471D01*
X416689Y152477D01*
X416670Y152610D01*
X416652Y152747D01*
X416650Y152752D01*
X416649Y152758D01*
X416593Y152882D01*
X416538Y153007D01*
X416534Y153012D01*
X416532Y153018D01*
X416443Y153121D01*
X416356Y153226D01*
X416351Y153229D01*
X416347Y153234D01*
X416310Y153257D01*
X416121Y153385D01*
X416087Y153397D01*
X416063Y153412D01*
X413319Y154548D01*
X409818Y158049D01*
X407923Y162624D01*
X407923Y167576D01*
X409818Y172151D01*
X413319Y175652D01*
X414971Y176336D01*
X414996Y176351D01*
X415024Y176360D01*
X415119Y176423D01*
X415216Y176480D01*
X415236Y176502D01*
X415261Y176518D01*
X415334Y176605D01*
X415411Y176687D01*
X415425Y176713D01*
X415444Y176736D01*
X415490Y176839D01*
X415541Y176940D01*
X415547Y176969D01*
X415559Y176995D01*
X415575Y177108D01*
X415596Y177219D01*
X415594Y177248D01*
X415598Y177277D01*
X415582Y177389D01*
X415572Y177502D01*
X415561Y177529D01*
X415557Y177558D01*
X415511Y177661D01*
X415470Y177767D01*
X415452Y177791D01*
X415440Y177818D01*
X415367Y177904D01*
X415298Y177994D01*
X415275Y178012D01*
X415256Y178034D01*
X415189Y178075D01*
X415071Y178164D01*
X415012Y178186D01*
X414971Y178212D01*
X410779Y179948D01*
X407278Y183449D01*
X406932Y184285D01*
X406931Y184286D01*
X406931Y184287D01*
X406863Y184401D01*
X406788Y184529D01*
X406787Y184530D01*
X406786Y184532D01*
X406682Y184629D01*
X406581Y184725D01*
X406580Y184725D01*
X406579Y184726D01*
X406453Y184791D01*
X406328Y184855D01*
X406327Y184855D01*
X406325Y184856D01*
X406311Y184858D01*
X406049Y184910D01*
X406019Y184907D01*
X405994Y184911D01*
X330395Y184911D01*
X330309Y184899D01*
X330221Y184896D01*
X330169Y184879D01*
X330114Y184871D01*
X330034Y184836D01*
X329951Y184809D01*
X329912Y184781D01*
X329855Y184755D01*
X329741Y184659D01*
X329678Y184614D01*
X325746Y180682D01*
X323692Y179831D01*
X194468Y179831D01*
X192414Y180682D01*
X190699Y182397D01*
X182217Y190879D01*
X182216Y190880D01*
X182215Y190881D01*
X182102Y190966D01*
X181990Y191050D01*
X181989Y191051D01*
X181987Y191052D01*
X181855Y191101D01*
X181724Y191151D01*
X181723Y191151D01*
X181721Y191152D01*
X181582Y191163D01*
X181441Y191175D01*
X181440Y191174D01*
X181438Y191175D01*
X181423Y191171D01*
X181162Y191119D01*
X181135Y191105D01*
X181111Y191099D01*
X180276Y190753D01*
X175324Y190753D01*
X170749Y192648D01*
X167248Y196149D01*
X165353Y200724D01*
X165353Y205676D01*
X167248Y210251D01*
X170749Y213752D01*
X175324Y215647D01*
X180276Y215647D01*
X184851Y213752D01*
X188352Y210251D01*
X190247Y205676D01*
X190247Y200724D01*
X189901Y199889D01*
X189900Y199888D01*
X189900Y199886D01*
X189866Y199753D01*
X189830Y199614D01*
X189830Y199612D01*
X189830Y199611D01*
X189834Y199470D01*
X189838Y199330D01*
X189839Y199328D01*
X189839Y199327D01*
X189882Y199192D01*
X189925Y199059D01*
X189926Y199058D01*
X189926Y199056D01*
X189935Y199044D01*
X190083Y198823D01*
X190106Y198803D01*
X190121Y198783D01*
X197598Y191306D01*
X197667Y191254D01*
X197731Y191194D01*
X197781Y191168D01*
X197825Y191135D01*
X197906Y191104D01*
X197984Y191064D01*
X198032Y191056D01*
X198090Y191034D01*
X198238Y191022D01*
X198315Y191009D01*
X246138Y191009D01*
X246167Y191013D01*
X246196Y191010D01*
X246307Y191033D01*
X246419Y191049D01*
X246446Y191061D01*
X246475Y191066D01*
X246575Y191118D01*
X246679Y191165D01*
X246701Y191184D01*
X246727Y191197D01*
X246809Y191275D01*
X246896Y191348D01*
X246912Y191373D01*
X246933Y191393D01*
X246991Y191491D01*
X247053Y191585D01*
X247062Y191613D01*
X247077Y191638D01*
X247105Y191748D01*
X247139Y191856D01*
X247140Y191886D01*
X247147Y191914D01*
X247144Y192027D01*
X247146Y192140D01*
X247139Y192169D01*
X247138Y192198D01*
X247103Y192306D01*
X247075Y192415D01*
X247060Y192441D01*
X247051Y192469D01*
X247005Y192532D01*
X246929Y192660D01*
X246884Y192703D01*
X246856Y192742D01*
X243448Y196149D01*
X241553Y200724D01*
X241553Y205676D01*
X243448Y210251D01*
X246949Y213752D01*
X251524Y215647D01*
X256476Y215647D01*
X261051Y213752D01*
X264552Y210251D01*
X266447Y205676D01*
X266447Y200724D01*
X264552Y196149D01*
X261144Y192742D01*
X261127Y192718D01*
X261104Y192699D01*
X261041Y192605D01*
X260973Y192515D01*
X260963Y192487D01*
X260947Y192463D01*
X260912Y192355D01*
X260872Y192249D01*
X260870Y192220D01*
X260861Y192192D01*
X260858Y192078D01*
X260849Y191966D01*
X260854Y191937D01*
X260854Y191908D01*
X260882Y191798D01*
X260904Y191687D01*
X260918Y191661D01*
X260925Y191633D01*
X260983Y191535D01*
X261035Y191435D01*
X261056Y191413D01*
X261071Y191388D01*
X261153Y191311D01*
X261231Y191229D01*
X261257Y191214D01*
X261278Y191194D01*
X261379Y191142D01*
X261476Y191085D01*
X261505Y191078D01*
X261531Y191064D01*
X261608Y191051D01*
X261752Y191015D01*
X261814Y191017D01*
X261862Y191009D01*
X319845Y191009D01*
X319931Y191021D01*
X320019Y191024D01*
X320071Y191041D01*
X320126Y191049D01*
X320206Y191084D01*
X320289Y191111D01*
X320328Y191139D01*
X320385Y191165D01*
X320499Y191261D01*
X320562Y191306D01*
X324494Y195238D01*
X326548Y196089D01*
X405994Y196089D01*
X405996Y196089D01*
X405997Y196089D01*
X406138Y196109D01*
X406276Y196129D01*
X406277Y196129D01*
X406279Y196129D01*
X406407Y196187D01*
X406535Y196245D01*
X406536Y196246D01*
X406538Y196247D01*
X406645Y196338D01*
X406752Y196428D01*
X406753Y196430D01*
X406754Y196431D01*
X406762Y196444D01*
X406910Y196665D01*
X406919Y196694D01*
X406932Y196715D01*
X407278Y197551D01*
X410779Y201052D01*
X415354Y202947D01*
X420306Y202947D01*
X424881Y201052D01*
X428382Y197551D01*
X430277Y192976D01*
X430277Y188024D01*
X428382Y183449D01*
X424881Y179948D01*
X423229Y179264D01*
X423204Y179249D01*
X423176Y179240D01*
X423081Y179177D01*
X422984Y179120D01*
X422964Y179098D01*
X422939Y179082D01*
X422866Y178995D01*
X422789Y178913D01*
X422775Y178887D01*
X422756Y178864D01*
X422710Y178761D01*
X422659Y178660D01*
X422653Y178631D01*
X422641Y178605D01*
X422625Y178492D01*
X422604Y178381D01*
X422606Y178352D01*
X422602Y178323D01*
X422618Y178211D01*
X422628Y178098D01*
X422639Y178071D01*
X422643Y178042D01*
X422689Y177939D01*
X422730Y177833D01*
X422748Y177809D01*
X422760Y177782D01*
X422833Y177696D01*
X422902Y177606D01*
X422925Y177588D01*
X422944Y177566D01*
X423011Y177525D01*
X423129Y177436D01*
X423188Y177414D01*
X423229Y177388D01*
X427421Y175652D01*
X430922Y172151D01*
X432817Y167576D01*
X432817Y162624D01*
X430922Y158049D01*
X427421Y154548D01*
X422828Y152646D01*
X422748Y152627D01*
X422652Y152613D01*
X422610Y152595D01*
X422565Y152584D01*
X422481Y152537D01*
X422393Y152497D01*
X422358Y152467D01*
X422317Y152445D01*
X422250Y152376D01*
X422176Y152314D01*
X422150Y152275D01*
X422118Y152242D01*
X422072Y152157D01*
X422018Y152077D01*
X422004Y152033D01*
X421982Y151992D01*
X421962Y151898D01*
X421933Y151806D01*
X421931Y151760D01*
X421921Y151715D01*
X421928Y151618D01*
X421925Y151522D01*
X421937Y151477D01*
X421940Y151431D01*
X421973Y151340D01*
X421997Y151247D01*
X422021Y151207D01*
X422036Y151163D01*
X422093Y151085D01*
X422142Y151002D01*
X422176Y150971D01*
X422203Y150933D01*
X422264Y150888D01*
X422350Y150808D01*
X422424Y150770D01*
X422473Y150733D01*
X424087Y149911D01*
X425608Y148806D01*
X426936Y147478D01*
X428041Y145957D01*
X428894Y144283D01*
X429475Y142496D01*
X429596Y141731D01*
X418846Y141731D01*
X418788Y141723D01*
X418730Y141725D01*
X418648Y141703D01*
X418565Y141691D01*
X418511Y141667D01*
X418455Y141653D01*
X418382Y141610D01*
X418305Y141575D01*
X418261Y141537D01*
X418210Y141507D01*
X418153Y141446D01*
X418088Y141391D01*
X418056Y141343D01*
X418016Y141300D01*
X417977Y141225D01*
X417931Y141155D01*
X417913Y141099D01*
X417886Y141047D01*
X417875Y140979D01*
X417845Y140884D01*
X417842Y140784D01*
X417831Y140716D01*
X417831Y139699D01*
X417829Y139699D01*
G37*
%LPD*%
%LPC*%
G36*
X417829Y444499D02*
X417829Y444499D01*
X417829Y445516D01*
X417821Y445574D01*
X417822Y445632D01*
X417801Y445714D01*
X417789Y445797D01*
X417765Y445851D01*
X417751Y445907D01*
X417708Y445980D01*
X417673Y446057D01*
X417635Y446102D01*
X417605Y446152D01*
X417544Y446210D01*
X417489Y446274D01*
X417441Y446306D01*
X417398Y446346D01*
X417323Y446385D01*
X417253Y446431D01*
X417197Y446449D01*
X417145Y446476D01*
X417077Y446487D01*
X416982Y446517D01*
X416882Y446520D01*
X416814Y446531D01*
X406064Y446531D01*
X406185Y447296D01*
X406766Y449083D01*
X407619Y450757D01*
X408724Y452278D01*
X410052Y453606D01*
X411573Y454711D01*
X413247Y455564D01*
X415034Y456145D01*
X415833Y456271D01*
X415839Y456273D01*
X415845Y456273D01*
X415975Y456315D01*
X416105Y456355D01*
X416110Y456358D01*
X416116Y456360D01*
X416229Y456436D01*
X416343Y456510D01*
X416347Y456515D01*
X416352Y456518D01*
X416440Y456623D01*
X416528Y456725D01*
X416531Y456731D01*
X416535Y456736D01*
X416590Y456860D01*
X416647Y456984D01*
X416648Y456990D01*
X416650Y456996D01*
X416669Y457130D01*
X416689Y457265D01*
X416688Y457271D01*
X416689Y457277D01*
X416670Y457410D01*
X416652Y457547D01*
X416649Y457552D01*
X416649Y457558D01*
X416593Y457682D01*
X416538Y457807D01*
X416534Y457812D01*
X416532Y457818D01*
X416443Y457921D01*
X416356Y458026D01*
X416351Y458029D01*
X416347Y458034D01*
X416310Y458057D01*
X416121Y458185D01*
X416087Y458197D01*
X416063Y458212D01*
X413319Y459348D01*
X409818Y462849D01*
X407923Y467424D01*
X407923Y472376D01*
X409818Y476951D01*
X413319Y480452D01*
X414971Y481136D01*
X414996Y481151D01*
X415024Y481160D01*
X415119Y481223D01*
X415216Y481280D01*
X415236Y481302D01*
X415261Y481318D01*
X415334Y481405D01*
X415411Y481487D01*
X415425Y481513D01*
X415444Y481536D01*
X415490Y481639D01*
X415541Y481740D01*
X415547Y481769D01*
X415559Y481795D01*
X415575Y481908D01*
X415596Y482019D01*
X415594Y482048D01*
X415598Y482077D01*
X415582Y482189D01*
X415572Y482302D01*
X415561Y482329D01*
X415557Y482358D01*
X415511Y482461D01*
X415470Y482567D01*
X415452Y482591D01*
X415440Y482618D01*
X415367Y482704D01*
X415298Y482794D01*
X415275Y482812D01*
X415256Y482834D01*
X415189Y482876D01*
X415071Y482964D01*
X415012Y482986D01*
X414971Y483012D01*
X410779Y484748D01*
X407278Y488249D01*
X406932Y489085D01*
X406931Y489086D01*
X406931Y489087D01*
X406860Y489208D01*
X406788Y489329D01*
X406787Y489330D01*
X406786Y489332D01*
X406682Y489429D01*
X406581Y489525D01*
X406580Y489525D01*
X406579Y489526D01*
X406453Y489591D01*
X406328Y489655D01*
X406327Y489655D01*
X406325Y489656D01*
X406311Y489658D01*
X406049Y489710D01*
X406019Y489707D01*
X405994Y489711D01*
X383735Y489711D01*
X383649Y489699D01*
X383561Y489696D01*
X383509Y489679D01*
X383454Y489671D01*
X383374Y489636D01*
X383291Y489609D01*
X383252Y489581D01*
X383195Y489555D01*
X383081Y489459D01*
X383018Y489414D01*
X371466Y477862D01*
X369412Y477011D01*
X202088Y477011D01*
X200034Y477862D01*
X198319Y479577D01*
X182217Y495679D01*
X182216Y495680D01*
X182215Y495681D01*
X182102Y495766D01*
X181990Y495850D01*
X181989Y495851D01*
X181987Y495852D01*
X181855Y495901D01*
X181724Y495951D01*
X181723Y495951D01*
X181721Y495952D01*
X181582Y495963D01*
X181441Y495975D01*
X181440Y495974D01*
X181438Y495975D01*
X181423Y495971D01*
X181162Y495919D01*
X181135Y495905D01*
X181111Y495899D01*
X180276Y495553D01*
X175324Y495553D01*
X170749Y497448D01*
X167248Y500949D01*
X165353Y505524D01*
X165353Y510476D01*
X167248Y515051D01*
X170749Y518552D01*
X175324Y520447D01*
X180276Y520447D01*
X184851Y518552D01*
X188352Y515051D01*
X190247Y510476D01*
X190247Y505524D01*
X189901Y504689D01*
X189900Y504688D01*
X189900Y504686D01*
X189866Y504553D01*
X189830Y504414D01*
X189830Y504412D01*
X189830Y504411D01*
X189834Y504270D01*
X189838Y504130D01*
X189839Y504128D01*
X189839Y504127D01*
X189883Y503989D01*
X189925Y503859D01*
X189926Y503858D01*
X189926Y503856D01*
X189935Y503843D01*
X190083Y503623D01*
X190106Y503603D01*
X190121Y503583D01*
X205218Y488486D01*
X205287Y488434D01*
X205351Y488374D01*
X205401Y488348D01*
X205445Y488315D01*
X205526Y488284D01*
X205604Y488244D01*
X205652Y488236D01*
X205710Y488214D01*
X205858Y488202D01*
X205935Y488189D01*
X365565Y488189D01*
X365651Y488201D01*
X365739Y488204D01*
X365791Y488221D01*
X365846Y488229D01*
X365926Y488264D01*
X366009Y488291D01*
X366048Y488319D01*
X366105Y488345D01*
X366219Y488441D01*
X366282Y488486D01*
X377834Y500038D01*
X379888Y500889D01*
X405994Y500889D01*
X405996Y500889D01*
X405997Y500889D01*
X406138Y500909D01*
X406276Y500929D01*
X406277Y500929D01*
X406279Y500929D01*
X406407Y500987D01*
X406535Y501045D01*
X406536Y501046D01*
X406538Y501047D01*
X406645Y501138D01*
X406752Y501228D01*
X406753Y501230D01*
X406754Y501231D01*
X406762Y501244D01*
X406910Y501465D01*
X406919Y501494D01*
X406932Y501515D01*
X407278Y502351D01*
X410779Y505852D01*
X415354Y507747D01*
X420306Y507747D01*
X424881Y505852D01*
X428382Y502351D01*
X430277Y497776D01*
X430277Y492824D01*
X428382Y488249D01*
X424881Y484748D01*
X423229Y484064D01*
X423204Y484049D01*
X423176Y484040D01*
X423081Y483977D01*
X422984Y483920D01*
X422964Y483898D01*
X422939Y483882D01*
X422866Y483795D01*
X422789Y483713D01*
X422775Y483687D01*
X422756Y483664D01*
X422710Y483561D01*
X422659Y483460D01*
X422653Y483431D01*
X422641Y483405D01*
X422625Y483292D01*
X422604Y483181D01*
X422606Y483152D01*
X422602Y483123D01*
X422618Y483011D01*
X422628Y482898D01*
X422639Y482871D01*
X422643Y482842D01*
X422689Y482739D01*
X422730Y482633D01*
X422748Y482609D01*
X422760Y482582D01*
X422833Y482496D01*
X422902Y482406D01*
X422925Y482388D01*
X422944Y482366D01*
X423011Y482324D01*
X423129Y482236D01*
X423188Y482214D01*
X423229Y482188D01*
X427421Y480452D01*
X430922Y476951D01*
X432817Y472376D01*
X432817Y467424D01*
X430922Y462849D01*
X427421Y459348D01*
X422828Y457446D01*
X422748Y457427D01*
X422652Y457413D01*
X422610Y457395D01*
X422565Y457384D01*
X422481Y457337D01*
X422393Y457297D01*
X422358Y457267D01*
X422317Y457245D01*
X422250Y457176D01*
X422176Y457114D01*
X422150Y457075D01*
X422118Y457042D01*
X422072Y456957D01*
X422018Y456877D01*
X422004Y456833D01*
X421982Y456792D01*
X421962Y456698D01*
X421933Y456606D01*
X421931Y456560D01*
X421922Y456515D01*
X421928Y456418D01*
X421925Y456322D01*
X421937Y456277D01*
X421940Y456231D01*
X421973Y456140D01*
X421997Y456047D01*
X422021Y456007D01*
X422036Y455963D01*
X422093Y455885D01*
X422142Y455802D01*
X422176Y455771D01*
X422203Y455733D01*
X422264Y455688D01*
X422350Y455608D01*
X422424Y455570D01*
X422473Y455533D01*
X424087Y454711D01*
X425608Y453606D01*
X426936Y452278D01*
X428041Y450757D01*
X428894Y449083D01*
X429475Y447296D01*
X429596Y446531D01*
X418846Y446531D01*
X418788Y446523D01*
X418730Y446525D01*
X418648Y446503D01*
X418565Y446491D01*
X418511Y446467D01*
X418455Y446453D01*
X418382Y446410D01*
X418305Y446375D01*
X418261Y446337D01*
X418210Y446307D01*
X418153Y446246D01*
X418088Y446191D01*
X418056Y446143D01*
X418016Y446100D01*
X417977Y446025D01*
X417931Y445955D01*
X417913Y445899D01*
X417886Y445847D01*
X417875Y445779D01*
X417845Y445684D01*
X417842Y445584D01*
X417831Y445516D01*
X417831Y444499D01*
X417829Y444499D01*
G37*
%LPD*%
%LPC*%
G36*
X88891Y146366D02*
X88891Y146366D01*
X88867Y146419D01*
X88853Y146475D01*
X88809Y146548D01*
X88775Y146625D01*
X88737Y146670D01*
X88707Y146720D01*
X88646Y146778D01*
X88591Y146842D01*
X88543Y146874D01*
X88500Y146914D01*
X88425Y146953D01*
X88355Y147000D01*
X88299Y147017D01*
X88247Y147044D01*
X88179Y147055D01*
X88084Y147085D01*
X87984Y147088D01*
X87916Y147099D01*
X80039Y147099D01*
X80168Y147749D01*
X80853Y149401D01*
X81847Y150889D01*
X83111Y152153D01*
X84599Y153147D01*
X86344Y153870D01*
X86453Y153905D01*
X86464Y153913D01*
X86477Y153917D01*
X86582Y153992D01*
X86689Y154063D01*
X86697Y154074D01*
X86709Y154082D01*
X86789Y154182D01*
X86872Y154281D01*
X86877Y154293D01*
X86886Y154304D01*
X86935Y154423D01*
X86987Y154541D01*
X86989Y154554D01*
X86994Y154567D01*
X87008Y154695D01*
X87026Y154822D01*
X87024Y154836D01*
X87026Y154850D01*
X87004Y154976D01*
X86985Y155104D01*
X86980Y155116D01*
X86977Y155130D01*
X86921Y155246D01*
X86868Y155363D01*
X86859Y155373D01*
X86853Y155386D01*
X86767Y155481D01*
X86684Y155579D01*
X86673Y155586D01*
X86663Y155597D01*
X86422Y155747D01*
X86409Y155751D01*
X86399Y155757D01*
X83468Y156971D01*
X80771Y159668D01*
X79311Y163193D01*
X79311Y167007D01*
X80771Y170532D01*
X83468Y173229D01*
X85721Y174162D01*
X85746Y174177D01*
X85774Y174186D01*
X85869Y174249D01*
X85966Y174307D01*
X85986Y174328D01*
X86010Y174344D01*
X86083Y174431D01*
X86161Y174513D01*
X86175Y174539D01*
X86193Y174562D01*
X86240Y174665D01*
X86291Y174766D01*
X86297Y174795D01*
X86309Y174822D01*
X86324Y174934D01*
X86346Y175045D01*
X86344Y175074D01*
X86348Y175103D01*
X86332Y175215D01*
X86322Y175328D01*
X86311Y175356D01*
X86307Y175384D01*
X86261Y175487D01*
X86220Y175593D01*
X86202Y175617D01*
X86190Y175644D01*
X86117Y175730D01*
X86048Y175820D01*
X86025Y175838D01*
X86006Y175860D01*
X85939Y175902D01*
X85821Y175990D01*
X85762Y176012D01*
X85721Y176038D01*
X83468Y176971D01*
X80771Y179668D01*
X79311Y183193D01*
X79311Y187007D01*
X80771Y190532D01*
X82142Y191903D01*
X82211Y191995D01*
X82285Y192082D01*
X82297Y192108D01*
X82313Y192130D01*
X82354Y192237D01*
X82401Y192342D01*
X82405Y192370D01*
X82414Y192396D01*
X82424Y192510D01*
X82440Y192624D01*
X82436Y192651D01*
X82438Y192679D01*
X82415Y192791D01*
X82399Y192905D01*
X82388Y192930D01*
X82382Y192958D01*
X82329Y193060D01*
X82282Y193164D01*
X82264Y193185D01*
X82251Y193210D01*
X82172Y193293D01*
X82098Y193381D01*
X82076Y193394D01*
X82055Y193416D01*
X81826Y193551D01*
X81813Y193559D01*
X80800Y193978D01*
X76778Y198000D01*
X74601Y203256D01*
X74601Y208944D01*
X76778Y214200D01*
X80800Y218222D01*
X86056Y220399D01*
X91744Y220399D01*
X97000Y218222D01*
X101022Y214200D01*
X103199Y208944D01*
X103199Y203256D01*
X101022Y198000D01*
X97000Y193978D01*
X95987Y193559D01*
X95888Y193500D01*
X95786Y193447D01*
X95766Y193428D01*
X95742Y193414D01*
X95663Y193331D01*
X95580Y193252D01*
X95566Y193228D01*
X95547Y193208D01*
X95494Y193105D01*
X95436Y193006D01*
X95430Y192980D01*
X95417Y192955D01*
X95395Y192842D01*
X95366Y192731D01*
X95367Y192703D01*
X95362Y192676D01*
X95372Y192561D01*
X95375Y192447D01*
X95384Y192420D01*
X95386Y192393D01*
X95427Y192286D01*
X95463Y192176D01*
X95477Y192156D01*
X95488Y192127D01*
X95649Y191916D01*
X95658Y191903D01*
X97029Y190532D01*
X98489Y187007D01*
X98489Y183193D01*
X97029Y179668D01*
X94332Y176971D01*
X92079Y176038D01*
X92054Y176023D01*
X92026Y176014D01*
X91932Y175951D01*
X91834Y175893D01*
X91814Y175872D01*
X91790Y175856D01*
X91717Y175769D01*
X91639Y175687D01*
X91625Y175661D01*
X91607Y175638D01*
X91561Y175535D01*
X91509Y175434D01*
X91503Y175405D01*
X91491Y175378D01*
X91476Y175266D01*
X91454Y175155D01*
X91456Y175126D01*
X91452Y175097D01*
X91468Y174985D01*
X91478Y174872D01*
X91489Y174845D01*
X91493Y174815D01*
X91539Y174712D01*
X91580Y174607D01*
X91598Y174583D01*
X91610Y174556D01*
X91683Y174470D01*
X91752Y174380D01*
X91775Y174362D01*
X91794Y174340D01*
X91861Y174298D01*
X91979Y174210D01*
X92038Y174188D01*
X92079Y174162D01*
X94332Y173229D01*
X97029Y170532D01*
X98489Y167007D01*
X98489Y163193D01*
X97029Y159668D01*
X94332Y156971D01*
X91401Y155757D01*
X91290Y155692D01*
X91177Y155629D01*
X91168Y155620D01*
X91156Y155613D01*
X91068Y155519D01*
X90977Y155428D01*
X90970Y155416D01*
X90961Y155406D01*
X90902Y155291D01*
X90840Y155179D01*
X90837Y155165D01*
X90830Y155153D01*
X90806Y155027D01*
X90777Y154901D01*
X90778Y154888D01*
X90775Y154874D01*
X90787Y154746D01*
X90794Y154618D01*
X90799Y154605D01*
X90800Y154591D01*
X90846Y154471D01*
X90889Y154350D01*
X90897Y154339D01*
X90902Y154326D01*
X90979Y154223D01*
X91054Y154118D01*
X91065Y154110D01*
X91074Y154099D01*
X91176Y154022D01*
X91277Y153942D01*
X91289Y153938D01*
X91301Y153929D01*
X91456Y153871D01*
X91456Y153870D01*
X93201Y153147D01*
X94689Y152153D01*
X95953Y150889D01*
X96947Y149401D01*
X97632Y147749D01*
X97761Y147099D01*
X89884Y147099D01*
X89826Y147091D01*
X89768Y147093D01*
X89686Y147071D01*
X89603Y147059D01*
X89549Y147036D01*
X89493Y147021D01*
X89420Y146978D01*
X89343Y146943D01*
X89299Y146905D01*
X89248Y146876D01*
X89191Y146814D01*
X89126Y146760D01*
X89094Y146711D01*
X89054Y146668D01*
X89015Y146593D01*
X88969Y146523D01*
X88951Y146467D01*
X88924Y146415D01*
X88913Y146347D01*
X88900Y146305D01*
X88891Y146366D01*
G37*
%LPD*%
%LPC*%
G36*
X88891Y298766D02*
X88891Y298766D01*
X88867Y298819D01*
X88853Y298875D01*
X88809Y298948D01*
X88775Y299025D01*
X88737Y299070D01*
X88707Y299120D01*
X88646Y299178D01*
X88591Y299242D01*
X88543Y299274D01*
X88500Y299314D01*
X88425Y299353D01*
X88355Y299400D01*
X88299Y299417D01*
X88247Y299444D01*
X88179Y299455D01*
X88084Y299485D01*
X87984Y299488D01*
X87916Y299499D01*
X80039Y299499D01*
X80168Y300149D01*
X80853Y301801D01*
X81847Y303289D01*
X83111Y304553D01*
X84599Y305547D01*
X86344Y306270D01*
X86453Y306305D01*
X86464Y306313D01*
X86477Y306317D01*
X86582Y306392D01*
X86689Y306463D01*
X86697Y306474D01*
X86709Y306482D01*
X86789Y306582D01*
X86872Y306681D01*
X86877Y306693D01*
X86886Y306704D01*
X86935Y306823D01*
X86987Y306941D01*
X86989Y306954D01*
X86994Y306967D01*
X87008Y307095D01*
X87026Y307222D01*
X87024Y307236D01*
X87026Y307250D01*
X87004Y307376D01*
X86985Y307504D01*
X86980Y307516D01*
X86977Y307530D01*
X86921Y307646D01*
X86868Y307763D01*
X86859Y307773D01*
X86853Y307786D01*
X86767Y307881D01*
X86684Y307979D01*
X86673Y307986D01*
X86663Y307997D01*
X86422Y308147D01*
X86409Y308151D01*
X86399Y308157D01*
X83468Y309371D01*
X80771Y312068D01*
X79311Y315593D01*
X79311Y319407D01*
X80771Y322932D01*
X83468Y325629D01*
X85721Y326562D01*
X85746Y326577D01*
X85774Y326586D01*
X85869Y326649D01*
X85966Y326707D01*
X85986Y326728D01*
X86010Y326744D01*
X86083Y326831D01*
X86161Y326913D01*
X86175Y326939D01*
X86193Y326962D01*
X86240Y327065D01*
X86291Y327166D01*
X86297Y327195D01*
X86309Y327222D01*
X86324Y327334D01*
X86346Y327445D01*
X86344Y327474D01*
X86348Y327503D01*
X86332Y327615D01*
X86322Y327728D01*
X86311Y327756D01*
X86307Y327784D01*
X86261Y327887D01*
X86220Y327993D01*
X86202Y328017D01*
X86190Y328044D01*
X86117Y328129D01*
X86048Y328220D01*
X86025Y328238D01*
X86006Y328260D01*
X85939Y328302D01*
X85821Y328390D01*
X85762Y328412D01*
X85721Y328438D01*
X83468Y329371D01*
X80771Y332068D01*
X79311Y335593D01*
X79311Y339407D01*
X80771Y342932D01*
X82142Y344303D01*
X82211Y344395D01*
X82285Y344482D01*
X82297Y344508D01*
X82313Y344530D01*
X82354Y344637D01*
X82401Y344742D01*
X82405Y344770D01*
X82414Y344796D01*
X82424Y344910D01*
X82440Y345024D01*
X82436Y345051D01*
X82438Y345079D01*
X82415Y345191D01*
X82399Y345305D01*
X82388Y345330D01*
X82382Y345358D01*
X82329Y345460D01*
X82282Y345564D01*
X82264Y345585D01*
X82251Y345610D01*
X82172Y345693D01*
X82098Y345781D01*
X82076Y345794D01*
X82055Y345816D01*
X81826Y345951D01*
X81813Y345959D01*
X80800Y346378D01*
X76778Y350400D01*
X74601Y355656D01*
X74601Y361344D01*
X76778Y366600D01*
X80800Y370622D01*
X86056Y372799D01*
X91744Y372799D01*
X97000Y370622D01*
X101022Y366600D01*
X103199Y361344D01*
X103199Y355656D01*
X101022Y350400D01*
X97000Y346378D01*
X95987Y345959D01*
X95888Y345900D01*
X95786Y345847D01*
X95766Y345828D01*
X95742Y345814D01*
X95663Y345731D01*
X95580Y345652D01*
X95566Y345628D01*
X95547Y345608D01*
X95494Y345505D01*
X95436Y345406D01*
X95430Y345380D01*
X95417Y345355D01*
X95395Y345242D01*
X95366Y345131D01*
X95367Y345103D01*
X95362Y345076D01*
X95372Y344961D01*
X95375Y344847D01*
X95384Y344820D01*
X95386Y344793D01*
X95427Y344686D01*
X95463Y344576D01*
X95477Y344556D01*
X95488Y344527D01*
X95649Y344316D01*
X95658Y344303D01*
X97029Y342932D01*
X98489Y339407D01*
X98489Y335593D01*
X97029Y332068D01*
X94332Y329371D01*
X92079Y328438D01*
X92054Y328423D01*
X92026Y328414D01*
X91932Y328351D01*
X91834Y328293D01*
X91814Y328272D01*
X91790Y328256D01*
X91717Y328169D01*
X91639Y328087D01*
X91625Y328061D01*
X91607Y328038D01*
X91561Y327935D01*
X91509Y327834D01*
X91503Y327805D01*
X91491Y327778D01*
X91476Y327666D01*
X91454Y327555D01*
X91456Y327526D01*
X91452Y327497D01*
X91468Y327385D01*
X91478Y327272D01*
X91489Y327245D01*
X91493Y327215D01*
X91539Y327112D01*
X91580Y327007D01*
X91598Y326983D01*
X91610Y326956D01*
X91683Y326870D01*
X91752Y326780D01*
X91775Y326762D01*
X91794Y326740D01*
X91861Y326698D01*
X91979Y326610D01*
X92038Y326588D01*
X92079Y326562D01*
X94332Y325629D01*
X97029Y322932D01*
X98489Y319407D01*
X98489Y315593D01*
X97029Y312068D01*
X94332Y309371D01*
X91401Y308157D01*
X91290Y308092D01*
X91177Y308029D01*
X91168Y308020D01*
X91156Y308013D01*
X91068Y307919D01*
X90977Y307828D01*
X90970Y307816D01*
X90961Y307806D01*
X90902Y307691D01*
X90840Y307579D01*
X90837Y307565D01*
X90830Y307553D01*
X90806Y307427D01*
X90777Y307301D01*
X90778Y307288D01*
X90775Y307274D01*
X90787Y307146D01*
X90794Y307018D01*
X90799Y307005D01*
X90800Y306991D01*
X90846Y306871D01*
X90889Y306750D01*
X90897Y306739D01*
X90902Y306726D01*
X90979Y306623D01*
X91054Y306518D01*
X91065Y306510D01*
X91074Y306499D01*
X91176Y306422D01*
X91277Y306342D01*
X91289Y306338D01*
X91301Y306329D01*
X91456Y306271D01*
X91456Y306270D01*
X93201Y305547D01*
X94689Y304553D01*
X95953Y303289D01*
X96947Y301801D01*
X97632Y300149D01*
X97761Y299499D01*
X89884Y299499D01*
X89826Y299491D01*
X89768Y299493D01*
X89686Y299471D01*
X89603Y299459D01*
X89549Y299436D01*
X89493Y299421D01*
X89420Y299378D01*
X89343Y299343D01*
X89299Y299305D01*
X89248Y299276D01*
X89191Y299214D01*
X89126Y299160D01*
X89094Y299111D01*
X89054Y299068D01*
X89015Y298993D01*
X88969Y298923D01*
X88951Y298867D01*
X88924Y298815D01*
X88913Y298747D01*
X88900Y298705D01*
X88891Y298766D01*
G37*
%LPD*%
%LPC*%
G36*
X88891Y451166D02*
X88891Y451166D01*
X88867Y451219D01*
X88853Y451275D01*
X88809Y451348D01*
X88775Y451425D01*
X88737Y451470D01*
X88707Y451520D01*
X88646Y451578D01*
X88591Y451642D01*
X88543Y451674D01*
X88500Y451714D01*
X88425Y451753D01*
X88355Y451800D01*
X88299Y451817D01*
X88247Y451844D01*
X88179Y451855D01*
X88084Y451885D01*
X87984Y451888D01*
X87916Y451899D01*
X80039Y451899D01*
X80168Y452549D01*
X80853Y454201D01*
X81847Y455689D01*
X83111Y456953D01*
X84599Y457947D01*
X86344Y458670D01*
X86453Y458705D01*
X86464Y458713D01*
X86477Y458717D01*
X86582Y458792D01*
X86689Y458863D01*
X86697Y458874D01*
X86709Y458882D01*
X86789Y458982D01*
X86872Y459081D01*
X86877Y459093D01*
X86886Y459104D01*
X86935Y459223D01*
X86987Y459341D01*
X86989Y459354D01*
X86994Y459367D01*
X87008Y459495D01*
X87026Y459622D01*
X87024Y459636D01*
X87026Y459649D01*
X87004Y459776D01*
X86985Y459904D01*
X86980Y459916D01*
X86977Y459930D01*
X86921Y460046D01*
X86868Y460163D01*
X86859Y460173D01*
X86853Y460185D01*
X86767Y460281D01*
X86684Y460379D01*
X86673Y460386D01*
X86663Y460397D01*
X86422Y460547D01*
X86409Y460551D01*
X86399Y460557D01*
X83468Y461771D01*
X80771Y464468D01*
X79311Y467993D01*
X79311Y471807D01*
X80771Y475332D01*
X83468Y478029D01*
X85721Y478962D01*
X85746Y478977D01*
X85774Y478986D01*
X85869Y479049D01*
X85966Y479107D01*
X85986Y479128D01*
X86010Y479144D01*
X86083Y479231D01*
X86161Y479313D01*
X86175Y479339D01*
X86193Y479362D01*
X86240Y479465D01*
X86291Y479566D01*
X86297Y479595D01*
X86309Y479622D01*
X86324Y479734D01*
X86346Y479845D01*
X86344Y479874D01*
X86348Y479903D01*
X86332Y480015D01*
X86322Y480128D01*
X86311Y480156D01*
X86307Y480184D01*
X86261Y480287D01*
X86220Y480393D01*
X86202Y480417D01*
X86190Y480444D01*
X86117Y480530D01*
X86048Y480620D01*
X86025Y480638D01*
X86006Y480660D01*
X85939Y480702D01*
X85821Y480790D01*
X85762Y480812D01*
X85721Y480838D01*
X83468Y481771D01*
X80771Y484468D01*
X79311Y487993D01*
X79311Y491807D01*
X80771Y495332D01*
X82142Y496703D01*
X82211Y496795D01*
X82285Y496882D01*
X82297Y496908D01*
X82313Y496930D01*
X82354Y497037D01*
X82401Y497142D01*
X82405Y497170D01*
X82414Y497196D01*
X82424Y497310D01*
X82440Y497424D01*
X82436Y497451D01*
X82438Y497479D01*
X82415Y497591D01*
X82399Y497705D01*
X82388Y497730D01*
X82382Y497758D01*
X82329Y497860D01*
X82282Y497964D01*
X82264Y497985D01*
X82251Y498010D01*
X82172Y498093D01*
X82098Y498181D01*
X82076Y498194D01*
X82055Y498216D01*
X81826Y498351D01*
X81813Y498359D01*
X80800Y498778D01*
X76778Y502800D01*
X74601Y508056D01*
X74601Y513744D01*
X76778Y519000D01*
X80800Y523022D01*
X86056Y525199D01*
X91744Y525199D01*
X97000Y523022D01*
X101022Y519000D01*
X103199Y513744D01*
X103199Y508056D01*
X101022Y502800D01*
X97000Y498778D01*
X95987Y498359D01*
X95888Y498300D01*
X95786Y498247D01*
X95766Y498228D01*
X95742Y498214D01*
X95663Y498131D01*
X95580Y498052D01*
X95566Y498028D01*
X95547Y498008D01*
X95494Y497905D01*
X95436Y497806D01*
X95430Y497780D01*
X95417Y497755D01*
X95395Y497642D01*
X95366Y497531D01*
X95367Y497503D01*
X95362Y497476D01*
X95372Y497361D01*
X95375Y497247D01*
X95384Y497220D01*
X95386Y497193D01*
X95427Y497086D01*
X95463Y496976D01*
X95477Y496956D01*
X95488Y496927D01*
X95649Y496716D01*
X95658Y496703D01*
X97029Y495332D01*
X98489Y491807D01*
X98489Y487993D01*
X97029Y484468D01*
X94332Y481771D01*
X92079Y480838D01*
X92054Y480823D01*
X92026Y480814D01*
X91932Y480751D01*
X91834Y480693D01*
X91814Y480672D01*
X91790Y480656D01*
X91717Y480569D01*
X91639Y480487D01*
X91625Y480461D01*
X91607Y480438D01*
X91561Y480335D01*
X91509Y480234D01*
X91503Y480205D01*
X91491Y480178D01*
X91476Y480066D01*
X91454Y479955D01*
X91456Y479926D01*
X91452Y479897D01*
X91468Y479785D01*
X91478Y479672D01*
X91489Y479645D01*
X91493Y479615D01*
X91539Y479512D01*
X91580Y479407D01*
X91598Y479383D01*
X91610Y479356D01*
X91683Y479270D01*
X91752Y479180D01*
X91775Y479162D01*
X91794Y479140D01*
X91861Y479098D01*
X91979Y479010D01*
X92038Y478988D01*
X92079Y478962D01*
X94332Y478029D01*
X97029Y475332D01*
X98489Y471807D01*
X98489Y467993D01*
X97029Y464468D01*
X94332Y461771D01*
X91401Y460557D01*
X91290Y460492D01*
X91177Y460429D01*
X91168Y460420D01*
X91156Y460413D01*
X91067Y460319D01*
X90977Y460228D01*
X90970Y460216D01*
X90961Y460206D01*
X90902Y460092D01*
X90840Y459979D01*
X90837Y459965D01*
X90830Y459953D01*
X90806Y459827D01*
X90777Y459701D01*
X90778Y459688D01*
X90775Y459674D01*
X90786Y459546D01*
X90794Y459418D01*
X90799Y459405D01*
X90800Y459391D01*
X90846Y459271D01*
X90889Y459150D01*
X90897Y459138D01*
X90902Y459126D01*
X90979Y459023D01*
X91054Y458918D01*
X91065Y458910D01*
X91074Y458899D01*
X91176Y458822D01*
X91278Y458742D01*
X91289Y458738D01*
X91301Y458729D01*
X91456Y458670D01*
X93201Y457947D01*
X94689Y456953D01*
X95953Y455689D01*
X96947Y454201D01*
X97632Y452549D01*
X97761Y451899D01*
X89884Y451899D01*
X89826Y451891D01*
X89768Y451893D01*
X89686Y451871D01*
X89603Y451859D01*
X89549Y451836D01*
X89493Y451821D01*
X89420Y451778D01*
X89343Y451743D01*
X89299Y451705D01*
X89248Y451676D01*
X89191Y451614D01*
X89126Y451560D01*
X89094Y451511D01*
X89054Y451468D01*
X89015Y451393D01*
X88969Y451323D01*
X88951Y451267D01*
X88924Y451215D01*
X88913Y451147D01*
X88900Y451105D01*
X88891Y451166D01*
G37*
%LPD*%
%LPC*%
G36*
X86056Y109801D02*
X86056Y109801D01*
X80800Y111978D01*
X76778Y116000D01*
X74601Y121256D01*
X74601Y126944D01*
X76778Y132200D01*
X80800Y136222D01*
X82321Y136852D01*
X82420Y136910D01*
X82522Y136963D01*
X82542Y136982D01*
X82566Y136996D01*
X82644Y137080D01*
X82728Y137159D01*
X82742Y137183D01*
X82761Y137203D01*
X82813Y137305D01*
X82872Y137404D01*
X82878Y137431D01*
X82891Y137456D01*
X82913Y137568D01*
X82942Y137680D01*
X82941Y137707D01*
X82946Y137735D01*
X82936Y137849D01*
X82933Y137964D01*
X82924Y137990D01*
X82922Y138018D01*
X82880Y138125D01*
X82845Y138234D01*
X82831Y138255D01*
X82820Y138283D01*
X82659Y138495D01*
X82650Y138508D01*
X81847Y139311D01*
X80853Y140799D01*
X80168Y142451D01*
X80039Y143101D01*
X87916Y143101D01*
X87974Y143109D01*
X88032Y143107D01*
X88114Y143129D01*
X88197Y143141D01*
X88251Y143164D01*
X88307Y143179D01*
X88380Y143222D01*
X88457Y143257D01*
X88501Y143295D01*
X88552Y143324D01*
X88609Y143386D01*
X88674Y143440D01*
X88706Y143489D01*
X88746Y143532D01*
X88785Y143607D01*
X88831Y143677D01*
X88849Y143733D01*
X88876Y143785D01*
X88887Y143853D01*
X88900Y143895D01*
X88909Y143834D01*
X88933Y143781D01*
X88947Y143725D01*
X88991Y143652D01*
X89025Y143575D01*
X89063Y143530D01*
X89093Y143480D01*
X89154Y143422D01*
X89209Y143358D01*
X89257Y143326D01*
X89300Y143286D01*
X89375Y143247D01*
X89445Y143200D01*
X89501Y143183D01*
X89553Y143156D01*
X89621Y143145D01*
X89716Y143115D01*
X89816Y143112D01*
X89884Y143101D01*
X97761Y143101D01*
X97632Y142451D01*
X96947Y140799D01*
X95953Y139311D01*
X95150Y138508D01*
X95081Y138416D01*
X95007Y138328D01*
X94995Y138302D01*
X94979Y138280D01*
X94938Y138173D01*
X94891Y138068D01*
X94887Y138041D01*
X94878Y138015D01*
X94868Y137900D01*
X94852Y137787D01*
X94856Y137759D01*
X94854Y137731D01*
X94877Y137619D01*
X94893Y137505D01*
X94904Y137480D01*
X94910Y137453D01*
X94963Y137351D01*
X95010Y137246D01*
X95028Y137225D01*
X95041Y137200D01*
X95120Y137117D01*
X95194Y137030D01*
X95216Y137016D01*
X95237Y136994D01*
X95466Y136860D01*
X95479Y136852D01*
X97000Y136222D01*
X101022Y132200D01*
X103199Y126944D01*
X103199Y121256D01*
X101022Y116000D01*
X97000Y111978D01*
X91744Y109801D01*
X86056Y109801D01*
G37*
%LPD*%
%LPC*%
G36*
X86056Y414601D02*
X86056Y414601D01*
X80800Y416778D01*
X76778Y420800D01*
X74601Y426056D01*
X74601Y431744D01*
X76778Y437000D01*
X80800Y441022D01*
X82321Y441652D01*
X82420Y441710D01*
X82522Y441763D01*
X82542Y441782D01*
X82566Y441796D01*
X82645Y441880D01*
X82728Y441959D01*
X82742Y441983D01*
X82761Y442003D01*
X82814Y442105D01*
X82872Y442204D01*
X82878Y442231D01*
X82891Y442256D01*
X82913Y442368D01*
X82942Y442480D01*
X82941Y442507D01*
X82946Y442535D01*
X82936Y442649D01*
X82933Y442764D01*
X82924Y442790D01*
X82922Y442818D01*
X82881Y442925D01*
X82845Y443034D01*
X82831Y443055D01*
X82820Y443083D01*
X82659Y443296D01*
X82650Y443308D01*
X81847Y444111D01*
X80853Y445599D01*
X80168Y447251D01*
X80039Y447901D01*
X87916Y447901D01*
X87974Y447909D01*
X88032Y447907D01*
X88114Y447929D01*
X88197Y447941D01*
X88251Y447964D01*
X88307Y447979D01*
X88380Y448022D01*
X88457Y448057D01*
X88501Y448095D01*
X88552Y448124D01*
X88609Y448186D01*
X88674Y448240D01*
X88706Y448289D01*
X88746Y448332D01*
X88785Y448407D01*
X88831Y448477D01*
X88849Y448533D01*
X88876Y448585D01*
X88887Y448653D01*
X88900Y448695D01*
X88909Y448634D01*
X88933Y448581D01*
X88947Y448525D01*
X88991Y448452D01*
X89025Y448375D01*
X89063Y448330D01*
X89093Y448280D01*
X89154Y448222D01*
X89209Y448158D01*
X89257Y448126D01*
X89300Y448086D01*
X89375Y448047D01*
X89445Y448000D01*
X89501Y447983D01*
X89553Y447956D01*
X89621Y447945D01*
X89716Y447915D01*
X89816Y447912D01*
X89884Y447901D01*
X97761Y447901D01*
X97632Y447251D01*
X96947Y445599D01*
X95953Y444111D01*
X95150Y443308D01*
X95081Y443216D01*
X95007Y443128D01*
X94995Y443103D01*
X94979Y443080D01*
X94938Y442973D01*
X94891Y442868D01*
X94887Y442841D01*
X94878Y442815D01*
X94868Y442700D01*
X94852Y442587D01*
X94856Y442559D01*
X94854Y442531D01*
X94877Y442419D01*
X94893Y442305D01*
X94904Y442280D01*
X94910Y442253D01*
X94963Y442150D01*
X95010Y442046D01*
X95028Y442025D01*
X95041Y442000D01*
X95120Y441917D01*
X95194Y441830D01*
X95216Y441816D01*
X95237Y441794D01*
X95466Y441660D01*
X95479Y441652D01*
X97000Y441022D01*
X101022Y437000D01*
X103199Y431744D01*
X103199Y426056D01*
X101022Y420800D01*
X97000Y416778D01*
X91744Y414601D01*
X86056Y414601D01*
G37*
%LPD*%
%LPC*%
G36*
X86056Y262201D02*
X86056Y262201D01*
X80800Y264378D01*
X76778Y268400D01*
X74601Y273656D01*
X74601Y279344D01*
X76778Y284600D01*
X80800Y288622D01*
X82321Y289252D01*
X82420Y289310D01*
X82522Y289363D01*
X82542Y289382D01*
X82566Y289396D01*
X82645Y289480D01*
X82728Y289559D01*
X82742Y289583D01*
X82761Y289603D01*
X82814Y289705D01*
X82872Y289804D01*
X82878Y289831D01*
X82891Y289856D01*
X82913Y289968D01*
X82942Y290080D01*
X82941Y290107D01*
X82946Y290135D01*
X82936Y290249D01*
X82933Y290364D01*
X82924Y290390D01*
X82922Y290418D01*
X82881Y290525D01*
X82845Y290634D01*
X82831Y290655D01*
X82820Y290683D01*
X82659Y290896D01*
X82650Y290908D01*
X81847Y291711D01*
X80853Y293199D01*
X80168Y294851D01*
X80039Y295501D01*
X87916Y295501D01*
X87974Y295509D01*
X88032Y295507D01*
X88114Y295529D01*
X88197Y295541D01*
X88251Y295564D01*
X88307Y295579D01*
X88380Y295622D01*
X88457Y295657D01*
X88501Y295695D01*
X88552Y295724D01*
X88609Y295786D01*
X88674Y295840D01*
X88706Y295889D01*
X88746Y295932D01*
X88785Y296007D01*
X88831Y296077D01*
X88849Y296133D01*
X88876Y296185D01*
X88887Y296253D01*
X88900Y296295D01*
X88909Y296234D01*
X88933Y296181D01*
X88947Y296125D01*
X88991Y296052D01*
X89025Y295975D01*
X89063Y295930D01*
X89093Y295880D01*
X89154Y295822D01*
X89209Y295758D01*
X89257Y295726D01*
X89300Y295686D01*
X89375Y295647D01*
X89445Y295600D01*
X89501Y295583D01*
X89553Y295556D01*
X89621Y295545D01*
X89716Y295515D01*
X89816Y295512D01*
X89884Y295501D01*
X97761Y295501D01*
X97632Y294851D01*
X96947Y293199D01*
X95953Y291711D01*
X95150Y290908D01*
X95081Y290816D01*
X95007Y290728D01*
X94995Y290703D01*
X94979Y290680D01*
X94938Y290573D01*
X94891Y290468D01*
X94887Y290441D01*
X94878Y290415D01*
X94868Y290300D01*
X94852Y290187D01*
X94856Y290159D01*
X94854Y290131D01*
X94877Y290019D01*
X94893Y289905D01*
X94904Y289880D01*
X94910Y289853D01*
X94963Y289750D01*
X95010Y289646D01*
X95028Y289625D01*
X95041Y289600D01*
X95120Y289517D01*
X95194Y289430D01*
X95216Y289416D01*
X95237Y289394D01*
X95466Y289260D01*
X95479Y289252D01*
X97000Y288622D01*
X101022Y284600D01*
X103199Y279344D01*
X103199Y273656D01*
X101022Y268400D01*
X97000Y264378D01*
X91744Y262201D01*
X86056Y262201D01*
G37*
%LPD*%
%LPC*%
G36*
X96354Y596801D02*
X96354Y596801D01*
X91650Y598750D01*
X88050Y602350D01*
X86101Y607054D01*
X86101Y612146D01*
X88050Y616850D01*
X91650Y620450D01*
X96354Y622399D01*
X101446Y622399D01*
X106150Y620450D01*
X109750Y616850D01*
X111699Y612146D01*
X111699Y607054D01*
X109750Y602350D01*
X106150Y598750D01*
X101446Y596801D01*
X96354Y596801D01*
G37*
%LPD*%
%LPC*%
G36*
X353124Y152653D02*
X353124Y152653D01*
X348549Y154548D01*
X345048Y158049D01*
X343153Y162624D01*
X343153Y167576D01*
X345048Y172151D01*
X348549Y175652D01*
X353124Y177547D01*
X358076Y177547D01*
X362651Y175652D01*
X366152Y172151D01*
X368047Y167576D01*
X368047Y162624D01*
X366152Y158049D01*
X362651Y154548D01*
X358076Y152653D01*
X353124Y152653D01*
G37*
%LPD*%
%LPC*%
G36*
X353742Y307761D02*
X353742Y307761D01*
X350310Y309183D01*
X347683Y311810D01*
X346261Y315242D01*
X346261Y318958D01*
X347683Y322390D01*
X350310Y325017D01*
X353742Y326439D01*
X357458Y326439D01*
X360890Y325017D01*
X363517Y322390D01*
X364939Y318958D01*
X364939Y315242D01*
X363517Y311810D01*
X360890Y309183D01*
X357458Y307761D01*
X353742Y307761D01*
G37*
%LPD*%
%LPC*%
G36*
X42931Y611631D02*
X42931Y611631D01*
X42931Y621722D01*
X43778Y621588D01*
X45618Y620990D01*
X47342Y620112D01*
X48907Y618975D01*
X50275Y617607D01*
X51412Y616042D01*
X52290Y614318D01*
X52888Y612478D01*
X53022Y611631D01*
X42931Y611631D01*
G37*
%LPD*%
%LPC*%
G36*
X70931Y563631D02*
X70931Y563631D01*
X70931Y573722D01*
X71778Y573588D01*
X73618Y572990D01*
X75342Y572112D01*
X76907Y570975D01*
X78275Y569607D01*
X79412Y568042D01*
X80290Y566318D01*
X80888Y564478D01*
X81022Y563631D01*
X70931Y563631D01*
G37*
%LPD*%
%LPC*%
G36*
X28778Y611631D02*
X28778Y611631D01*
X28912Y612478D01*
X29510Y614318D01*
X30388Y616042D01*
X31525Y617607D01*
X32893Y618975D01*
X34458Y620112D01*
X36182Y620990D01*
X38022Y621588D01*
X38869Y621722D01*
X38869Y611631D01*
X28778Y611631D01*
G37*
%LPD*%
%LPC*%
G36*
X42931Y607569D02*
X42931Y607569D01*
X53022Y607569D01*
X52888Y606722D01*
X52290Y604882D01*
X51412Y603158D01*
X50275Y601593D01*
X48907Y600225D01*
X47342Y599088D01*
X45618Y598210D01*
X43778Y597612D01*
X42931Y597478D01*
X42931Y607569D01*
G37*
%LPD*%
%LPC*%
G36*
X56778Y563631D02*
X56778Y563631D01*
X56912Y564478D01*
X57510Y566318D01*
X58388Y568042D01*
X59525Y569607D01*
X60893Y570975D01*
X62458Y572112D01*
X64182Y572990D01*
X66022Y573588D01*
X66869Y573722D01*
X66869Y563631D01*
X56778Y563631D01*
G37*
%LPD*%
%LPC*%
G36*
X70931Y559569D02*
X70931Y559569D01*
X81022Y559569D01*
X80888Y558722D01*
X80290Y556882D01*
X79412Y555158D01*
X78275Y553593D01*
X76907Y552225D01*
X75342Y551088D01*
X73618Y550210D01*
X71778Y549612D01*
X70931Y549478D01*
X70931Y559569D01*
G37*
%LPD*%
%LPC*%
G36*
X38022Y597612D02*
X38022Y597612D01*
X36182Y598210D01*
X34458Y599088D01*
X32893Y600225D01*
X31525Y601593D01*
X30388Y603158D01*
X29510Y604882D01*
X28912Y606722D01*
X28778Y607569D01*
X38869Y607569D01*
X38869Y597478D01*
X38022Y597612D01*
G37*
%LPD*%
%LPC*%
G36*
X66022Y549612D02*
X66022Y549612D01*
X64182Y550210D01*
X62458Y551088D01*
X60893Y552225D01*
X59525Y553593D01*
X58388Y555158D01*
X57510Y556882D01*
X56912Y558722D01*
X56778Y559569D01*
X66869Y559569D01*
X66869Y549478D01*
X66022Y549612D01*
G37*
%LPD*%
%LPC*%
G36*
X256031Y510031D02*
X256031Y510031D01*
X256031Y519766D01*
X256796Y519645D01*
X258583Y519064D01*
X260257Y518211D01*
X261778Y517106D01*
X263106Y515778D01*
X264211Y514257D01*
X265064Y512583D01*
X265645Y510796D01*
X265766Y510031D01*
X256031Y510031D01*
G37*
%LPD*%
%LPC*%
G36*
X357631Y116331D02*
X357631Y116331D01*
X357631Y126066D01*
X358396Y125945D01*
X360183Y125364D01*
X361857Y124511D01*
X363378Y123406D01*
X364706Y122078D01*
X365811Y120557D01*
X366664Y118883D01*
X367245Y117096D01*
X367366Y116331D01*
X357631Y116331D01*
G37*
%LPD*%
%LPC*%
G36*
X242234Y510031D02*
X242234Y510031D01*
X242355Y510796D01*
X242936Y512583D01*
X243789Y514257D01*
X244894Y515778D01*
X246222Y517106D01*
X247743Y518211D01*
X249417Y519064D01*
X251204Y519645D01*
X251969Y519766D01*
X251969Y510031D01*
X242234Y510031D01*
G37*
%LPD*%
%LPC*%
G36*
X419861Y290069D02*
X419861Y290069D01*
X429596Y290069D01*
X429475Y289304D01*
X428894Y287517D01*
X428041Y285843D01*
X426936Y284322D01*
X425608Y282994D01*
X424087Y281889D01*
X422413Y281036D01*
X420626Y280455D01*
X419861Y280334D01*
X419861Y290069D01*
G37*
%LPD*%
%LPC*%
G36*
X256031Y505969D02*
X256031Y505969D01*
X265766Y505969D01*
X265645Y505204D01*
X265064Y503417D01*
X264211Y501743D01*
X263106Y500222D01*
X261778Y498894D01*
X260257Y497789D01*
X258583Y496936D01*
X256796Y496355D01*
X256031Y496234D01*
X256031Y505969D01*
G37*
%LPD*%
%LPC*%
G36*
X419861Y442469D02*
X419861Y442469D01*
X429596Y442469D01*
X429475Y441704D01*
X428894Y439917D01*
X428041Y438243D01*
X426936Y436722D01*
X425608Y435394D01*
X424087Y434289D01*
X422413Y433436D01*
X420626Y432855D01*
X419861Y432734D01*
X419861Y442469D01*
G37*
%LPD*%
%LPC*%
G36*
X419861Y137669D02*
X419861Y137669D01*
X429596Y137669D01*
X429475Y136904D01*
X428894Y135117D01*
X428041Y133443D01*
X426936Y131922D01*
X425608Y130594D01*
X424087Y129489D01*
X422413Y128636D01*
X420626Y128055D01*
X419861Y127934D01*
X419861Y137669D01*
G37*
%LPD*%
%LPC*%
G36*
X343834Y116331D02*
X343834Y116331D01*
X343955Y117096D01*
X344536Y118883D01*
X345389Y120557D01*
X346494Y122078D01*
X347822Y123406D01*
X349343Y124511D01*
X351017Y125364D01*
X352804Y125945D01*
X353569Y126066D01*
X353569Y116331D01*
X343834Y116331D01*
G37*
%LPD*%
%LPC*%
G36*
X357631Y112269D02*
X357631Y112269D01*
X367366Y112269D01*
X367245Y111504D01*
X366664Y109717D01*
X365811Y108043D01*
X364706Y106522D01*
X363378Y105194D01*
X361857Y104089D01*
X360183Y103236D01*
X358396Y102655D01*
X357631Y102534D01*
X357631Y112269D01*
G37*
%LPD*%
%LPC*%
G36*
X415034Y128055D02*
X415034Y128055D01*
X413247Y128636D01*
X411573Y129489D01*
X410052Y130594D01*
X408724Y131922D01*
X407619Y133443D01*
X406766Y135117D01*
X406185Y136904D01*
X406064Y137669D01*
X415799Y137669D01*
X415799Y127934D01*
X415034Y128055D01*
G37*
%LPD*%
%LPC*%
G36*
X415034Y280455D02*
X415034Y280455D01*
X413247Y281036D01*
X411573Y281889D01*
X410052Y282994D01*
X408724Y284322D01*
X407619Y285843D01*
X406766Y287517D01*
X406185Y289304D01*
X406064Y290069D01*
X415799Y290069D01*
X415799Y280334D01*
X415034Y280455D01*
G37*
%LPD*%
%LPC*%
G36*
X251204Y496355D02*
X251204Y496355D01*
X249417Y496936D01*
X247743Y497789D01*
X246222Y498894D01*
X244894Y500222D01*
X243789Y501743D01*
X242936Y503417D01*
X242355Y505204D01*
X242234Y505969D01*
X251969Y505969D01*
X251969Y496234D01*
X251204Y496355D01*
G37*
%LPD*%
%LPC*%
G36*
X415034Y432855D02*
X415034Y432855D01*
X413247Y433436D01*
X411573Y434289D01*
X410052Y435394D01*
X408724Y436722D01*
X407619Y438243D01*
X406766Y439917D01*
X406185Y441704D01*
X406064Y442469D01*
X415799Y442469D01*
X415799Y432734D01*
X415034Y432855D01*
G37*
%LPD*%
%LPC*%
G36*
X352804Y102655D02*
X352804Y102655D01*
X351017Y103236D01*
X349343Y104089D01*
X347822Y105194D01*
X346494Y106522D01*
X345389Y108043D01*
X344536Y109717D01*
X343955Y111504D01*
X343834Y112269D01*
X353569Y112269D01*
X353569Y102534D01*
X352804Y102655D01*
G37*
%LPD*%
%LPC*%
G36*
X357474Y268974D02*
X357474Y268974D01*
X357474Y275731D01*
X358176Y275591D01*
X359783Y274926D01*
X361229Y273959D01*
X362459Y272729D01*
X363426Y271283D01*
X364091Y269676D01*
X364231Y268974D01*
X357474Y268974D01*
G37*
%LPD*%
%LPC*%
G36*
X346969Y268974D02*
X346969Y268974D01*
X347109Y269676D01*
X347774Y271283D01*
X348741Y272729D01*
X349971Y273959D01*
X351417Y274926D01*
X353024Y275591D01*
X353726Y275731D01*
X353726Y268974D01*
X346969Y268974D01*
G37*
%LPD*%
%LPC*%
G36*
X357474Y265226D02*
X357474Y265226D01*
X364231Y265226D01*
X364091Y264524D01*
X363426Y262917D01*
X362459Y261471D01*
X361229Y260241D01*
X359783Y259274D01*
X358176Y258609D01*
X357474Y258469D01*
X357474Y265226D01*
G37*
%LPD*%
%LPC*%
G36*
X353024Y258609D02*
X353024Y258609D01*
X351417Y259274D01*
X349971Y260241D01*
X348741Y261471D01*
X347774Y262917D01*
X347109Y264524D01*
X346969Y265226D01*
X353726Y265226D01*
X353726Y258469D01*
X353024Y258609D01*
G37*
%LPD*%
%LPC*%
G36*
X40899Y609599D02*
X40899Y609599D01*
X40899Y609601D01*
X40901Y609601D01*
X40901Y609599D01*
X40899Y609599D01*
G37*
%LPD*%
%LPC*%
G36*
X355599Y114299D02*
X355599Y114299D01*
X355599Y114301D01*
X355601Y114301D01*
X355601Y114299D01*
X355599Y114299D01*
G37*
%LPD*%
%LPC*%
G36*
X253999Y507999D02*
X253999Y507999D01*
X253999Y508001D01*
X254001Y508001D01*
X254001Y507999D01*
X253999Y507999D01*
G37*
%LPD*%
%LPC*%
G36*
X68899Y561599D02*
X68899Y561599D01*
X68899Y561601D01*
X68901Y561601D01*
X68901Y561599D01*
X68899Y561599D01*
G37*
%LPD*%
D10*
X355600Y267100D03*
X355600Y317100D03*
D11*
X98900Y609600D03*
X40900Y609600D03*
X68900Y561600D03*
D12*
X417830Y444500D03*
X420370Y469900D03*
X417830Y495300D03*
X417830Y292100D03*
X420370Y317500D03*
X417830Y342900D03*
X417830Y139700D03*
X420370Y165100D03*
X417830Y190500D03*
X355600Y114300D03*
X355600Y165100D03*
X177800Y355600D03*
X254000Y355600D03*
X177800Y203200D03*
X254000Y203200D03*
D13*
X88900Y317500D03*
D14*
X88900Y276500D03*
X88900Y358500D03*
D13*
X88900Y297500D03*
X88900Y337500D03*
X88900Y165100D03*
D14*
X88900Y124100D03*
X88900Y206100D03*
D13*
X88900Y145100D03*
X88900Y185100D03*
X88900Y469900D03*
D14*
X88900Y428900D03*
X88900Y510900D03*
D13*
X88900Y449900D03*
X88900Y489900D03*
D12*
X177800Y508000D03*
X254000Y508000D03*
D15*
X114300Y228600D03*
X114300Y381000D03*
X114300Y533400D03*
X266700Y50800D03*
X152400Y609600D03*
D16*
X177800Y355600D02*
X195580Y337820D01*
X330200Y337820D01*
X335280Y342900D02*
X417830Y342900D01*
X335280Y342900D02*
X330200Y337820D01*
X177800Y203200D02*
X195580Y185420D01*
X322580Y185420D01*
X327660Y190500D02*
X417830Y190500D01*
X327660Y190500D02*
X322580Y185420D01*
X203200Y482600D02*
X177800Y508000D01*
X203200Y482600D02*
X368300Y482600D01*
X381000Y495300D01*
X417830Y495300D01*
M02*
