G04 EAGLE Gerber RS-274X export*
G75*
%MOMM*%
%FSLAX34Y34*%
%LPD*%
%IN*%
%IPPOS*%
%AMOC8*
5,1,8,0,0,1.08239X$1,22.5*%
G01*
%ADD10C,0.254000*%


D10*
X0Y0D02*
X508000Y0D01*
X508000Y673100D01*
X0Y673100D01*
X0Y0D01*
X482537Y628076D02*
X482467Y626931D01*
X482329Y625792D01*
X482122Y624663D01*
X481848Y623549D01*
X481506Y622454D01*
X481099Y621381D01*
X480628Y620335D01*
X480095Y619319D01*
X479502Y618337D01*
X478850Y617392D01*
X478142Y616489D01*
X477381Y615630D01*
X476570Y614819D01*
X475711Y614058D01*
X474808Y613350D01*
X473863Y612699D01*
X472881Y612105D01*
X471865Y611572D01*
X470819Y611101D01*
X469746Y610694D01*
X468651Y610353D01*
X467537Y610078D01*
X466408Y609871D01*
X465269Y609733D01*
X464124Y609664D01*
X462976Y609664D01*
X461831Y609733D01*
X460692Y609871D01*
X459563Y610078D01*
X458449Y610353D01*
X457354Y610694D01*
X456281Y611101D01*
X455235Y611572D01*
X454219Y612105D01*
X453237Y612699D01*
X452292Y613350D01*
X451389Y614058D01*
X450530Y614819D01*
X449719Y615630D01*
X448958Y616489D01*
X448250Y617392D01*
X447599Y618337D01*
X447005Y619319D01*
X446472Y620335D01*
X446001Y621381D01*
X445594Y622454D01*
X445253Y623549D01*
X444978Y624663D01*
X444771Y625792D01*
X444633Y626931D01*
X444564Y628076D01*
X444564Y629224D01*
X444633Y630369D01*
X444771Y631508D01*
X444978Y632637D01*
X445253Y633751D01*
X445594Y634846D01*
X446001Y635919D01*
X446472Y636965D01*
X447005Y637981D01*
X447599Y638963D01*
X448250Y639908D01*
X448958Y640811D01*
X449719Y641670D01*
X450530Y642481D01*
X451389Y643242D01*
X452292Y643950D01*
X453237Y644602D01*
X454219Y645195D01*
X455235Y645728D01*
X456281Y646199D01*
X457354Y646606D01*
X458449Y646948D01*
X459563Y647222D01*
X460692Y647429D01*
X461831Y647567D01*
X462976Y647637D01*
X464124Y647637D01*
X465269Y647567D01*
X466408Y647429D01*
X467537Y647222D01*
X468651Y646948D01*
X469746Y646606D01*
X470819Y646199D01*
X471865Y645728D01*
X472881Y645195D01*
X473863Y644602D01*
X474808Y643950D01*
X475711Y643242D01*
X476570Y642481D01*
X477381Y641670D01*
X478142Y640811D01*
X478850Y639908D01*
X479502Y638963D01*
X480095Y637981D01*
X480628Y636965D01*
X481099Y635919D01*
X481506Y634846D01*
X481848Y633751D01*
X482122Y632637D01*
X482329Y631508D01*
X482467Y630369D01*
X482537Y629224D01*
X482537Y628076D01*
X63437Y43876D02*
X63367Y42731D01*
X63229Y41592D01*
X63022Y40463D01*
X62748Y39349D01*
X62406Y38254D01*
X61999Y37181D01*
X61528Y36135D01*
X60995Y35119D01*
X60402Y34137D01*
X59750Y33192D01*
X59042Y32289D01*
X58281Y31430D01*
X57470Y30619D01*
X56611Y29858D01*
X55708Y29150D01*
X54763Y28499D01*
X53781Y27905D01*
X52765Y27372D01*
X51719Y26901D01*
X50646Y26494D01*
X49551Y26153D01*
X48437Y25878D01*
X47308Y25671D01*
X46169Y25533D01*
X45024Y25464D01*
X43876Y25464D01*
X42731Y25533D01*
X41592Y25671D01*
X40463Y25878D01*
X39349Y26153D01*
X38254Y26494D01*
X37181Y26901D01*
X36135Y27372D01*
X35119Y27905D01*
X34137Y28499D01*
X33192Y29150D01*
X32289Y29858D01*
X31430Y30619D01*
X30619Y31430D01*
X29858Y32289D01*
X29150Y33192D01*
X28499Y34137D01*
X27905Y35119D01*
X27372Y36135D01*
X26901Y37181D01*
X26494Y38254D01*
X26153Y39349D01*
X25878Y40463D01*
X25671Y41592D01*
X25533Y42731D01*
X25464Y43876D01*
X25464Y45024D01*
X25533Y46169D01*
X25671Y47308D01*
X25878Y48437D01*
X26153Y49551D01*
X26494Y50646D01*
X26901Y51719D01*
X27372Y52765D01*
X27905Y53781D01*
X28499Y54763D01*
X29150Y55708D01*
X29858Y56611D01*
X30619Y57470D01*
X31430Y58281D01*
X32289Y59042D01*
X33192Y59750D01*
X34137Y60402D01*
X35119Y60995D01*
X36135Y61528D01*
X37181Y61999D01*
X38254Y62406D01*
X39349Y62748D01*
X40463Y63022D01*
X41592Y63229D01*
X42731Y63367D01*
X43876Y63437D01*
X45024Y63437D01*
X46169Y63367D01*
X47308Y63229D01*
X48437Y63022D01*
X49551Y62748D01*
X50646Y62406D01*
X51719Y61999D01*
X52765Y61528D01*
X53781Y60995D01*
X54763Y60402D01*
X55708Y59750D01*
X56611Y59042D01*
X57470Y58281D01*
X58281Y57470D01*
X59042Y56611D01*
X59750Y55708D01*
X60402Y54763D01*
X60995Y53781D01*
X61528Y52765D01*
X61999Y51719D01*
X62406Y50646D01*
X62748Y49551D01*
X63022Y48437D01*
X63229Y47308D01*
X63367Y46169D01*
X63437Y45024D01*
X63437Y43876D01*
X482537Y43876D02*
X482467Y42731D01*
X482329Y41592D01*
X482122Y40463D01*
X481848Y39349D01*
X481506Y38254D01*
X481099Y37181D01*
X480628Y36135D01*
X480095Y35119D01*
X479502Y34137D01*
X478850Y33192D01*
X478142Y32289D01*
X477381Y31430D01*
X476570Y30619D01*
X475711Y29858D01*
X474808Y29150D01*
X473863Y28499D01*
X472881Y27905D01*
X471865Y27372D01*
X470819Y26901D01*
X469746Y26494D01*
X468651Y26153D01*
X467537Y25878D01*
X466408Y25671D01*
X465269Y25533D01*
X464124Y25464D01*
X462976Y25464D01*
X461831Y25533D01*
X460692Y25671D01*
X459563Y25878D01*
X458449Y26153D01*
X457354Y26494D01*
X456281Y26901D01*
X455235Y27372D01*
X454219Y27905D01*
X453237Y28499D01*
X452292Y29150D01*
X451389Y29858D01*
X450530Y30619D01*
X449719Y31430D01*
X448958Y32289D01*
X448250Y33192D01*
X447599Y34137D01*
X447005Y35119D01*
X446472Y36135D01*
X446001Y37181D01*
X445594Y38254D01*
X445253Y39349D01*
X444978Y40463D01*
X444771Y41592D01*
X444633Y42731D01*
X444564Y43876D01*
X444564Y45024D01*
X444633Y46169D01*
X444771Y47308D01*
X444978Y48437D01*
X445253Y49551D01*
X445594Y50646D01*
X446001Y51719D01*
X446472Y52765D01*
X447005Y53781D01*
X447599Y54763D01*
X448250Y55708D01*
X448958Y56611D01*
X449719Y57470D01*
X450530Y58281D01*
X451389Y59042D01*
X452292Y59750D01*
X453237Y60402D01*
X454219Y60995D01*
X455235Y61528D01*
X456281Y61999D01*
X457354Y62406D01*
X458449Y62748D01*
X459563Y63022D01*
X460692Y63229D01*
X461831Y63367D01*
X462976Y63437D01*
X464124Y63437D01*
X465269Y63367D01*
X466408Y63229D01*
X467537Y63022D01*
X468651Y62748D01*
X469746Y62406D01*
X470819Y61999D01*
X471865Y61528D01*
X472881Y60995D01*
X473863Y60402D01*
X474808Y59750D01*
X475711Y59042D01*
X476570Y58281D01*
X477381Y57470D01*
X478142Y56611D01*
X478850Y55708D01*
X479502Y54763D01*
X480095Y53781D01*
X480628Y52765D01*
X481099Y51719D01*
X481506Y50646D01*
X481848Y49551D01*
X482122Y48437D01*
X482329Y47308D01*
X482467Y46169D01*
X482537Y45024D01*
X482537Y43876D01*
M02*
