G04 EAGLE Gerber RS-274X export*
G75*
%MOMM*%
%FSLAX34Y34*%
%LPD*%
%INSilkscreen Top*%
%IPPOS*%
%AMOC8*
5,1,8,0,0,1.08239X$1,22.5*%
G01*
%ADD10C,0.254000*%
%ADD11C,0.101600*%
%ADD12C,0.304800*%
%ADD13C,0.203200*%
%ADD14C,0.200000*%
%ADD15C,0.127000*%


D10*
X25400Y546100D02*
X482600Y546100D01*
X482600Y393700D02*
X25400Y393700D01*
X25400Y241300D02*
X482600Y241300D01*
X482600Y88900D02*
X25400Y88900D01*
D11*
X445008Y184658D02*
X445008Y196342D01*
X448254Y196342D01*
X448367Y196340D01*
X448480Y196334D01*
X448593Y196324D01*
X448706Y196310D01*
X448818Y196293D01*
X448929Y196271D01*
X449039Y196246D01*
X449149Y196216D01*
X449257Y196183D01*
X449364Y196146D01*
X449470Y196106D01*
X449574Y196061D01*
X449677Y196013D01*
X449778Y195962D01*
X449877Y195907D01*
X449974Y195849D01*
X450069Y195787D01*
X450162Y195722D01*
X450252Y195654D01*
X450340Y195583D01*
X450426Y195508D01*
X450509Y195431D01*
X450589Y195351D01*
X450666Y195268D01*
X450741Y195182D01*
X450812Y195094D01*
X450880Y195004D01*
X450945Y194911D01*
X451007Y194816D01*
X451065Y194719D01*
X451120Y194620D01*
X451171Y194519D01*
X451219Y194416D01*
X451264Y194312D01*
X451304Y194206D01*
X451341Y194099D01*
X451374Y193991D01*
X451404Y193881D01*
X451429Y193771D01*
X451451Y193660D01*
X451468Y193548D01*
X451482Y193435D01*
X451492Y193322D01*
X451498Y193209D01*
X451500Y193096D01*
X451498Y192983D01*
X451492Y192870D01*
X451482Y192757D01*
X451468Y192644D01*
X451451Y192532D01*
X451429Y192421D01*
X451404Y192311D01*
X451374Y192201D01*
X451341Y192093D01*
X451304Y191986D01*
X451264Y191880D01*
X451219Y191776D01*
X451171Y191673D01*
X451120Y191572D01*
X451065Y191473D01*
X451007Y191376D01*
X450945Y191281D01*
X450880Y191188D01*
X450812Y191098D01*
X450741Y191010D01*
X450666Y190924D01*
X450589Y190841D01*
X450509Y190761D01*
X450426Y190684D01*
X450340Y190609D01*
X450252Y190538D01*
X450162Y190470D01*
X450069Y190405D01*
X449974Y190343D01*
X449877Y190285D01*
X449778Y190230D01*
X449677Y190179D01*
X449574Y190131D01*
X449470Y190086D01*
X449364Y190046D01*
X449257Y190009D01*
X449149Y189976D01*
X449039Y189946D01*
X448929Y189921D01*
X448818Y189899D01*
X448706Y189882D01*
X448593Y189868D01*
X448480Y189858D01*
X448367Y189852D01*
X448254Y189850D01*
X448254Y189851D02*
X445008Y189851D01*
X448903Y189851D02*
X451499Y184658D01*
X465706Y184658D02*
X461811Y196342D01*
X469601Y196342D02*
X465706Y184658D01*
X476454Y184658D02*
X479050Y184658D01*
X476454Y184658D02*
X476355Y184660D01*
X476255Y184666D01*
X476156Y184675D01*
X476058Y184688D01*
X475960Y184705D01*
X475862Y184726D01*
X475766Y184751D01*
X475671Y184779D01*
X475577Y184811D01*
X475484Y184846D01*
X475392Y184885D01*
X475302Y184928D01*
X475214Y184973D01*
X475127Y185023D01*
X475043Y185075D01*
X474960Y185131D01*
X474880Y185189D01*
X474802Y185251D01*
X474727Y185316D01*
X474654Y185384D01*
X474584Y185454D01*
X474516Y185527D01*
X474451Y185602D01*
X474389Y185680D01*
X474331Y185760D01*
X474275Y185843D01*
X474223Y185927D01*
X474173Y186014D01*
X474128Y186102D01*
X474085Y186192D01*
X474046Y186284D01*
X474011Y186377D01*
X473979Y186471D01*
X473951Y186566D01*
X473926Y186662D01*
X473905Y186760D01*
X473888Y186858D01*
X473875Y186956D01*
X473866Y187055D01*
X473860Y187155D01*
X473858Y187254D01*
X473857Y187254D02*
X473857Y193746D01*
X473858Y193746D02*
X473860Y193845D01*
X473866Y193945D01*
X473875Y194044D01*
X473888Y194142D01*
X473905Y194240D01*
X473926Y194338D01*
X473951Y194434D01*
X473979Y194529D01*
X474011Y194623D01*
X474046Y194716D01*
X474085Y194808D01*
X474128Y194898D01*
X474173Y194986D01*
X474223Y195073D01*
X474275Y195157D01*
X474331Y195240D01*
X474389Y195320D01*
X474451Y195398D01*
X474516Y195473D01*
X474584Y195546D01*
X474654Y195616D01*
X474727Y195684D01*
X474802Y195749D01*
X474880Y195811D01*
X474960Y195869D01*
X475043Y195925D01*
X475127Y195977D01*
X475214Y196027D01*
X475302Y196072D01*
X475392Y196115D01*
X475484Y196154D01*
X475576Y196189D01*
X475671Y196221D01*
X475766Y196249D01*
X475862Y196274D01*
X475960Y196295D01*
X476058Y196312D01*
X476156Y196325D01*
X476255Y196334D01*
X476355Y196340D01*
X476454Y196342D01*
X479050Y196342D01*
X485979Y184658D02*
X488575Y184658D01*
X485979Y184658D02*
X485880Y184660D01*
X485780Y184666D01*
X485681Y184675D01*
X485583Y184688D01*
X485485Y184705D01*
X485387Y184726D01*
X485291Y184751D01*
X485196Y184779D01*
X485102Y184811D01*
X485009Y184846D01*
X484917Y184885D01*
X484827Y184928D01*
X484739Y184973D01*
X484652Y185023D01*
X484568Y185075D01*
X484485Y185131D01*
X484405Y185189D01*
X484327Y185251D01*
X484252Y185316D01*
X484179Y185384D01*
X484109Y185454D01*
X484041Y185527D01*
X483976Y185602D01*
X483914Y185680D01*
X483856Y185760D01*
X483800Y185843D01*
X483748Y185927D01*
X483698Y186014D01*
X483653Y186102D01*
X483610Y186192D01*
X483571Y186284D01*
X483536Y186377D01*
X483504Y186471D01*
X483476Y186566D01*
X483451Y186662D01*
X483430Y186760D01*
X483413Y186858D01*
X483400Y186956D01*
X483391Y187055D01*
X483385Y187155D01*
X483383Y187254D01*
X483382Y187254D02*
X483382Y193746D01*
X483383Y193746D02*
X483385Y193845D01*
X483391Y193945D01*
X483400Y194044D01*
X483413Y194142D01*
X483430Y194240D01*
X483451Y194338D01*
X483476Y194434D01*
X483504Y194529D01*
X483536Y194623D01*
X483571Y194716D01*
X483610Y194808D01*
X483653Y194898D01*
X483698Y194986D01*
X483748Y195073D01*
X483800Y195157D01*
X483856Y195240D01*
X483914Y195320D01*
X483976Y195398D01*
X484041Y195473D01*
X484109Y195546D01*
X484179Y195616D01*
X484252Y195684D01*
X484327Y195749D01*
X484405Y195811D01*
X484485Y195869D01*
X484568Y195925D01*
X484652Y195977D01*
X484739Y196027D01*
X484827Y196072D01*
X484917Y196115D01*
X485009Y196154D01*
X485101Y196189D01*
X485196Y196221D01*
X485291Y196249D01*
X485387Y196274D01*
X485485Y196295D01*
X485583Y196312D01*
X485681Y196325D01*
X485780Y196334D01*
X485880Y196340D01*
X485979Y196342D01*
X488575Y196342D01*
X445008Y170942D02*
X445008Y159258D01*
X445008Y170942D02*
X448254Y170942D01*
X448367Y170940D01*
X448480Y170934D01*
X448593Y170924D01*
X448706Y170910D01*
X448818Y170893D01*
X448929Y170871D01*
X449039Y170846D01*
X449149Y170816D01*
X449257Y170783D01*
X449364Y170746D01*
X449470Y170706D01*
X449574Y170661D01*
X449677Y170613D01*
X449778Y170562D01*
X449877Y170507D01*
X449974Y170449D01*
X450069Y170387D01*
X450162Y170322D01*
X450252Y170254D01*
X450340Y170183D01*
X450426Y170108D01*
X450509Y170031D01*
X450589Y169951D01*
X450666Y169868D01*
X450741Y169782D01*
X450812Y169694D01*
X450880Y169604D01*
X450945Y169511D01*
X451007Y169416D01*
X451065Y169319D01*
X451120Y169220D01*
X451171Y169119D01*
X451219Y169016D01*
X451264Y168912D01*
X451304Y168806D01*
X451341Y168699D01*
X451374Y168591D01*
X451404Y168481D01*
X451429Y168371D01*
X451451Y168260D01*
X451468Y168148D01*
X451482Y168035D01*
X451492Y167922D01*
X451498Y167809D01*
X451500Y167696D01*
X451498Y167583D01*
X451492Y167470D01*
X451482Y167357D01*
X451468Y167244D01*
X451451Y167132D01*
X451429Y167021D01*
X451404Y166911D01*
X451374Y166801D01*
X451341Y166693D01*
X451304Y166586D01*
X451264Y166480D01*
X451219Y166376D01*
X451171Y166273D01*
X451120Y166172D01*
X451065Y166073D01*
X451007Y165976D01*
X450945Y165881D01*
X450880Y165788D01*
X450812Y165698D01*
X450741Y165610D01*
X450666Y165524D01*
X450589Y165441D01*
X450509Y165361D01*
X450426Y165284D01*
X450340Y165209D01*
X450252Y165138D01*
X450162Y165070D01*
X450069Y165005D01*
X449974Y164943D01*
X449877Y164885D01*
X449778Y164830D01*
X449677Y164779D01*
X449574Y164731D01*
X449470Y164686D01*
X449364Y164646D01*
X449257Y164609D01*
X449149Y164576D01*
X449039Y164546D01*
X448929Y164521D01*
X448818Y164499D01*
X448706Y164482D01*
X448593Y164468D01*
X448480Y164458D01*
X448367Y164452D01*
X448254Y164450D01*
X448254Y164451D02*
X445008Y164451D01*
X448903Y164451D02*
X451499Y159258D01*
X464944Y159258D02*
X464944Y170942D01*
X468189Y170942D02*
X461698Y170942D01*
X474201Y159258D02*
X477446Y159258D01*
X474201Y159258D02*
X474114Y159260D01*
X474026Y159266D01*
X473940Y159276D01*
X473853Y159289D01*
X473768Y159307D01*
X473683Y159328D01*
X473599Y159353D01*
X473517Y159382D01*
X473436Y159415D01*
X473356Y159451D01*
X473278Y159490D01*
X473202Y159534D01*
X473128Y159580D01*
X473057Y159630D01*
X472987Y159683D01*
X472920Y159739D01*
X472856Y159798D01*
X472794Y159860D01*
X472735Y159924D01*
X472679Y159991D01*
X472626Y160061D01*
X472576Y160132D01*
X472530Y160206D01*
X472486Y160282D01*
X472447Y160360D01*
X472411Y160440D01*
X472378Y160521D01*
X472349Y160603D01*
X472324Y160687D01*
X472303Y160772D01*
X472285Y160857D01*
X472272Y160944D01*
X472262Y161030D01*
X472256Y161118D01*
X472254Y161205D01*
X472253Y161205D02*
X472253Y164451D01*
X472254Y164451D02*
X472256Y164552D01*
X472262Y164652D01*
X472272Y164752D01*
X472285Y164852D01*
X472303Y164951D01*
X472324Y165050D01*
X472349Y165147D01*
X472378Y165244D01*
X472411Y165339D01*
X472447Y165433D01*
X472487Y165525D01*
X472530Y165616D01*
X472577Y165705D01*
X472627Y165792D01*
X472681Y165878D01*
X472738Y165961D01*
X472798Y166041D01*
X472861Y166120D01*
X472928Y166196D01*
X472997Y166269D01*
X473069Y166339D01*
X473143Y166407D01*
X473220Y166472D01*
X473300Y166533D01*
X473382Y166592D01*
X473466Y166647D01*
X473552Y166699D01*
X473640Y166748D01*
X473730Y166793D01*
X473822Y166835D01*
X473915Y166873D01*
X474010Y166907D01*
X474105Y166938D01*
X474202Y166965D01*
X474300Y166988D01*
X474399Y167008D01*
X474499Y167023D01*
X474599Y167035D01*
X474699Y167043D01*
X474800Y167047D01*
X474900Y167047D01*
X475001Y167043D01*
X475101Y167035D01*
X475201Y167023D01*
X475301Y167008D01*
X475400Y166988D01*
X475498Y166965D01*
X475595Y166938D01*
X475690Y166907D01*
X475785Y166873D01*
X475878Y166835D01*
X475970Y166793D01*
X476060Y166748D01*
X476148Y166699D01*
X476234Y166647D01*
X476318Y166592D01*
X476400Y166533D01*
X476480Y166472D01*
X476557Y166407D01*
X476631Y166339D01*
X476703Y166269D01*
X476772Y166196D01*
X476839Y166120D01*
X476902Y166041D01*
X476962Y165961D01*
X477019Y165878D01*
X477073Y165792D01*
X477123Y165705D01*
X477170Y165616D01*
X477213Y165525D01*
X477253Y165433D01*
X477289Y165339D01*
X477322Y165244D01*
X477351Y165147D01*
X477376Y165050D01*
X477397Y164951D01*
X477415Y164852D01*
X477428Y164752D01*
X477438Y164652D01*
X477444Y164552D01*
X477446Y164451D01*
X477446Y163153D01*
X472253Y163153D01*
X483133Y163802D02*
X486379Y162504D01*
X483133Y163801D02*
X483058Y163834D01*
X482984Y163870D01*
X482912Y163909D01*
X482842Y163952D01*
X482775Y163998D01*
X482709Y164048D01*
X482647Y164100D01*
X482586Y164156D01*
X482529Y164214D01*
X482474Y164275D01*
X482423Y164339D01*
X482375Y164405D01*
X482330Y164474D01*
X482288Y164544D01*
X482250Y164617D01*
X482215Y164691D01*
X482184Y164767D01*
X482157Y164844D01*
X482134Y164923D01*
X482114Y165002D01*
X482099Y165083D01*
X482087Y165164D01*
X482079Y165246D01*
X482075Y165327D01*
X482076Y165409D01*
X482080Y165491D01*
X482088Y165573D01*
X482100Y165654D01*
X482116Y165734D01*
X482136Y165814D01*
X482160Y165892D01*
X482188Y165969D01*
X482219Y166045D01*
X482254Y166119D01*
X482292Y166191D01*
X482334Y166262D01*
X482380Y166330D01*
X482428Y166396D01*
X482480Y166459D01*
X482535Y166520D01*
X482593Y166578D01*
X482653Y166634D01*
X482716Y166686D01*
X482782Y166735D01*
X482850Y166781D01*
X482920Y166823D01*
X482992Y166863D01*
X483066Y166898D01*
X483141Y166930D01*
X483218Y166958D01*
X483296Y166982D01*
X483376Y167003D01*
X483456Y167020D01*
X483537Y167032D01*
X483618Y167041D01*
X483700Y167046D01*
X483782Y167047D01*
X483959Y167043D01*
X484136Y167034D01*
X484313Y167020D01*
X484490Y167003D01*
X484665Y166981D01*
X484841Y166956D01*
X485015Y166925D01*
X485189Y166891D01*
X485362Y166853D01*
X485534Y166810D01*
X485705Y166763D01*
X485875Y166713D01*
X486044Y166658D01*
X486211Y166599D01*
X486376Y166536D01*
X486541Y166469D01*
X486703Y166398D01*
X486379Y162504D02*
X486454Y162471D01*
X486528Y162435D01*
X486600Y162396D01*
X486670Y162353D01*
X486737Y162307D01*
X486803Y162257D01*
X486865Y162205D01*
X486926Y162149D01*
X486983Y162091D01*
X487038Y162030D01*
X487089Y161966D01*
X487137Y161900D01*
X487182Y161831D01*
X487224Y161761D01*
X487262Y161688D01*
X487297Y161614D01*
X487328Y161538D01*
X487355Y161461D01*
X487378Y161382D01*
X487398Y161303D01*
X487413Y161222D01*
X487425Y161141D01*
X487433Y161059D01*
X487437Y160978D01*
X487436Y160896D01*
X487432Y160814D01*
X487424Y160732D01*
X487412Y160651D01*
X487396Y160571D01*
X487376Y160491D01*
X487352Y160413D01*
X487324Y160336D01*
X487293Y160260D01*
X487258Y160186D01*
X487220Y160114D01*
X487178Y160043D01*
X487132Y159975D01*
X487084Y159909D01*
X487032Y159846D01*
X486977Y159785D01*
X486919Y159727D01*
X486859Y159671D01*
X486796Y159619D01*
X486730Y159570D01*
X486662Y159524D01*
X486592Y159482D01*
X486520Y159442D01*
X486446Y159407D01*
X486371Y159375D01*
X486294Y159347D01*
X486216Y159323D01*
X486136Y159302D01*
X486056Y159285D01*
X485975Y159273D01*
X485894Y159264D01*
X485812Y159259D01*
X485730Y159258D01*
X485470Y159265D01*
X485210Y159278D01*
X484950Y159297D01*
X484691Y159322D01*
X484432Y159354D01*
X484175Y159391D01*
X483918Y159435D01*
X483662Y159484D01*
X483408Y159540D01*
X483155Y159601D01*
X482904Y159669D01*
X482654Y159743D01*
X482406Y159822D01*
X482160Y159907D01*
X491098Y167047D02*
X494993Y167047D01*
X492396Y170942D02*
X492396Y161205D01*
X492397Y161205D02*
X492399Y161118D01*
X492405Y161030D01*
X492415Y160944D01*
X492428Y160857D01*
X492446Y160772D01*
X492467Y160687D01*
X492492Y160603D01*
X492521Y160521D01*
X492554Y160440D01*
X492590Y160360D01*
X492629Y160282D01*
X492673Y160206D01*
X492719Y160132D01*
X492769Y160061D01*
X492822Y159991D01*
X492878Y159924D01*
X492937Y159860D01*
X492999Y159798D01*
X493063Y159739D01*
X493130Y159683D01*
X493200Y159630D01*
X493271Y159580D01*
X493345Y159534D01*
X493421Y159490D01*
X493499Y159451D01*
X493579Y159415D01*
X493660Y159382D01*
X493742Y159353D01*
X493826Y159328D01*
X493911Y159307D01*
X493996Y159289D01*
X494083Y159276D01*
X494169Y159266D01*
X494257Y159260D01*
X494344Y159258D01*
X494993Y159258D01*
X451499Y140349D02*
X449552Y140349D01*
X451499Y140349D02*
X451499Y133858D01*
X447604Y133858D01*
X447505Y133860D01*
X447405Y133866D01*
X447306Y133875D01*
X447208Y133888D01*
X447110Y133905D01*
X447012Y133926D01*
X446916Y133951D01*
X446821Y133979D01*
X446727Y134011D01*
X446634Y134046D01*
X446542Y134085D01*
X446452Y134128D01*
X446364Y134173D01*
X446277Y134223D01*
X446193Y134275D01*
X446110Y134331D01*
X446030Y134389D01*
X445952Y134451D01*
X445877Y134516D01*
X445804Y134584D01*
X445734Y134654D01*
X445666Y134727D01*
X445601Y134802D01*
X445539Y134880D01*
X445481Y134960D01*
X445425Y135043D01*
X445373Y135127D01*
X445323Y135214D01*
X445278Y135302D01*
X445235Y135392D01*
X445196Y135484D01*
X445161Y135577D01*
X445129Y135671D01*
X445101Y135766D01*
X445076Y135862D01*
X445055Y135960D01*
X445038Y136058D01*
X445025Y136156D01*
X445016Y136255D01*
X445010Y136355D01*
X445008Y136454D01*
X445008Y142946D01*
X445010Y143045D01*
X445016Y143145D01*
X445025Y143244D01*
X445038Y143342D01*
X445055Y143440D01*
X445076Y143538D01*
X445101Y143634D01*
X445129Y143729D01*
X445161Y143823D01*
X445196Y143916D01*
X445235Y144008D01*
X445278Y144098D01*
X445323Y144186D01*
X445373Y144273D01*
X445425Y144357D01*
X445481Y144440D01*
X445539Y144520D01*
X445601Y144598D01*
X445666Y144673D01*
X445734Y144746D01*
X445804Y144816D01*
X445877Y144884D01*
X445952Y144949D01*
X446030Y145011D01*
X446110Y145069D01*
X446193Y145125D01*
X446277Y145177D01*
X446364Y145227D01*
X446452Y145272D01*
X446542Y145315D01*
X446634Y145354D01*
X446726Y145389D01*
X446821Y145421D01*
X446916Y145449D01*
X447012Y145474D01*
X447110Y145495D01*
X447208Y145512D01*
X447306Y145525D01*
X447405Y145534D01*
X447505Y145540D01*
X447604Y145542D01*
X451499Y145542D01*
X457200Y145542D02*
X457200Y133858D01*
X463691Y133858D02*
X457200Y145542D01*
X463691Y145542D02*
X463691Y133858D01*
X469392Y133858D02*
X469392Y145542D01*
X472637Y145542D01*
X472750Y145540D01*
X472863Y145534D01*
X472976Y145524D01*
X473089Y145510D01*
X473201Y145493D01*
X473312Y145471D01*
X473422Y145446D01*
X473532Y145416D01*
X473640Y145383D01*
X473747Y145346D01*
X473853Y145306D01*
X473957Y145261D01*
X474060Y145213D01*
X474161Y145162D01*
X474260Y145107D01*
X474357Y145049D01*
X474452Y144987D01*
X474545Y144922D01*
X474635Y144854D01*
X474723Y144783D01*
X474809Y144708D01*
X474892Y144631D01*
X474972Y144551D01*
X475049Y144468D01*
X475124Y144382D01*
X475195Y144294D01*
X475263Y144204D01*
X475328Y144111D01*
X475390Y144016D01*
X475448Y143919D01*
X475503Y143820D01*
X475554Y143719D01*
X475602Y143616D01*
X475647Y143512D01*
X475687Y143406D01*
X475724Y143299D01*
X475757Y143191D01*
X475787Y143081D01*
X475812Y142971D01*
X475834Y142860D01*
X475851Y142748D01*
X475865Y142635D01*
X475875Y142522D01*
X475881Y142409D01*
X475883Y142296D01*
X475883Y137104D01*
X475884Y137104D02*
X475882Y136991D01*
X475876Y136878D01*
X475866Y136765D01*
X475852Y136652D01*
X475835Y136540D01*
X475813Y136429D01*
X475788Y136319D01*
X475758Y136209D01*
X475725Y136101D01*
X475688Y135994D01*
X475648Y135888D01*
X475603Y135784D01*
X475555Y135681D01*
X475504Y135580D01*
X475449Y135481D01*
X475391Y135384D01*
X475329Y135289D01*
X475264Y135196D01*
X475196Y135106D01*
X475125Y135018D01*
X475050Y134932D01*
X474973Y134849D01*
X474893Y134769D01*
X474810Y134692D01*
X474724Y134617D01*
X474636Y134546D01*
X474546Y134478D01*
X474453Y134413D01*
X474358Y134351D01*
X474261Y134293D01*
X474162Y134238D01*
X474061Y134187D01*
X473958Y134139D01*
X473854Y134094D01*
X473748Y134054D01*
X473641Y134017D01*
X473533Y133984D01*
X473423Y133954D01*
X473313Y133929D01*
X473202Y133907D01*
X473090Y133890D01*
X472977Y133876D01*
X472864Y133866D01*
X472751Y133860D01*
X472638Y133858D01*
X472637Y133858D02*
X469392Y133858D01*
X445008Y337058D02*
X445008Y348742D01*
X448254Y348742D01*
X448367Y348740D01*
X448480Y348734D01*
X448593Y348724D01*
X448706Y348710D01*
X448818Y348693D01*
X448929Y348671D01*
X449039Y348646D01*
X449149Y348616D01*
X449257Y348583D01*
X449364Y348546D01*
X449470Y348506D01*
X449574Y348461D01*
X449677Y348413D01*
X449778Y348362D01*
X449877Y348307D01*
X449974Y348249D01*
X450069Y348187D01*
X450162Y348122D01*
X450252Y348054D01*
X450340Y347983D01*
X450426Y347908D01*
X450509Y347831D01*
X450589Y347751D01*
X450666Y347668D01*
X450741Y347582D01*
X450812Y347494D01*
X450880Y347404D01*
X450945Y347311D01*
X451007Y347216D01*
X451065Y347119D01*
X451120Y347020D01*
X451171Y346919D01*
X451219Y346816D01*
X451264Y346712D01*
X451304Y346606D01*
X451341Y346499D01*
X451374Y346391D01*
X451404Y346281D01*
X451429Y346171D01*
X451451Y346060D01*
X451468Y345948D01*
X451482Y345835D01*
X451492Y345722D01*
X451498Y345609D01*
X451500Y345496D01*
X451498Y345383D01*
X451492Y345270D01*
X451482Y345157D01*
X451468Y345044D01*
X451451Y344932D01*
X451429Y344821D01*
X451404Y344711D01*
X451374Y344601D01*
X451341Y344493D01*
X451304Y344386D01*
X451264Y344280D01*
X451219Y344176D01*
X451171Y344073D01*
X451120Y343972D01*
X451065Y343873D01*
X451007Y343776D01*
X450945Y343681D01*
X450880Y343588D01*
X450812Y343498D01*
X450741Y343410D01*
X450666Y343324D01*
X450589Y343241D01*
X450509Y343161D01*
X450426Y343084D01*
X450340Y343009D01*
X450252Y342938D01*
X450162Y342870D01*
X450069Y342805D01*
X449974Y342743D01*
X449877Y342685D01*
X449778Y342630D01*
X449677Y342579D01*
X449574Y342531D01*
X449470Y342486D01*
X449364Y342446D01*
X449257Y342409D01*
X449149Y342376D01*
X449039Y342346D01*
X448929Y342321D01*
X448818Y342299D01*
X448706Y342282D01*
X448593Y342268D01*
X448480Y342258D01*
X448367Y342252D01*
X448254Y342250D01*
X448254Y342251D02*
X445008Y342251D01*
X448903Y342251D02*
X451499Y337058D01*
X465706Y337058D02*
X461811Y348742D01*
X469601Y348742D02*
X465706Y337058D01*
X476454Y337058D02*
X479050Y337058D01*
X476454Y337058D02*
X476355Y337060D01*
X476255Y337066D01*
X476156Y337075D01*
X476058Y337088D01*
X475960Y337105D01*
X475862Y337126D01*
X475766Y337151D01*
X475671Y337179D01*
X475577Y337211D01*
X475484Y337246D01*
X475392Y337285D01*
X475302Y337328D01*
X475214Y337373D01*
X475127Y337423D01*
X475043Y337475D01*
X474960Y337531D01*
X474880Y337589D01*
X474802Y337651D01*
X474727Y337716D01*
X474654Y337784D01*
X474584Y337854D01*
X474516Y337927D01*
X474451Y338002D01*
X474389Y338080D01*
X474331Y338160D01*
X474275Y338243D01*
X474223Y338327D01*
X474173Y338414D01*
X474128Y338502D01*
X474085Y338592D01*
X474046Y338684D01*
X474011Y338777D01*
X473979Y338871D01*
X473951Y338966D01*
X473926Y339062D01*
X473905Y339160D01*
X473888Y339258D01*
X473875Y339356D01*
X473866Y339455D01*
X473860Y339555D01*
X473858Y339654D01*
X473857Y339654D02*
X473857Y346146D01*
X473858Y346146D02*
X473860Y346245D01*
X473866Y346345D01*
X473875Y346444D01*
X473888Y346542D01*
X473905Y346640D01*
X473926Y346738D01*
X473951Y346834D01*
X473979Y346929D01*
X474011Y347023D01*
X474046Y347116D01*
X474085Y347208D01*
X474128Y347298D01*
X474173Y347386D01*
X474223Y347473D01*
X474275Y347557D01*
X474331Y347640D01*
X474389Y347720D01*
X474451Y347798D01*
X474516Y347873D01*
X474584Y347946D01*
X474654Y348016D01*
X474727Y348084D01*
X474802Y348149D01*
X474880Y348211D01*
X474960Y348269D01*
X475043Y348325D01*
X475127Y348377D01*
X475214Y348427D01*
X475302Y348472D01*
X475392Y348515D01*
X475484Y348554D01*
X475576Y348589D01*
X475671Y348621D01*
X475766Y348649D01*
X475862Y348674D01*
X475960Y348695D01*
X476058Y348712D01*
X476156Y348725D01*
X476255Y348734D01*
X476355Y348740D01*
X476454Y348742D01*
X479050Y348742D01*
X485979Y337058D02*
X488575Y337058D01*
X485979Y337058D02*
X485880Y337060D01*
X485780Y337066D01*
X485681Y337075D01*
X485583Y337088D01*
X485485Y337105D01*
X485387Y337126D01*
X485291Y337151D01*
X485196Y337179D01*
X485102Y337211D01*
X485009Y337246D01*
X484917Y337285D01*
X484827Y337328D01*
X484739Y337373D01*
X484652Y337423D01*
X484568Y337475D01*
X484485Y337531D01*
X484405Y337589D01*
X484327Y337651D01*
X484252Y337716D01*
X484179Y337784D01*
X484109Y337854D01*
X484041Y337927D01*
X483976Y338002D01*
X483914Y338080D01*
X483856Y338160D01*
X483800Y338243D01*
X483748Y338327D01*
X483698Y338414D01*
X483653Y338502D01*
X483610Y338592D01*
X483571Y338684D01*
X483536Y338777D01*
X483504Y338871D01*
X483476Y338966D01*
X483451Y339062D01*
X483430Y339160D01*
X483413Y339258D01*
X483400Y339356D01*
X483391Y339455D01*
X483385Y339555D01*
X483383Y339654D01*
X483382Y339654D02*
X483382Y346146D01*
X483383Y346146D02*
X483385Y346245D01*
X483391Y346345D01*
X483400Y346444D01*
X483413Y346542D01*
X483430Y346640D01*
X483451Y346738D01*
X483476Y346834D01*
X483504Y346929D01*
X483536Y347023D01*
X483571Y347116D01*
X483610Y347208D01*
X483653Y347298D01*
X483698Y347386D01*
X483748Y347473D01*
X483800Y347557D01*
X483856Y347640D01*
X483914Y347720D01*
X483976Y347798D01*
X484041Y347873D01*
X484109Y347946D01*
X484179Y348016D01*
X484252Y348084D01*
X484327Y348149D01*
X484405Y348211D01*
X484485Y348269D01*
X484568Y348325D01*
X484652Y348377D01*
X484739Y348427D01*
X484827Y348472D01*
X484917Y348515D01*
X485009Y348554D01*
X485101Y348589D01*
X485196Y348621D01*
X485291Y348649D01*
X485387Y348674D01*
X485485Y348695D01*
X485583Y348712D01*
X485681Y348725D01*
X485780Y348734D01*
X485880Y348740D01*
X485979Y348742D01*
X488575Y348742D01*
X445008Y323342D02*
X445008Y311658D01*
X445008Y323342D02*
X448254Y323342D01*
X448367Y323340D01*
X448480Y323334D01*
X448593Y323324D01*
X448706Y323310D01*
X448818Y323293D01*
X448929Y323271D01*
X449039Y323246D01*
X449149Y323216D01*
X449257Y323183D01*
X449364Y323146D01*
X449470Y323106D01*
X449574Y323061D01*
X449677Y323013D01*
X449778Y322962D01*
X449877Y322907D01*
X449974Y322849D01*
X450069Y322787D01*
X450162Y322722D01*
X450252Y322654D01*
X450340Y322583D01*
X450426Y322508D01*
X450509Y322431D01*
X450589Y322351D01*
X450666Y322268D01*
X450741Y322182D01*
X450812Y322094D01*
X450880Y322004D01*
X450945Y321911D01*
X451007Y321816D01*
X451065Y321719D01*
X451120Y321620D01*
X451171Y321519D01*
X451219Y321416D01*
X451264Y321312D01*
X451304Y321206D01*
X451341Y321099D01*
X451374Y320991D01*
X451404Y320881D01*
X451429Y320771D01*
X451451Y320660D01*
X451468Y320548D01*
X451482Y320435D01*
X451492Y320322D01*
X451498Y320209D01*
X451500Y320096D01*
X451498Y319983D01*
X451492Y319870D01*
X451482Y319757D01*
X451468Y319644D01*
X451451Y319532D01*
X451429Y319421D01*
X451404Y319311D01*
X451374Y319201D01*
X451341Y319093D01*
X451304Y318986D01*
X451264Y318880D01*
X451219Y318776D01*
X451171Y318673D01*
X451120Y318572D01*
X451065Y318473D01*
X451007Y318376D01*
X450945Y318281D01*
X450880Y318188D01*
X450812Y318098D01*
X450741Y318010D01*
X450666Y317924D01*
X450589Y317841D01*
X450509Y317761D01*
X450426Y317684D01*
X450340Y317609D01*
X450252Y317538D01*
X450162Y317470D01*
X450069Y317405D01*
X449974Y317343D01*
X449877Y317285D01*
X449778Y317230D01*
X449677Y317179D01*
X449574Y317131D01*
X449470Y317086D01*
X449364Y317046D01*
X449257Y317009D01*
X449149Y316976D01*
X449039Y316946D01*
X448929Y316921D01*
X448818Y316899D01*
X448706Y316882D01*
X448593Y316868D01*
X448480Y316858D01*
X448367Y316852D01*
X448254Y316850D01*
X448254Y316851D02*
X445008Y316851D01*
X448903Y316851D02*
X451499Y311658D01*
X464944Y311658D02*
X464944Y323342D01*
X468189Y323342D02*
X461698Y323342D01*
X474201Y311658D02*
X477446Y311658D01*
X474201Y311658D02*
X474114Y311660D01*
X474026Y311666D01*
X473940Y311676D01*
X473853Y311689D01*
X473768Y311707D01*
X473683Y311728D01*
X473599Y311753D01*
X473517Y311782D01*
X473436Y311815D01*
X473356Y311851D01*
X473278Y311890D01*
X473202Y311934D01*
X473128Y311980D01*
X473057Y312030D01*
X472987Y312083D01*
X472920Y312139D01*
X472856Y312198D01*
X472794Y312260D01*
X472735Y312324D01*
X472679Y312391D01*
X472626Y312461D01*
X472576Y312532D01*
X472530Y312606D01*
X472486Y312682D01*
X472447Y312760D01*
X472411Y312840D01*
X472378Y312921D01*
X472349Y313003D01*
X472324Y313087D01*
X472303Y313172D01*
X472285Y313257D01*
X472272Y313344D01*
X472262Y313430D01*
X472256Y313518D01*
X472254Y313605D01*
X472253Y313605D02*
X472253Y316851D01*
X472254Y316851D02*
X472256Y316952D01*
X472262Y317052D01*
X472272Y317152D01*
X472285Y317252D01*
X472303Y317351D01*
X472324Y317450D01*
X472349Y317547D01*
X472378Y317644D01*
X472411Y317739D01*
X472447Y317833D01*
X472487Y317925D01*
X472530Y318016D01*
X472577Y318105D01*
X472627Y318192D01*
X472681Y318278D01*
X472738Y318361D01*
X472798Y318441D01*
X472861Y318520D01*
X472928Y318596D01*
X472997Y318669D01*
X473069Y318739D01*
X473143Y318807D01*
X473220Y318872D01*
X473300Y318933D01*
X473382Y318992D01*
X473466Y319047D01*
X473552Y319099D01*
X473640Y319148D01*
X473730Y319193D01*
X473822Y319235D01*
X473915Y319273D01*
X474010Y319307D01*
X474105Y319338D01*
X474202Y319365D01*
X474300Y319388D01*
X474399Y319408D01*
X474499Y319423D01*
X474599Y319435D01*
X474699Y319443D01*
X474800Y319447D01*
X474900Y319447D01*
X475001Y319443D01*
X475101Y319435D01*
X475201Y319423D01*
X475301Y319408D01*
X475400Y319388D01*
X475498Y319365D01*
X475595Y319338D01*
X475690Y319307D01*
X475785Y319273D01*
X475878Y319235D01*
X475970Y319193D01*
X476060Y319148D01*
X476148Y319099D01*
X476234Y319047D01*
X476318Y318992D01*
X476400Y318933D01*
X476480Y318872D01*
X476557Y318807D01*
X476631Y318739D01*
X476703Y318669D01*
X476772Y318596D01*
X476839Y318520D01*
X476902Y318441D01*
X476962Y318361D01*
X477019Y318278D01*
X477073Y318192D01*
X477123Y318105D01*
X477170Y318016D01*
X477213Y317925D01*
X477253Y317833D01*
X477289Y317739D01*
X477322Y317644D01*
X477351Y317547D01*
X477376Y317450D01*
X477397Y317351D01*
X477415Y317252D01*
X477428Y317152D01*
X477438Y317052D01*
X477444Y316952D01*
X477446Y316851D01*
X477446Y315553D01*
X472253Y315553D01*
X483133Y316202D02*
X486379Y314904D01*
X483133Y316201D02*
X483058Y316234D01*
X482984Y316270D01*
X482912Y316309D01*
X482842Y316352D01*
X482775Y316398D01*
X482709Y316448D01*
X482647Y316500D01*
X482586Y316556D01*
X482529Y316614D01*
X482474Y316675D01*
X482423Y316739D01*
X482375Y316805D01*
X482330Y316874D01*
X482288Y316944D01*
X482250Y317017D01*
X482215Y317091D01*
X482184Y317167D01*
X482157Y317244D01*
X482134Y317323D01*
X482114Y317402D01*
X482099Y317483D01*
X482087Y317564D01*
X482079Y317646D01*
X482075Y317727D01*
X482076Y317809D01*
X482080Y317891D01*
X482088Y317973D01*
X482100Y318054D01*
X482116Y318134D01*
X482136Y318214D01*
X482160Y318292D01*
X482188Y318369D01*
X482219Y318445D01*
X482254Y318519D01*
X482292Y318591D01*
X482334Y318662D01*
X482380Y318730D01*
X482428Y318796D01*
X482480Y318859D01*
X482535Y318920D01*
X482593Y318978D01*
X482653Y319034D01*
X482716Y319086D01*
X482782Y319135D01*
X482850Y319181D01*
X482920Y319223D01*
X482992Y319263D01*
X483066Y319298D01*
X483141Y319330D01*
X483218Y319358D01*
X483296Y319382D01*
X483376Y319403D01*
X483456Y319420D01*
X483537Y319432D01*
X483618Y319441D01*
X483700Y319446D01*
X483782Y319447D01*
X483959Y319443D01*
X484136Y319434D01*
X484313Y319420D01*
X484490Y319403D01*
X484665Y319381D01*
X484841Y319356D01*
X485015Y319325D01*
X485189Y319291D01*
X485362Y319253D01*
X485534Y319210D01*
X485705Y319163D01*
X485875Y319113D01*
X486044Y319058D01*
X486211Y318999D01*
X486376Y318936D01*
X486541Y318869D01*
X486703Y318798D01*
X486379Y314904D02*
X486454Y314871D01*
X486528Y314835D01*
X486600Y314796D01*
X486670Y314753D01*
X486737Y314707D01*
X486803Y314657D01*
X486865Y314605D01*
X486926Y314549D01*
X486983Y314491D01*
X487038Y314430D01*
X487089Y314366D01*
X487137Y314300D01*
X487182Y314231D01*
X487224Y314161D01*
X487262Y314088D01*
X487297Y314014D01*
X487328Y313938D01*
X487355Y313861D01*
X487378Y313782D01*
X487398Y313703D01*
X487413Y313622D01*
X487425Y313541D01*
X487433Y313459D01*
X487437Y313378D01*
X487436Y313296D01*
X487432Y313214D01*
X487424Y313132D01*
X487412Y313051D01*
X487396Y312971D01*
X487376Y312891D01*
X487352Y312813D01*
X487324Y312736D01*
X487293Y312660D01*
X487258Y312586D01*
X487220Y312514D01*
X487178Y312443D01*
X487132Y312375D01*
X487084Y312309D01*
X487032Y312246D01*
X486977Y312185D01*
X486919Y312127D01*
X486859Y312071D01*
X486796Y312019D01*
X486730Y311970D01*
X486662Y311924D01*
X486592Y311882D01*
X486520Y311842D01*
X486446Y311807D01*
X486371Y311775D01*
X486294Y311747D01*
X486216Y311723D01*
X486136Y311702D01*
X486056Y311685D01*
X485975Y311673D01*
X485894Y311664D01*
X485812Y311659D01*
X485730Y311658D01*
X485470Y311665D01*
X485210Y311678D01*
X484950Y311697D01*
X484691Y311722D01*
X484432Y311754D01*
X484175Y311791D01*
X483918Y311835D01*
X483662Y311884D01*
X483408Y311940D01*
X483155Y312001D01*
X482904Y312069D01*
X482654Y312143D01*
X482406Y312222D01*
X482160Y312307D01*
X491098Y319447D02*
X494993Y319447D01*
X492396Y323342D02*
X492396Y313605D01*
X492397Y313605D02*
X492399Y313518D01*
X492405Y313430D01*
X492415Y313344D01*
X492428Y313257D01*
X492446Y313172D01*
X492467Y313087D01*
X492492Y313003D01*
X492521Y312921D01*
X492554Y312840D01*
X492590Y312760D01*
X492629Y312682D01*
X492673Y312606D01*
X492719Y312532D01*
X492769Y312461D01*
X492822Y312391D01*
X492878Y312324D01*
X492937Y312260D01*
X492999Y312198D01*
X493063Y312139D01*
X493130Y312083D01*
X493200Y312030D01*
X493271Y311980D01*
X493345Y311934D01*
X493421Y311890D01*
X493499Y311851D01*
X493579Y311815D01*
X493660Y311782D01*
X493742Y311753D01*
X493826Y311728D01*
X493911Y311707D01*
X493996Y311689D01*
X494083Y311676D01*
X494169Y311666D01*
X494257Y311660D01*
X494344Y311658D01*
X494993Y311658D01*
X451499Y292749D02*
X449552Y292749D01*
X451499Y292749D02*
X451499Y286258D01*
X447604Y286258D01*
X447505Y286260D01*
X447405Y286266D01*
X447306Y286275D01*
X447208Y286288D01*
X447110Y286305D01*
X447012Y286326D01*
X446916Y286351D01*
X446821Y286379D01*
X446727Y286411D01*
X446634Y286446D01*
X446542Y286485D01*
X446452Y286528D01*
X446364Y286573D01*
X446277Y286623D01*
X446193Y286675D01*
X446110Y286731D01*
X446030Y286789D01*
X445952Y286851D01*
X445877Y286916D01*
X445804Y286984D01*
X445734Y287054D01*
X445666Y287127D01*
X445601Y287202D01*
X445539Y287280D01*
X445481Y287360D01*
X445425Y287443D01*
X445373Y287527D01*
X445323Y287614D01*
X445278Y287702D01*
X445235Y287792D01*
X445196Y287884D01*
X445161Y287977D01*
X445129Y288071D01*
X445101Y288166D01*
X445076Y288262D01*
X445055Y288360D01*
X445038Y288458D01*
X445025Y288556D01*
X445016Y288655D01*
X445010Y288755D01*
X445008Y288854D01*
X445008Y295346D01*
X445010Y295445D01*
X445016Y295545D01*
X445025Y295644D01*
X445038Y295742D01*
X445055Y295840D01*
X445076Y295938D01*
X445101Y296034D01*
X445129Y296129D01*
X445161Y296223D01*
X445196Y296316D01*
X445235Y296408D01*
X445278Y296498D01*
X445323Y296586D01*
X445373Y296673D01*
X445425Y296757D01*
X445481Y296840D01*
X445539Y296920D01*
X445601Y296998D01*
X445666Y297073D01*
X445734Y297146D01*
X445804Y297216D01*
X445877Y297284D01*
X445952Y297349D01*
X446030Y297411D01*
X446110Y297469D01*
X446193Y297525D01*
X446277Y297577D01*
X446364Y297627D01*
X446452Y297672D01*
X446542Y297715D01*
X446634Y297754D01*
X446726Y297789D01*
X446821Y297821D01*
X446916Y297849D01*
X447012Y297874D01*
X447110Y297895D01*
X447208Y297912D01*
X447306Y297925D01*
X447405Y297934D01*
X447505Y297940D01*
X447604Y297942D01*
X451499Y297942D01*
X457200Y297942D02*
X457200Y286258D01*
X463691Y286258D02*
X457200Y297942D01*
X463691Y297942D02*
X463691Y286258D01*
X469392Y286258D02*
X469392Y297942D01*
X472637Y297942D01*
X472750Y297940D01*
X472863Y297934D01*
X472976Y297924D01*
X473089Y297910D01*
X473201Y297893D01*
X473312Y297871D01*
X473422Y297846D01*
X473532Y297816D01*
X473640Y297783D01*
X473747Y297746D01*
X473853Y297706D01*
X473957Y297661D01*
X474060Y297613D01*
X474161Y297562D01*
X474260Y297507D01*
X474357Y297449D01*
X474452Y297387D01*
X474545Y297322D01*
X474635Y297254D01*
X474723Y297183D01*
X474809Y297108D01*
X474892Y297031D01*
X474972Y296951D01*
X475049Y296868D01*
X475124Y296782D01*
X475195Y296694D01*
X475263Y296604D01*
X475328Y296511D01*
X475390Y296416D01*
X475448Y296319D01*
X475503Y296220D01*
X475554Y296119D01*
X475602Y296016D01*
X475647Y295912D01*
X475687Y295806D01*
X475724Y295699D01*
X475757Y295591D01*
X475787Y295481D01*
X475812Y295371D01*
X475834Y295260D01*
X475851Y295148D01*
X475865Y295035D01*
X475875Y294922D01*
X475881Y294809D01*
X475883Y294696D01*
X475883Y289504D01*
X475884Y289504D02*
X475882Y289391D01*
X475876Y289278D01*
X475866Y289165D01*
X475852Y289052D01*
X475835Y288940D01*
X475813Y288829D01*
X475788Y288719D01*
X475758Y288609D01*
X475725Y288501D01*
X475688Y288394D01*
X475648Y288288D01*
X475603Y288184D01*
X475555Y288081D01*
X475504Y287980D01*
X475449Y287881D01*
X475391Y287784D01*
X475329Y287689D01*
X475264Y287596D01*
X475196Y287506D01*
X475125Y287418D01*
X475050Y287332D01*
X474973Y287249D01*
X474893Y287169D01*
X474810Y287092D01*
X474724Y287017D01*
X474636Y286946D01*
X474546Y286878D01*
X474453Y286813D01*
X474358Y286751D01*
X474261Y286693D01*
X474162Y286638D01*
X474061Y286587D01*
X473958Y286539D01*
X473854Y286494D01*
X473748Y286454D01*
X473641Y286417D01*
X473533Y286384D01*
X473423Y286354D01*
X473313Y286329D01*
X473202Y286307D01*
X473090Y286290D01*
X472977Y286276D01*
X472864Y286266D01*
X472751Y286260D01*
X472638Y286258D01*
X472637Y286258D02*
X469392Y286258D01*
X445008Y489458D02*
X445008Y501142D01*
X448254Y501142D01*
X448367Y501140D01*
X448480Y501134D01*
X448593Y501124D01*
X448706Y501110D01*
X448818Y501093D01*
X448929Y501071D01*
X449039Y501046D01*
X449149Y501016D01*
X449257Y500983D01*
X449364Y500946D01*
X449470Y500906D01*
X449574Y500861D01*
X449677Y500813D01*
X449778Y500762D01*
X449877Y500707D01*
X449974Y500649D01*
X450069Y500587D01*
X450162Y500522D01*
X450252Y500454D01*
X450340Y500383D01*
X450426Y500308D01*
X450509Y500231D01*
X450589Y500151D01*
X450666Y500068D01*
X450741Y499982D01*
X450812Y499894D01*
X450880Y499804D01*
X450945Y499711D01*
X451007Y499616D01*
X451065Y499519D01*
X451120Y499420D01*
X451171Y499319D01*
X451219Y499216D01*
X451264Y499112D01*
X451304Y499006D01*
X451341Y498899D01*
X451374Y498791D01*
X451404Y498681D01*
X451429Y498571D01*
X451451Y498460D01*
X451468Y498348D01*
X451482Y498235D01*
X451492Y498122D01*
X451498Y498009D01*
X451500Y497896D01*
X451498Y497783D01*
X451492Y497670D01*
X451482Y497557D01*
X451468Y497444D01*
X451451Y497332D01*
X451429Y497221D01*
X451404Y497111D01*
X451374Y497001D01*
X451341Y496893D01*
X451304Y496786D01*
X451264Y496680D01*
X451219Y496576D01*
X451171Y496473D01*
X451120Y496372D01*
X451065Y496273D01*
X451007Y496176D01*
X450945Y496081D01*
X450880Y495988D01*
X450812Y495898D01*
X450741Y495810D01*
X450666Y495724D01*
X450589Y495641D01*
X450509Y495561D01*
X450426Y495484D01*
X450340Y495409D01*
X450252Y495338D01*
X450162Y495270D01*
X450069Y495205D01*
X449974Y495143D01*
X449877Y495085D01*
X449778Y495030D01*
X449677Y494979D01*
X449574Y494931D01*
X449470Y494886D01*
X449364Y494846D01*
X449257Y494809D01*
X449149Y494776D01*
X449039Y494746D01*
X448929Y494721D01*
X448818Y494699D01*
X448706Y494682D01*
X448593Y494668D01*
X448480Y494658D01*
X448367Y494652D01*
X448254Y494650D01*
X448254Y494651D02*
X445008Y494651D01*
X448903Y494651D02*
X451499Y489458D01*
X465706Y489458D02*
X461811Y501142D01*
X469601Y501142D02*
X465706Y489458D01*
X476454Y489458D02*
X479050Y489458D01*
X476454Y489458D02*
X476355Y489460D01*
X476255Y489466D01*
X476156Y489475D01*
X476058Y489488D01*
X475960Y489505D01*
X475862Y489526D01*
X475766Y489551D01*
X475671Y489579D01*
X475577Y489611D01*
X475484Y489646D01*
X475392Y489685D01*
X475302Y489728D01*
X475214Y489773D01*
X475127Y489823D01*
X475043Y489875D01*
X474960Y489931D01*
X474880Y489989D01*
X474802Y490051D01*
X474727Y490116D01*
X474654Y490184D01*
X474584Y490254D01*
X474516Y490327D01*
X474451Y490402D01*
X474389Y490480D01*
X474331Y490560D01*
X474275Y490643D01*
X474223Y490727D01*
X474173Y490814D01*
X474128Y490902D01*
X474085Y490992D01*
X474046Y491084D01*
X474011Y491177D01*
X473979Y491271D01*
X473951Y491366D01*
X473926Y491462D01*
X473905Y491560D01*
X473888Y491658D01*
X473875Y491756D01*
X473866Y491855D01*
X473860Y491955D01*
X473858Y492054D01*
X473857Y492054D02*
X473857Y498546D01*
X473858Y498546D02*
X473860Y498645D01*
X473866Y498745D01*
X473875Y498844D01*
X473888Y498942D01*
X473905Y499040D01*
X473926Y499138D01*
X473951Y499234D01*
X473979Y499329D01*
X474011Y499423D01*
X474046Y499516D01*
X474085Y499608D01*
X474128Y499698D01*
X474173Y499786D01*
X474223Y499873D01*
X474275Y499957D01*
X474331Y500040D01*
X474389Y500120D01*
X474451Y500198D01*
X474516Y500273D01*
X474584Y500346D01*
X474654Y500416D01*
X474727Y500484D01*
X474802Y500549D01*
X474880Y500611D01*
X474960Y500669D01*
X475043Y500725D01*
X475127Y500777D01*
X475214Y500827D01*
X475302Y500872D01*
X475392Y500915D01*
X475484Y500954D01*
X475576Y500989D01*
X475671Y501021D01*
X475766Y501049D01*
X475862Y501074D01*
X475960Y501095D01*
X476058Y501112D01*
X476156Y501125D01*
X476255Y501134D01*
X476355Y501140D01*
X476454Y501142D01*
X479050Y501142D01*
X485979Y489458D02*
X488575Y489458D01*
X485979Y489458D02*
X485880Y489460D01*
X485780Y489466D01*
X485681Y489475D01*
X485583Y489488D01*
X485485Y489505D01*
X485387Y489526D01*
X485291Y489551D01*
X485196Y489579D01*
X485102Y489611D01*
X485009Y489646D01*
X484917Y489685D01*
X484827Y489728D01*
X484739Y489773D01*
X484652Y489823D01*
X484568Y489875D01*
X484485Y489931D01*
X484405Y489989D01*
X484327Y490051D01*
X484252Y490116D01*
X484179Y490184D01*
X484109Y490254D01*
X484041Y490327D01*
X483976Y490402D01*
X483914Y490480D01*
X483856Y490560D01*
X483800Y490643D01*
X483748Y490727D01*
X483698Y490814D01*
X483653Y490902D01*
X483610Y490992D01*
X483571Y491084D01*
X483536Y491177D01*
X483504Y491271D01*
X483476Y491366D01*
X483451Y491462D01*
X483430Y491560D01*
X483413Y491658D01*
X483400Y491756D01*
X483391Y491855D01*
X483385Y491955D01*
X483383Y492054D01*
X483382Y492054D02*
X483382Y498546D01*
X483383Y498546D02*
X483385Y498645D01*
X483391Y498745D01*
X483400Y498844D01*
X483413Y498942D01*
X483430Y499040D01*
X483451Y499138D01*
X483476Y499234D01*
X483504Y499329D01*
X483536Y499423D01*
X483571Y499516D01*
X483610Y499608D01*
X483653Y499698D01*
X483698Y499786D01*
X483748Y499873D01*
X483800Y499957D01*
X483856Y500040D01*
X483914Y500120D01*
X483976Y500198D01*
X484041Y500273D01*
X484109Y500346D01*
X484179Y500416D01*
X484252Y500484D01*
X484327Y500549D01*
X484405Y500611D01*
X484485Y500669D01*
X484568Y500725D01*
X484652Y500777D01*
X484739Y500827D01*
X484827Y500872D01*
X484917Y500915D01*
X485009Y500954D01*
X485101Y500989D01*
X485196Y501021D01*
X485291Y501049D01*
X485387Y501074D01*
X485485Y501095D01*
X485583Y501112D01*
X485681Y501125D01*
X485780Y501134D01*
X485880Y501140D01*
X485979Y501142D01*
X488575Y501142D01*
X451499Y445149D02*
X449552Y445149D01*
X451499Y445149D02*
X451499Y438658D01*
X447604Y438658D01*
X447505Y438660D01*
X447405Y438666D01*
X447306Y438675D01*
X447208Y438688D01*
X447110Y438705D01*
X447012Y438726D01*
X446916Y438751D01*
X446821Y438779D01*
X446727Y438811D01*
X446634Y438846D01*
X446542Y438885D01*
X446452Y438928D01*
X446364Y438973D01*
X446277Y439023D01*
X446193Y439075D01*
X446110Y439131D01*
X446030Y439189D01*
X445952Y439251D01*
X445877Y439316D01*
X445804Y439384D01*
X445734Y439454D01*
X445666Y439527D01*
X445601Y439602D01*
X445539Y439680D01*
X445481Y439760D01*
X445425Y439843D01*
X445373Y439927D01*
X445323Y440014D01*
X445278Y440102D01*
X445235Y440192D01*
X445196Y440284D01*
X445161Y440377D01*
X445129Y440471D01*
X445101Y440566D01*
X445076Y440662D01*
X445055Y440760D01*
X445038Y440858D01*
X445025Y440956D01*
X445016Y441055D01*
X445010Y441155D01*
X445008Y441254D01*
X445008Y447746D01*
X445010Y447845D01*
X445016Y447945D01*
X445025Y448044D01*
X445038Y448142D01*
X445055Y448240D01*
X445076Y448338D01*
X445101Y448434D01*
X445129Y448529D01*
X445161Y448623D01*
X445196Y448716D01*
X445235Y448808D01*
X445278Y448898D01*
X445323Y448986D01*
X445373Y449073D01*
X445425Y449157D01*
X445481Y449240D01*
X445539Y449320D01*
X445601Y449398D01*
X445666Y449473D01*
X445734Y449546D01*
X445804Y449616D01*
X445877Y449684D01*
X445952Y449749D01*
X446030Y449811D01*
X446110Y449869D01*
X446193Y449925D01*
X446277Y449977D01*
X446364Y450027D01*
X446452Y450072D01*
X446542Y450115D01*
X446634Y450154D01*
X446726Y450189D01*
X446821Y450221D01*
X446916Y450249D01*
X447012Y450274D01*
X447110Y450295D01*
X447208Y450312D01*
X447306Y450325D01*
X447405Y450334D01*
X447505Y450340D01*
X447604Y450342D01*
X451499Y450342D01*
X457200Y450342D02*
X457200Y438658D01*
X463691Y438658D02*
X457200Y450342D01*
X463691Y450342D02*
X463691Y438658D01*
X469392Y438658D02*
X469392Y450342D01*
X472637Y450342D01*
X472750Y450340D01*
X472863Y450334D01*
X472976Y450324D01*
X473089Y450310D01*
X473201Y450293D01*
X473312Y450271D01*
X473422Y450246D01*
X473532Y450216D01*
X473640Y450183D01*
X473747Y450146D01*
X473853Y450106D01*
X473957Y450061D01*
X474060Y450013D01*
X474161Y449962D01*
X474260Y449907D01*
X474357Y449849D01*
X474452Y449787D01*
X474545Y449722D01*
X474635Y449654D01*
X474723Y449583D01*
X474809Y449508D01*
X474892Y449431D01*
X474972Y449351D01*
X475049Y449268D01*
X475124Y449182D01*
X475195Y449094D01*
X475263Y449004D01*
X475328Y448911D01*
X475390Y448816D01*
X475448Y448719D01*
X475503Y448620D01*
X475554Y448519D01*
X475602Y448416D01*
X475647Y448312D01*
X475687Y448206D01*
X475724Y448099D01*
X475757Y447991D01*
X475787Y447881D01*
X475812Y447771D01*
X475834Y447660D01*
X475851Y447548D01*
X475865Y447435D01*
X475875Y447322D01*
X475881Y447209D01*
X475883Y447096D01*
X475883Y441904D01*
X475884Y441904D02*
X475882Y441791D01*
X475876Y441678D01*
X475866Y441565D01*
X475852Y441452D01*
X475835Y441340D01*
X475813Y441229D01*
X475788Y441119D01*
X475758Y441009D01*
X475725Y440901D01*
X475688Y440794D01*
X475648Y440688D01*
X475603Y440584D01*
X475555Y440481D01*
X475504Y440380D01*
X475449Y440281D01*
X475391Y440184D01*
X475329Y440089D01*
X475264Y439996D01*
X475196Y439906D01*
X475125Y439818D01*
X475050Y439732D01*
X474973Y439649D01*
X474893Y439569D01*
X474810Y439492D01*
X474724Y439417D01*
X474636Y439346D01*
X474546Y439278D01*
X474453Y439213D01*
X474358Y439151D01*
X474261Y439093D01*
X474162Y439038D01*
X474061Y438987D01*
X473958Y438939D01*
X473854Y438894D01*
X473748Y438854D01*
X473641Y438817D01*
X473533Y438784D01*
X473423Y438754D01*
X473313Y438729D01*
X473202Y438707D01*
X473090Y438690D01*
X472977Y438676D01*
X472864Y438666D01*
X472751Y438660D01*
X472638Y438658D01*
X472637Y438658D02*
X469392Y438658D01*
D12*
X179324Y426974D02*
X179324Y462026D01*
X189061Y462026D01*
X189298Y462023D01*
X189535Y462014D01*
X189772Y462000D01*
X190008Y461980D01*
X190244Y461954D01*
X190479Y461922D01*
X190713Y461885D01*
X190946Y461842D01*
X191178Y461793D01*
X191409Y461739D01*
X191638Y461679D01*
X191866Y461613D01*
X192092Y461542D01*
X192317Y461466D01*
X192539Y461384D01*
X192760Y461296D01*
X192978Y461203D01*
X193194Y461105D01*
X193407Y461002D01*
X193618Y460894D01*
X193826Y460780D01*
X194032Y460662D01*
X194234Y460538D01*
X194434Y460410D01*
X194630Y460276D01*
X194823Y460138D01*
X195012Y459996D01*
X195198Y459849D01*
X195380Y459697D01*
X195559Y459541D01*
X195733Y459380D01*
X195904Y459216D01*
X196071Y459047D01*
X196233Y458875D01*
X196391Y458698D01*
X196545Y458517D01*
X196695Y458333D01*
X196840Y458146D01*
X196980Y457955D01*
X197116Y457760D01*
X197246Y457562D01*
X197372Y457361D01*
X197493Y457158D01*
X197610Y456951D01*
X197721Y456741D01*
X197826Y456529D01*
X197927Y456314D01*
X198022Y456097D01*
X198112Y455878D01*
X198197Y455656D01*
X198276Y455433D01*
X198350Y455208D01*
X198419Y454980D01*
X198481Y454752D01*
X198539Y454522D01*
X198590Y454290D01*
X198636Y454058D01*
X198676Y453824D01*
X198711Y453589D01*
X198740Y453354D01*
X198763Y453118D01*
X198780Y452881D01*
X198792Y452645D01*
X198797Y452408D01*
X198797Y452170D01*
X198792Y451933D01*
X198780Y451697D01*
X198763Y451460D01*
X198740Y451224D01*
X198711Y450989D01*
X198676Y450754D01*
X198636Y450520D01*
X198590Y450288D01*
X198539Y450056D01*
X198481Y449826D01*
X198419Y449598D01*
X198350Y449370D01*
X198276Y449145D01*
X198197Y448922D01*
X198112Y448700D01*
X198022Y448481D01*
X197927Y448264D01*
X197826Y448049D01*
X197721Y447837D01*
X197610Y447627D01*
X197493Y447421D01*
X197372Y447217D01*
X197246Y447016D01*
X197116Y446818D01*
X196980Y446623D01*
X196840Y446432D01*
X196695Y446245D01*
X196545Y446061D01*
X196391Y445880D01*
X196233Y445703D01*
X196071Y445531D01*
X195904Y445362D01*
X195733Y445198D01*
X195559Y445037D01*
X195380Y444881D01*
X195198Y444729D01*
X195012Y444582D01*
X194823Y444440D01*
X194630Y444302D01*
X194434Y444168D01*
X194234Y444040D01*
X194032Y443916D01*
X193826Y443798D01*
X193618Y443684D01*
X193407Y443576D01*
X193194Y443473D01*
X192978Y443375D01*
X192760Y443282D01*
X192539Y443194D01*
X192317Y443112D01*
X192092Y443036D01*
X191866Y442965D01*
X191638Y442899D01*
X191409Y442839D01*
X191178Y442785D01*
X190946Y442736D01*
X190713Y442693D01*
X190479Y442656D01*
X190244Y442624D01*
X190008Y442598D01*
X189772Y442578D01*
X189535Y442564D01*
X189298Y442555D01*
X189061Y442552D01*
X189061Y442553D02*
X179324Y442553D01*
X191008Y442553D02*
X198797Y426974D01*
X213814Y426974D02*
X223550Y426974D01*
X213814Y426974D02*
X213664Y426976D01*
X213513Y426982D01*
X213363Y426991D01*
X213213Y427005D01*
X213064Y427022D01*
X212915Y427044D01*
X212767Y427069D01*
X212619Y427098D01*
X212472Y427130D01*
X212326Y427167D01*
X212181Y427207D01*
X212037Y427251D01*
X211895Y427298D01*
X211753Y427350D01*
X211613Y427404D01*
X211475Y427463D01*
X211337Y427525D01*
X211202Y427590D01*
X211068Y427659D01*
X210937Y427732D01*
X210807Y427808D01*
X210679Y427887D01*
X210553Y427969D01*
X210429Y428055D01*
X210308Y428143D01*
X210188Y428235D01*
X210072Y428330D01*
X209957Y428428D01*
X209846Y428529D01*
X209737Y428632D01*
X209630Y428739D01*
X209527Y428848D01*
X209426Y428959D01*
X209328Y429074D01*
X209233Y429190D01*
X209141Y429310D01*
X209053Y429431D01*
X208967Y429555D01*
X208885Y429681D01*
X208806Y429809D01*
X208730Y429939D01*
X208657Y430070D01*
X208588Y430204D01*
X208523Y430339D01*
X208461Y430477D01*
X208402Y430615D01*
X208348Y430755D01*
X208296Y430897D01*
X208249Y431039D01*
X208205Y431183D01*
X208165Y431328D01*
X208128Y431474D01*
X208096Y431621D01*
X208067Y431769D01*
X208042Y431917D01*
X208020Y432066D01*
X208003Y432215D01*
X207989Y432365D01*
X207980Y432515D01*
X207974Y432666D01*
X207972Y432816D01*
X207972Y442553D01*
X207974Y442743D01*
X207981Y442932D01*
X207993Y443122D01*
X208009Y443311D01*
X208030Y443499D01*
X208055Y443687D01*
X208085Y443874D01*
X208119Y444061D01*
X208158Y444247D01*
X208202Y444431D01*
X208250Y444615D01*
X208302Y444797D01*
X208359Y444978D01*
X208420Y445157D01*
X208486Y445335D01*
X208556Y445512D01*
X208630Y445686D01*
X208708Y445859D01*
X208791Y446030D01*
X208878Y446199D01*
X208969Y446365D01*
X209063Y446529D01*
X209162Y446691D01*
X209265Y446851D01*
X209372Y447008D01*
X209482Y447162D01*
X209596Y447313D01*
X209714Y447462D01*
X209835Y447608D01*
X209960Y447751D01*
X210088Y447890D01*
X210220Y448027D01*
X210355Y448160D01*
X210493Y448290D01*
X210634Y448417D01*
X210779Y448540D01*
X210926Y448660D01*
X211076Y448775D01*
X211229Y448888D01*
X211385Y448996D01*
X211543Y449101D01*
X211703Y449202D01*
X211867Y449298D01*
X212032Y449391D01*
X212200Y449480D01*
X212369Y449565D01*
X212541Y449645D01*
X212715Y449722D01*
X212890Y449794D01*
X213067Y449861D01*
X213246Y449925D01*
X213426Y449984D01*
X213608Y450039D01*
X213791Y450089D01*
X213975Y450134D01*
X214160Y450176D01*
X214346Y450212D01*
X214533Y450245D01*
X214721Y450272D01*
X214909Y450295D01*
X215098Y450314D01*
X215287Y450328D01*
X215477Y450337D01*
X215666Y450341D01*
X215856Y450341D01*
X216045Y450337D01*
X216235Y450328D01*
X216424Y450314D01*
X216613Y450295D01*
X216801Y450272D01*
X216989Y450245D01*
X217176Y450212D01*
X217362Y450176D01*
X217547Y450134D01*
X217731Y450089D01*
X217914Y450039D01*
X218096Y449984D01*
X218276Y449925D01*
X218455Y449861D01*
X218632Y449794D01*
X218807Y449722D01*
X218981Y449645D01*
X219153Y449565D01*
X219322Y449480D01*
X219490Y449391D01*
X219656Y449298D01*
X219819Y449202D01*
X219979Y449101D01*
X220137Y448996D01*
X220293Y448888D01*
X220446Y448775D01*
X220596Y448660D01*
X220743Y448540D01*
X220888Y448417D01*
X221029Y448290D01*
X221167Y448160D01*
X221302Y448027D01*
X221434Y447890D01*
X221562Y447751D01*
X221687Y447608D01*
X221808Y447462D01*
X221926Y447313D01*
X222040Y447162D01*
X222150Y447008D01*
X222257Y446851D01*
X222360Y446691D01*
X222459Y446529D01*
X222553Y446365D01*
X222644Y446199D01*
X222731Y446030D01*
X222814Y445859D01*
X222892Y445686D01*
X222966Y445512D01*
X223036Y445335D01*
X223102Y445157D01*
X223163Y444978D01*
X223220Y444797D01*
X223272Y444615D01*
X223320Y444431D01*
X223364Y444247D01*
X223403Y444061D01*
X223437Y443874D01*
X223467Y443687D01*
X223492Y443499D01*
X223513Y443311D01*
X223529Y443122D01*
X223541Y442932D01*
X223548Y442743D01*
X223550Y442553D01*
X223550Y438658D01*
X207972Y438658D01*
X235658Y440605D02*
X245394Y436711D01*
X235658Y440605D02*
X235527Y440660D01*
X235398Y440718D01*
X235271Y440779D01*
X235145Y440844D01*
X235021Y440913D01*
X234899Y440985D01*
X234780Y441061D01*
X234662Y441140D01*
X234547Y441222D01*
X234434Y441307D01*
X234323Y441395D01*
X234215Y441487D01*
X234110Y441581D01*
X234007Y441679D01*
X233907Y441779D01*
X233810Y441882D01*
X233716Y441988D01*
X233625Y442096D01*
X233537Y442207D01*
X233452Y442320D01*
X233370Y442436D01*
X233292Y442553D01*
X233217Y442673D01*
X233145Y442795D01*
X233077Y442919D01*
X233012Y443045D01*
X232951Y443173D01*
X232893Y443302D01*
X232839Y443433D01*
X232789Y443565D01*
X232742Y443699D01*
X232699Y443834D01*
X232660Y443970D01*
X232625Y444107D01*
X232594Y444245D01*
X232567Y444384D01*
X232543Y444523D01*
X232523Y444664D01*
X232508Y444804D01*
X232496Y444945D01*
X232488Y445087D01*
X232484Y445228D01*
X232485Y445370D01*
X232489Y445511D01*
X232497Y445652D01*
X232509Y445793D01*
X232525Y445934D01*
X232545Y446074D01*
X232569Y446214D01*
X232596Y446352D01*
X232628Y446490D01*
X232664Y446627D01*
X232703Y446763D01*
X232746Y446898D01*
X232793Y447032D01*
X232843Y447164D01*
X232898Y447295D01*
X232956Y447424D01*
X233017Y447551D01*
X233082Y447677D01*
X233151Y447801D01*
X233223Y447923D01*
X233298Y448042D01*
X233377Y448160D01*
X233459Y448275D01*
X233544Y448388D01*
X233633Y448499D01*
X233724Y448607D01*
X233818Y448713D01*
X233916Y448815D01*
X234016Y448915D01*
X234119Y449013D01*
X234224Y449107D01*
X234333Y449198D01*
X234443Y449286D01*
X234556Y449371D01*
X234672Y449453D01*
X234790Y449532D01*
X234909Y449607D01*
X235031Y449679D01*
X235155Y449747D01*
X235281Y449812D01*
X235409Y449873D01*
X235538Y449931D01*
X235669Y449985D01*
X235801Y450036D01*
X235935Y450082D01*
X236069Y450125D01*
X236205Y450164D01*
X236343Y450200D01*
X236481Y450231D01*
X236619Y450259D01*
X236759Y450282D01*
X236899Y450302D01*
X237040Y450318D01*
X237181Y450330D01*
X237322Y450338D01*
X237464Y450342D01*
X237605Y450341D01*
X237605Y450342D02*
X238136Y450328D01*
X238667Y450301D01*
X239198Y450261D01*
X239727Y450209D01*
X240255Y450144D01*
X240781Y450067D01*
X241305Y449976D01*
X241826Y449874D01*
X242345Y449758D01*
X242862Y449630D01*
X243374Y449490D01*
X243884Y449338D01*
X244389Y449173D01*
X244891Y448996D01*
X245388Y448808D01*
X245880Y448607D01*
X246368Y448394D01*
X245394Y436711D02*
X245525Y436656D01*
X245654Y436598D01*
X245781Y436537D01*
X245907Y436472D01*
X246031Y436403D01*
X246152Y436331D01*
X246272Y436255D01*
X246390Y436176D01*
X246505Y436094D01*
X246618Y436009D01*
X246729Y435921D01*
X246837Y435829D01*
X246942Y435735D01*
X247045Y435637D01*
X247145Y435537D01*
X247242Y435434D01*
X247336Y435328D01*
X247427Y435220D01*
X247515Y435109D01*
X247600Y434996D01*
X247682Y434880D01*
X247760Y434763D01*
X247835Y434643D01*
X247907Y434521D01*
X247975Y434397D01*
X248040Y434271D01*
X248101Y434143D01*
X248159Y434014D01*
X248213Y433883D01*
X248263Y433751D01*
X248310Y433617D01*
X248353Y433482D01*
X248392Y433346D01*
X248427Y433209D01*
X248458Y433071D01*
X248485Y432932D01*
X248509Y432793D01*
X248529Y432652D01*
X248544Y432512D01*
X248556Y432371D01*
X248564Y432229D01*
X248568Y432088D01*
X248567Y431946D01*
X248563Y431805D01*
X248555Y431664D01*
X248543Y431523D01*
X248527Y431382D01*
X248507Y431242D01*
X248483Y431102D01*
X248456Y430964D01*
X248424Y430826D01*
X248388Y430689D01*
X248349Y430553D01*
X248306Y430418D01*
X248259Y430284D01*
X248209Y430152D01*
X248154Y430021D01*
X248096Y429892D01*
X248035Y429765D01*
X247970Y429639D01*
X247901Y429515D01*
X247829Y429393D01*
X247754Y429274D01*
X247675Y429156D01*
X247593Y429041D01*
X247508Y428928D01*
X247419Y428817D01*
X247328Y428709D01*
X247234Y428603D01*
X247136Y428501D01*
X247036Y428401D01*
X246933Y428303D01*
X246828Y428209D01*
X246720Y428118D01*
X246609Y428030D01*
X246496Y427945D01*
X246380Y427863D01*
X246262Y427784D01*
X246143Y427709D01*
X246021Y427637D01*
X245897Y427569D01*
X245771Y427504D01*
X245643Y427443D01*
X245514Y427385D01*
X245383Y427331D01*
X245251Y427280D01*
X245117Y427234D01*
X244983Y427191D01*
X244847Y427152D01*
X244709Y427116D01*
X244571Y427085D01*
X244433Y427057D01*
X244293Y427034D01*
X244153Y427014D01*
X244012Y426998D01*
X243871Y426986D01*
X243730Y426978D01*
X243588Y426974D01*
X243447Y426975D01*
X243446Y426974D02*
X242666Y426995D01*
X241885Y427034D01*
X241106Y427091D01*
X240329Y427167D01*
X239554Y427261D01*
X238781Y427373D01*
X238011Y427504D01*
X237244Y427652D01*
X236481Y427819D01*
X235722Y428004D01*
X234967Y428207D01*
X234218Y428428D01*
X233474Y428666D01*
X232736Y428922D01*
X258623Y426974D02*
X258623Y450342D01*
X257650Y460079D02*
X257650Y462026D01*
X259597Y462026D01*
X259597Y460079D01*
X257650Y460079D01*
X271853Y440605D02*
X281589Y436711D01*
X271853Y440605D02*
X271722Y440660D01*
X271593Y440718D01*
X271466Y440779D01*
X271340Y440844D01*
X271216Y440913D01*
X271094Y440985D01*
X270975Y441061D01*
X270857Y441140D01*
X270742Y441222D01*
X270629Y441307D01*
X270518Y441395D01*
X270410Y441487D01*
X270305Y441581D01*
X270202Y441679D01*
X270102Y441779D01*
X270005Y441882D01*
X269911Y441988D01*
X269820Y442096D01*
X269732Y442207D01*
X269647Y442320D01*
X269565Y442436D01*
X269487Y442553D01*
X269412Y442673D01*
X269340Y442795D01*
X269272Y442919D01*
X269207Y443045D01*
X269146Y443173D01*
X269088Y443302D01*
X269034Y443433D01*
X268984Y443565D01*
X268937Y443699D01*
X268894Y443834D01*
X268855Y443970D01*
X268820Y444107D01*
X268789Y444245D01*
X268762Y444384D01*
X268738Y444523D01*
X268718Y444664D01*
X268703Y444804D01*
X268691Y444945D01*
X268683Y445087D01*
X268679Y445228D01*
X268680Y445370D01*
X268684Y445511D01*
X268692Y445652D01*
X268704Y445793D01*
X268720Y445934D01*
X268740Y446074D01*
X268764Y446214D01*
X268791Y446352D01*
X268823Y446490D01*
X268859Y446627D01*
X268898Y446763D01*
X268941Y446898D01*
X268988Y447032D01*
X269038Y447164D01*
X269093Y447295D01*
X269151Y447424D01*
X269212Y447551D01*
X269277Y447677D01*
X269346Y447801D01*
X269418Y447923D01*
X269493Y448042D01*
X269572Y448160D01*
X269654Y448275D01*
X269739Y448388D01*
X269828Y448499D01*
X269919Y448607D01*
X270013Y448713D01*
X270111Y448815D01*
X270211Y448915D01*
X270314Y449013D01*
X270419Y449107D01*
X270528Y449198D01*
X270638Y449286D01*
X270751Y449371D01*
X270867Y449453D01*
X270985Y449532D01*
X271104Y449607D01*
X271226Y449679D01*
X271350Y449747D01*
X271476Y449812D01*
X271604Y449873D01*
X271733Y449931D01*
X271864Y449985D01*
X271996Y450036D01*
X272130Y450082D01*
X272264Y450125D01*
X272400Y450164D01*
X272538Y450200D01*
X272676Y450231D01*
X272814Y450259D01*
X272954Y450282D01*
X273094Y450302D01*
X273235Y450318D01*
X273376Y450330D01*
X273517Y450338D01*
X273659Y450342D01*
X273800Y450341D01*
X273800Y450342D02*
X274331Y450328D01*
X274862Y450301D01*
X275393Y450261D01*
X275922Y450209D01*
X276450Y450144D01*
X276976Y450067D01*
X277500Y449976D01*
X278021Y449874D01*
X278540Y449758D01*
X279057Y449630D01*
X279569Y449490D01*
X280079Y449338D01*
X280584Y449173D01*
X281086Y448996D01*
X281583Y448808D01*
X282075Y448607D01*
X282563Y448394D01*
X281589Y436711D02*
X281720Y436656D01*
X281849Y436598D01*
X281976Y436537D01*
X282102Y436472D01*
X282226Y436403D01*
X282347Y436331D01*
X282467Y436255D01*
X282585Y436176D01*
X282700Y436094D01*
X282813Y436009D01*
X282924Y435921D01*
X283032Y435829D01*
X283137Y435735D01*
X283240Y435637D01*
X283340Y435537D01*
X283437Y435434D01*
X283531Y435328D01*
X283622Y435220D01*
X283710Y435109D01*
X283795Y434996D01*
X283877Y434880D01*
X283955Y434763D01*
X284030Y434643D01*
X284102Y434521D01*
X284170Y434397D01*
X284235Y434271D01*
X284296Y434143D01*
X284354Y434014D01*
X284408Y433883D01*
X284458Y433751D01*
X284505Y433617D01*
X284548Y433482D01*
X284587Y433346D01*
X284622Y433209D01*
X284653Y433071D01*
X284680Y432932D01*
X284704Y432793D01*
X284724Y432652D01*
X284739Y432512D01*
X284751Y432371D01*
X284759Y432229D01*
X284763Y432088D01*
X284762Y431946D01*
X284758Y431805D01*
X284750Y431664D01*
X284738Y431523D01*
X284722Y431382D01*
X284702Y431242D01*
X284678Y431102D01*
X284651Y430964D01*
X284619Y430826D01*
X284583Y430689D01*
X284544Y430553D01*
X284501Y430418D01*
X284454Y430284D01*
X284404Y430152D01*
X284349Y430021D01*
X284291Y429892D01*
X284230Y429765D01*
X284165Y429639D01*
X284096Y429515D01*
X284024Y429393D01*
X283949Y429274D01*
X283870Y429156D01*
X283788Y429041D01*
X283703Y428928D01*
X283614Y428817D01*
X283523Y428709D01*
X283429Y428603D01*
X283331Y428501D01*
X283231Y428401D01*
X283128Y428303D01*
X283023Y428209D01*
X282915Y428118D01*
X282804Y428030D01*
X282691Y427945D01*
X282575Y427863D01*
X282457Y427784D01*
X282338Y427709D01*
X282216Y427637D01*
X282092Y427569D01*
X281966Y427504D01*
X281838Y427443D01*
X281709Y427385D01*
X281578Y427331D01*
X281446Y427280D01*
X281312Y427234D01*
X281178Y427191D01*
X281042Y427152D01*
X280904Y427116D01*
X280766Y427085D01*
X280628Y427057D01*
X280488Y427034D01*
X280348Y427014D01*
X280207Y426998D01*
X280066Y426986D01*
X279925Y426978D01*
X279783Y426974D01*
X279642Y426975D01*
X279641Y426974D02*
X278861Y426995D01*
X278080Y427034D01*
X277301Y427091D01*
X276524Y427167D01*
X275749Y427261D01*
X274976Y427373D01*
X274206Y427504D01*
X273439Y427652D01*
X272676Y427819D01*
X271917Y428004D01*
X271162Y428207D01*
X270413Y428428D01*
X269669Y428666D01*
X268931Y428922D01*
X291876Y450342D02*
X303560Y450342D01*
X295771Y462026D02*
X295771Y432816D01*
X295773Y432666D01*
X295779Y432515D01*
X295788Y432365D01*
X295802Y432215D01*
X295819Y432066D01*
X295841Y431917D01*
X295866Y431769D01*
X295895Y431621D01*
X295927Y431474D01*
X295964Y431328D01*
X296004Y431183D01*
X296048Y431039D01*
X296095Y430897D01*
X296147Y430755D01*
X296201Y430615D01*
X296260Y430477D01*
X296322Y430339D01*
X296387Y430204D01*
X296456Y430070D01*
X296529Y429939D01*
X296605Y429809D01*
X296684Y429681D01*
X296766Y429555D01*
X296852Y429431D01*
X296940Y429310D01*
X297032Y429190D01*
X297127Y429074D01*
X297225Y428959D01*
X297326Y428848D01*
X297429Y428739D01*
X297536Y428632D01*
X297645Y428529D01*
X297756Y428428D01*
X297871Y428330D01*
X297987Y428235D01*
X298107Y428143D01*
X298228Y428055D01*
X298352Y427969D01*
X298478Y427887D01*
X298606Y427808D01*
X298736Y427732D01*
X298867Y427659D01*
X299001Y427590D01*
X299136Y427525D01*
X299274Y427463D01*
X299412Y427404D01*
X299552Y427350D01*
X299694Y427298D01*
X299836Y427251D01*
X299980Y427207D01*
X300125Y427167D01*
X300271Y427130D01*
X300418Y427098D01*
X300566Y427069D01*
X300714Y427044D01*
X300863Y427022D01*
X301012Y427005D01*
X301162Y426991D01*
X301312Y426982D01*
X301463Y426976D01*
X301613Y426974D01*
X303560Y426974D01*
X311794Y434763D02*
X311794Y442553D01*
X311796Y442743D01*
X311803Y442932D01*
X311815Y443122D01*
X311831Y443311D01*
X311852Y443499D01*
X311877Y443687D01*
X311907Y443874D01*
X311941Y444061D01*
X311980Y444247D01*
X312024Y444431D01*
X312072Y444615D01*
X312124Y444797D01*
X312181Y444978D01*
X312242Y445157D01*
X312308Y445335D01*
X312378Y445512D01*
X312452Y445686D01*
X312530Y445859D01*
X312613Y446030D01*
X312700Y446199D01*
X312791Y446365D01*
X312885Y446529D01*
X312984Y446691D01*
X313087Y446851D01*
X313194Y447008D01*
X313304Y447162D01*
X313418Y447313D01*
X313536Y447462D01*
X313657Y447608D01*
X313782Y447751D01*
X313910Y447890D01*
X314042Y448027D01*
X314177Y448160D01*
X314315Y448290D01*
X314456Y448417D01*
X314601Y448540D01*
X314748Y448660D01*
X314898Y448775D01*
X315051Y448888D01*
X315207Y448996D01*
X315365Y449101D01*
X315525Y449202D01*
X315689Y449298D01*
X315854Y449391D01*
X316022Y449480D01*
X316191Y449565D01*
X316363Y449645D01*
X316537Y449722D01*
X316712Y449794D01*
X316889Y449861D01*
X317068Y449925D01*
X317248Y449984D01*
X317430Y450039D01*
X317613Y450089D01*
X317797Y450134D01*
X317982Y450176D01*
X318168Y450212D01*
X318355Y450245D01*
X318543Y450272D01*
X318731Y450295D01*
X318920Y450314D01*
X319109Y450328D01*
X319299Y450337D01*
X319488Y450341D01*
X319678Y450341D01*
X319867Y450337D01*
X320057Y450328D01*
X320246Y450314D01*
X320435Y450295D01*
X320623Y450272D01*
X320811Y450245D01*
X320998Y450212D01*
X321184Y450176D01*
X321369Y450134D01*
X321553Y450089D01*
X321736Y450039D01*
X321918Y449984D01*
X322098Y449925D01*
X322277Y449861D01*
X322454Y449794D01*
X322629Y449722D01*
X322803Y449645D01*
X322975Y449565D01*
X323144Y449480D01*
X323312Y449391D01*
X323478Y449298D01*
X323641Y449202D01*
X323801Y449101D01*
X323959Y448996D01*
X324115Y448888D01*
X324268Y448775D01*
X324418Y448660D01*
X324565Y448540D01*
X324710Y448417D01*
X324851Y448290D01*
X324989Y448160D01*
X325124Y448027D01*
X325256Y447890D01*
X325384Y447751D01*
X325509Y447608D01*
X325630Y447462D01*
X325748Y447313D01*
X325862Y447162D01*
X325972Y447008D01*
X326079Y446851D01*
X326182Y446691D01*
X326281Y446529D01*
X326375Y446365D01*
X326466Y446199D01*
X326553Y446030D01*
X326636Y445859D01*
X326714Y445686D01*
X326788Y445512D01*
X326858Y445335D01*
X326924Y445157D01*
X326985Y444978D01*
X327042Y444797D01*
X327094Y444615D01*
X327142Y444431D01*
X327186Y444247D01*
X327225Y444061D01*
X327259Y443874D01*
X327289Y443687D01*
X327314Y443499D01*
X327335Y443311D01*
X327351Y443122D01*
X327363Y442932D01*
X327370Y442743D01*
X327372Y442553D01*
X327373Y442553D02*
X327373Y434763D01*
X327372Y434763D02*
X327370Y434573D01*
X327363Y434384D01*
X327351Y434194D01*
X327335Y434005D01*
X327314Y433817D01*
X327289Y433629D01*
X327259Y433442D01*
X327225Y433255D01*
X327186Y433069D01*
X327142Y432885D01*
X327094Y432701D01*
X327042Y432519D01*
X326985Y432338D01*
X326924Y432159D01*
X326858Y431981D01*
X326788Y431804D01*
X326714Y431630D01*
X326636Y431457D01*
X326553Y431286D01*
X326466Y431117D01*
X326375Y430951D01*
X326281Y430787D01*
X326182Y430625D01*
X326079Y430465D01*
X325972Y430308D01*
X325862Y430154D01*
X325748Y430003D01*
X325630Y429854D01*
X325509Y429708D01*
X325384Y429565D01*
X325256Y429426D01*
X325124Y429289D01*
X324989Y429156D01*
X324851Y429026D01*
X324710Y428899D01*
X324565Y428776D01*
X324418Y428656D01*
X324268Y428541D01*
X324115Y428428D01*
X323959Y428320D01*
X323801Y428215D01*
X323641Y428114D01*
X323478Y428018D01*
X323312Y427925D01*
X323144Y427836D01*
X322975Y427751D01*
X322803Y427671D01*
X322629Y427594D01*
X322454Y427522D01*
X322277Y427455D01*
X322098Y427391D01*
X321918Y427332D01*
X321736Y427277D01*
X321553Y427227D01*
X321369Y427182D01*
X321184Y427140D01*
X320998Y427104D01*
X320811Y427071D01*
X320623Y427044D01*
X320435Y427021D01*
X320246Y427002D01*
X320057Y426988D01*
X319867Y426979D01*
X319678Y426975D01*
X319488Y426975D01*
X319299Y426979D01*
X319109Y426988D01*
X318920Y427002D01*
X318731Y427021D01*
X318543Y427044D01*
X318355Y427071D01*
X318168Y427104D01*
X317982Y427140D01*
X317797Y427182D01*
X317613Y427227D01*
X317430Y427277D01*
X317248Y427332D01*
X317068Y427391D01*
X316889Y427455D01*
X316712Y427522D01*
X316537Y427594D01*
X316363Y427671D01*
X316191Y427751D01*
X316022Y427836D01*
X315854Y427925D01*
X315689Y428018D01*
X315525Y428114D01*
X315365Y428215D01*
X315207Y428320D01*
X315051Y428428D01*
X314898Y428541D01*
X314748Y428656D01*
X314601Y428776D01*
X314456Y428899D01*
X314315Y429026D01*
X314177Y429156D01*
X314042Y429289D01*
X313910Y429426D01*
X313782Y429565D01*
X313657Y429708D01*
X313536Y429854D01*
X313418Y430003D01*
X313304Y430154D01*
X313194Y430308D01*
X313087Y430465D01*
X312984Y430625D01*
X312885Y430787D01*
X312791Y430951D01*
X312700Y431117D01*
X312613Y431286D01*
X312530Y431457D01*
X312452Y431630D01*
X312378Y431804D01*
X312308Y431981D01*
X312242Y432159D01*
X312181Y432338D01*
X312124Y432519D01*
X312072Y432701D01*
X312024Y432885D01*
X311980Y433069D01*
X311941Y433255D01*
X311907Y433442D01*
X311877Y433629D01*
X311852Y433817D01*
X311831Y434005D01*
X311815Y434194D01*
X311803Y434384D01*
X311796Y434573D01*
X311794Y434763D01*
X337478Y426974D02*
X337478Y450342D01*
X349162Y450342D01*
X349162Y446447D01*
X179324Y309626D02*
X179324Y274574D01*
X179324Y309626D02*
X189061Y309626D01*
X189298Y309623D01*
X189535Y309614D01*
X189772Y309600D01*
X190008Y309580D01*
X190244Y309554D01*
X190479Y309522D01*
X190713Y309485D01*
X190946Y309442D01*
X191178Y309393D01*
X191409Y309339D01*
X191638Y309279D01*
X191866Y309213D01*
X192092Y309142D01*
X192317Y309066D01*
X192539Y308984D01*
X192760Y308896D01*
X192978Y308803D01*
X193194Y308705D01*
X193407Y308602D01*
X193618Y308494D01*
X193826Y308380D01*
X194032Y308262D01*
X194234Y308138D01*
X194434Y308010D01*
X194630Y307876D01*
X194823Y307738D01*
X195012Y307596D01*
X195198Y307449D01*
X195380Y307297D01*
X195559Y307141D01*
X195733Y306980D01*
X195904Y306816D01*
X196071Y306647D01*
X196233Y306475D01*
X196391Y306298D01*
X196545Y306117D01*
X196695Y305933D01*
X196840Y305746D01*
X196980Y305555D01*
X197116Y305360D01*
X197246Y305162D01*
X197372Y304961D01*
X197493Y304758D01*
X197610Y304551D01*
X197721Y304341D01*
X197826Y304129D01*
X197927Y303914D01*
X198022Y303697D01*
X198112Y303478D01*
X198197Y303256D01*
X198276Y303033D01*
X198350Y302808D01*
X198419Y302580D01*
X198481Y302352D01*
X198539Y302122D01*
X198590Y301890D01*
X198636Y301658D01*
X198676Y301424D01*
X198711Y301189D01*
X198740Y300954D01*
X198763Y300718D01*
X198780Y300481D01*
X198792Y300245D01*
X198797Y300008D01*
X198797Y299770D01*
X198792Y299533D01*
X198780Y299297D01*
X198763Y299060D01*
X198740Y298824D01*
X198711Y298589D01*
X198676Y298354D01*
X198636Y298120D01*
X198590Y297888D01*
X198539Y297656D01*
X198481Y297426D01*
X198419Y297198D01*
X198350Y296970D01*
X198276Y296745D01*
X198197Y296522D01*
X198112Y296300D01*
X198022Y296081D01*
X197927Y295864D01*
X197826Y295649D01*
X197721Y295437D01*
X197610Y295227D01*
X197493Y295021D01*
X197372Y294817D01*
X197246Y294616D01*
X197116Y294418D01*
X196980Y294223D01*
X196840Y294032D01*
X196695Y293845D01*
X196545Y293661D01*
X196391Y293480D01*
X196233Y293303D01*
X196071Y293131D01*
X195904Y292962D01*
X195733Y292798D01*
X195559Y292637D01*
X195380Y292481D01*
X195198Y292329D01*
X195012Y292182D01*
X194823Y292040D01*
X194630Y291902D01*
X194434Y291768D01*
X194234Y291640D01*
X194032Y291516D01*
X193826Y291398D01*
X193618Y291284D01*
X193407Y291176D01*
X193194Y291073D01*
X192978Y290975D01*
X192760Y290882D01*
X192539Y290794D01*
X192317Y290712D01*
X192092Y290636D01*
X191866Y290565D01*
X191638Y290499D01*
X191409Y290439D01*
X191178Y290385D01*
X190946Y290336D01*
X190713Y290293D01*
X190479Y290256D01*
X190244Y290224D01*
X190008Y290198D01*
X189772Y290178D01*
X189535Y290164D01*
X189298Y290155D01*
X189061Y290152D01*
X189061Y290153D02*
X179324Y290153D01*
X191008Y290153D02*
X198797Y274574D01*
X215727Y274574D02*
X223516Y274574D01*
X215727Y274574D02*
X215539Y274576D01*
X215351Y274583D01*
X215163Y274594D01*
X214975Y274610D01*
X214788Y274631D01*
X214602Y274656D01*
X214416Y274685D01*
X214231Y274719D01*
X214046Y274758D01*
X213863Y274800D01*
X213681Y274848D01*
X213500Y274899D01*
X213320Y274955D01*
X213142Y275016D01*
X212965Y275080D01*
X212790Y275149D01*
X212616Y275222D01*
X212445Y275299D01*
X212275Y275381D01*
X212107Y275466D01*
X211942Y275556D01*
X211778Y275649D01*
X211617Y275746D01*
X211459Y275848D01*
X211302Y275953D01*
X211149Y276062D01*
X210998Y276174D01*
X210850Y276290D01*
X210704Y276410D01*
X210562Y276533D01*
X210423Y276659D01*
X210286Y276789D01*
X210153Y276922D01*
X210023Y277059D01*
X209897Y277198D01*
X209774Y277340D01*
X209654Y277486D01*
X209538Y277634D01*
X209426Y277785D01*
X209317Y277938D01*
X209212Y278095D01*
X209110Y278253D01*
X209013Y278414D01*
X208920Y278578D01*
X208830Y278743D01*
X208745Y278911D01*
X208663Y279081D01*
X208586Y279252D01*
X208513Y279426D01*
X208444Y279601D01*
X208380Y279778D01*
X208319Y279956D01*
X208263Y280136D01*
X208212Y280317D01*
X208164Y280499D01*
X208122Y280682D01*
X208083Y280867D01*
X208049Y281052D01*
X208020Y281238D01*
X207995Y281424D01*
X207974Y281611D01*
X207958Y281799D01*
X207947Y281987D01*
X207940Y282175D01*
X207938Y282363D01*
X207938Y301837D01*
X207940Y302028D01*
X207947Y302219D01*
X207959Y302410D01*
X207976Y302600D01*
X207997Y302790D01*
X208022Y302980D01*
X208053Y303169D01*
X208088Y303357D01*
X208127Y303544D01*
X208171Y303730D01*
X208220Y303914D01*
X208273Y304098D01*
X208331Y304280D01*
X208393Y304461D01*
X208460Y304640D01*
X208531Y304818D01*
X208606Y304993D01*
X208686Y305167D01*
X208770Y305339D01*
X208858Y305509D01*
X208950Y305676D01*
X209046Y305841D01*
X209146Y306004D01*
X209251Y306164D01*
X209359Y306322D01*
X209471Y306477D01*
X209587Y306629D01*
X209706Y306778D01*
X209829Y306925D01*
X209956Y307068D01*
X210086Y307208D01*
X210219Y307345D01*
X210356Y307478D01*
X210496Y307608D01*
X210639Y307735D01*
X210786Y307858D01*
X210935Y307977D01*
X211087Y308093D01*
X211242Y308205D01*
X211400Y308313D01*
X211560Y308418D01*
X211723Y308518D01*
X211888Y308614D01*
X212055Y308706D01*
X212225Y308794D01*
X212397Y308878D01*
X212571Y308958D01*
X212746Y309033D01*
X212924Y309104D01*
X213103Y309171D01*
X213284Y309233D01*
X213466Y309291D01*
X213650Y309344D01*
X213834Y309393D01*
X214020Y309437D01*
X214207Y309476D01*
X214395Y309511D01*
X214584Y309542D01*
X214774Y309567D01*
X214964Y309588D01*
X215154Y309605D01*
X215345Y309617D01*
X215536Y309624D01*
X215727Y309626D01*
X223516Y309626D01*
X179324Y157226D02*
X179324Y122174D01*
X179324Y157226D02*
X189061Y157226D01*
X189298Y157223D01*
X189535Y157214D01*
X189772Y157200D01*
X190008Y157180D01*
X190244Y157154D01*
X190479Y157122D01*
X190713Y157085D01*
X190946Y157042D01*
X191178Y156993D01*
X191409Y156939D01*
X191638Y156879D01*
X191866Y156813D01*
X192092Y156742D01*
X192317Y156666D01*
X192539Y156584D01*
X192760Y156496D01*
X192978Y156403D01*
X193194Y156305D01*
X193407Y156202D01*
X193618Y156094D01*
X193826Y155980D01*
X194032Y155862D01*
X194234Y155738D01*
X194434Y155610D01*
X194630Y155476D01*
X194823Y155338D01*
X195012Y155196D01*
X195198Y155049D01*
X195380Y154897D01*
X195559Y154741D01*
X195733Y154580D01*
X195904Y154416D01*
X196071Y154247D01*
X196233Y154075D01*
X196391Y153898D01*
X196545Y153717D01*
X196695Y153533D01*
X196840Y153346D01*
X196980Y153155D01*
X197116Y152960D01*
X197246Y152762D01*
X197372Y152561D01*
X197493Y152358D01*
X197610Y152151D01*
X197721Y151941D01*
X197826Y151729D01*
X197927Y151514D01*
X198022Y151297D01*
X198112Y151078D01*
X198197Y150856D01*
X198276Y150633D01*
X198350Y150408D01*
X198419Y150180D01*
X198481Y149952D01*
X198539Y149722D01*
X198590Y149490D01*
X198636Y149258D01*
X198676Y149024D01*
X198711Y148789D01*
X198740Y148554D01*
X198763Y148318D01*
X198780Y148081D01*
X198792Y147845D01*
X198797Y147608D01*
X198797Y147370D01*
X198792Y147133D01*
X198780Y146897D01*
X198763Y146660D01*
X198740Y146424D01*
X198711Y146189D01*
X198676Y145954D01*
X198636Y145720D01*
X198590Y145488D01*
X198539Y145256D01*
X198481Y145026D01*
X198419Y144798D01*
X198350Y144570D01*
X198276Y144345D01*
X198197Y144122D01*
X198112Y143900D01*
X198022Y143681D01*
X197927Y143464D01*
X197826Y143249D01*
X197721Y143037D01*
X197610Y142827D01*
X197493Y142621D01*
X197372Y142417D01*
X197246Y142216D01*
X197116Y142018D01*
X196980Y141823D01*
X196840Y141632D01*
X196695Y141445D01*
X196545Y141261D01*
X196391Y141080D01*
X196233Y140903D01*
X196071Y140731D01*
X195904Y140562D01*
X195733Y140398D01*
X195559Y140237D01*
X195380Y140081D01*
X195198Y139929D01*
X195012Y139782D01*
X194823Y139640D01*
X194630Y139502D01*
X194434Y139368D01*
X194234Y139240D01*
X194032Y139116D01*
X193826Y138998D01*
X193618Y138884D01*
X193407Y138776D01*
X193194Y138673D01*
X192978Y138575D01*
X192760Y138482D01*
X192539Y138394D01*
X192317Y138312D01*
X192092Y138236D01*
X191866Y138165D01*
X191638Y138099D01*
X191409Y138039D01*
X191178Y137985D01*
X190946Y137936D01*
X190713Y137893D01*
X190479Y137856D01*
X190244Y137824D01*
X190008Y137798D01*
X189772Y137778D01*
X189535Y137764D01*
X189298Y137755D01*
X189061Y137752D01*
X189061Y137753D02*
X179324Y137753D01*
X191008Y137753D02*
X198797Y122174D01*
X208868Y122174D02*
X208868Y157226D01*
X208868Y122174D02*
X224446Y122174D01*
D11*
X150622Y175768D02*
X138938Y175768D01*
X138938Y180961D01*
X144131Y180961D02*
X144131Y175768D01*
X145429Y185158D02*
X148026Y185158D01*
X145429Y185158D02*
X145328Y185160D01*
X145228Y185166D01*
X145128Y185176D01*
X145028Y185189D01*
X144929Y185207D01*
X144830Y185228D01*
X144733Y185253D01*
X144636Y185282D01*
X144541Y185315D01*
X144447Y185351D01*
X144355Y185391D01*
X144264Y185434D01*
X144175Y185481D01*
X144088Y185531D01*
X144002Y185585D01*
X143919Y185642D01*
X143839Y185702D01*
X143760Y185765D01*
X143684Y185832D01*
X143611Y185901D01*
X143541Y185973D01*
X143473Y186047D01*
X143408Y186124D01*
X143347Y186204D01*
X143288Y186286D01*
X143233Y186370D01*
X143181Y186456D01*
X143132Y186544D01*
X143087Y186634D01*
X143045Y186726D01*
X143007Y186819D01*
X142973Y186914D01*
X142942Y187009D01*
X142915Y187106D01*
X142892Y187204D01*
X142872Y187303D01*
X142857Y187403D01*
X142845Y187503D01*
X142837Y187603D01*
X142833Y187704D01*
X142833Y187804D01*
X142837Y187905D01*
X142845Y188005D01*
X142857Y188105D01*
X142872Y188205D01*
X142892Y188304D01*
X142915Y188402D01*
X142942Y188499D01*
X142973Y188594D01*
X143007Y188689D01*
X143045Y188782D01*
X143087Y188874D01*
X143132Y188964D01*
X143181Y189052D01*
X143233Y189138D01*
X143288Y189222D01*
X143347Y189304D01*
X143408Y189384D01*
X143473Y189461D01*
X143541Y189535D01*
X143611Y189607D01*
X143684Y189676D01*
X143760Y189743D01*
X143839Y189806D01*
X143919Y189866D01*
X144002Y189923D01*
X144088Y189977D01*
X144175Y190027D01*
X144264Y190074D01*
X144355Y190117D01*
X144447Y190157D01*
X144541Y190193D01*
X144636Y190226D01*
X144733Y190255D01*
X144830Y190280D01*
X144929Y190301D01*
X145028Y190319D01*
X145128Y190332D01*
X145228Y190342D01*
X145328Y190348D01*
X145429Y190350D01*
X148026Y190350D01*
X148127Y190348D01*
X148227Y190342D01*
X148327Y190332D01*
X148427Y190319D01*
X148526Y190301D01*
X148625Y190280D01*
X148722Y190255D01*
X148819Y190226D01*
X148914Y190193D01*
X149008Y190157D01*
X149100Y190117D01*
X149191Y190074D01*
X149280Y190027D01*
X149367Y189977D01*
X149453Y189923D01*
X149536Y189866D01*
X149616Y189806D01*
X149695Y189743D01*
X149771Y189676D01*
X149844Y189607D01*
X149914Y189535D01*
X149982Y189461D01*
X150047Y189384D01*
X150108Y189304D01*
X150167Y189222D01*
X150222Y189138D01*
X150274Y189052D01*
X150323Y188964D01*
X150368Y188874D01*
X150410Y188782D01*
X150448Y188689D01*
X150482Y188594D01*
X150513Y188499D01*
X150540Y188402D01*
X150563Y188304D01*
X150583Y188205D01*
X150598Y188105D01*
X150610Y188005D01*
X150618Y187905D01*
X150622Y187804D01*
X150622Y187704D01*
X150618Y187603D01*
X150610Y187503D01*
X150598Y187403D01*
X150583Y187303D01*
X150563Y187204D01*
X150540Y187106D01*
X150513Y187009D01*
X150482Y186914D01*
X150448Y186819D01*
X150410Y186726D01*
X150368Y186634D01*
X150323Y186544D01*
X150274Y186456D01*
X150222Y186370D01*
X150167Y186286D01*
X150108Y186204D01*
X150047Y186124D01*
X149982Y186047D01*
X149914Y185973D01*
X149844Y185901D01*
X149771Y185832D01*
X149695Y185765D01*
X149616Y185702D01*
X149536Y185642D01*
X149453Y185585D01*
X149367Y185531D01*
X149280Y185481D01*
X149191Y185434D01*
X149100Y185391D01*
X149008Y185351D01*
X148914Y185315D01*
X148819Y185282D01*
X148722Y185253D01*
X148625Y185228D01*
X148526Y185207D01*
X148427Y185189D01*
X148327Y185176D01*
X148227Y185166D01*
X148127Y185160D01*
X148026Y185158D01*
X150622Y195511D02*
X142833Y195511D01*
X142833Y199406D01*
X144131Y199406D01*
X150622Y205025D02*
X150622Y207622D01*
X150622Y205025D02*
X150620Y204938D01*
X150614Y204850D01*
X150604Y204764D01*
X150591Y204677D01*
X150573Y204592D01*
X150552Y204507D01*
X150527Y204423D01*
X150498Y204341D01*
X150465Y204260D01*
X150429Y204180D01*
X150390Y204102D01*
X150346Y204026D01*
X150300Y203952D01*
X150250Y203881D01*
X150197Y203811D01*
X150141Y203744D01*
X150082Y203680D01*
X150020Y203618D01*
X149956Y203559D01*
X149889Y203503D01*
X149819Y203450D01*
X149748Y203400D01*
X149674Y203354D01*
X149598Y203310D01*
X149520Y203271D01*
X149440Y203235D01*
X149359Y203202D01*
X149277Y203173D01*
X149193Y203148D01*
X149108Y203127D01*
X149023Y203109D01*
X148936Y203096D01*
X148850Y203086D01*
X148762Y203080D01*
X148675Y203078D01*
X144780Y203078D01*
X144693Y203080D01*
X144605Y203086D01*
X144519Y203096D01*
X144432Y203109D01*
X144347Y203127D01*
X144262Y203148D01*
X144178Y203173D01*
X144096Y203202D01*
X144015Y203235D01*
X143935Y203271D01*
X143857Y203310D01*
X143781Y203354D01*
X143707Y203400D01*
X143636Y203450D01*
X143566Y203503D01*
X143499Y203559D01*
X143435Y203618D01*
X143373Y203680D01*
X143314Y203744D01*
X143258Y203811D01*
X143205Y203881D01*
X143155Y203952D01*
X143109Y204026D01*
X143065Y204102D01*
X143026Y204180D01*
X142990Y204260D01*
X142957Y204341D01*
X142928Y204423D01*
X142903Y204507D01*
X142882Y204592D01*
X142864Y204677D01*
X142851Y204764D01*
X142841Y204850D01*
X142835Y204938D01*
X142833Y205025D01*
X142833Y207622D01*
X150622Y213775D02*
X150622Y217020D01*
X150622Y213775D02*
X150620Y213688D01*
X150614Y213600D01*
X150604Y213514D01*
X150591Y213427D01*
X150573Y213342D01*
X150552Y213257D01*
X150527Y213173D01*
X150498Y213091D01*
X150465Y213010D01*
X150429Y212930D01*
X150390Y212852D01*
X150346Y212776D01*
X150300Y212702D01*
X150250Y212631D01*
X150197Y212561D01*
X150141Y212494D01*
X150082Y212430D01*
X150020Y212368D01*
X149956Y212309D01*
X149889Y212253D01*
X149819Y212200D01*
X149748Y212150D01*
X149674Y212104D01*
X149598Y212060D01*
X149520Y212021D01*
X149440Y211985D01*
X149359Y211952D01*
X149277Y211923D01*
X149193Y211898D01*
X149108Y211877D01*
X149023Y211859D01*
X148936Y211846D01*
X148850Y211836D01*
X148762Y211830D01*
X148675Y211828D01*
X145429Y211828D01*
X145328Y211830D01*
X145228Y211836D01*
X145128Y211846D01*
X145028Y211859D01*
X144929Y211877D01*
X144830Y211898D01*
X144733Y211923D01*
X144636Y211952D01*
X144541Y211985D01*
X144447Y212021D01*
X144355Y212061D01*
X144264Y212104D01*
X144175Y212151D01*
X144088Y212201D01*
X144002Y212255D01*
X143919Y212312D01*
X143839Y212372D01*
X143760Y212435D01*
X143684Y212502D01*
X143611Y212571D01*
X143541Y212643D01*
X143473Y212717D01*
X143408Y212794D01*
X143347Y212874D01*
X143288Y212956D01*
X143233Y213040D01*
X143181Y213126D01*
X143132Y213214D01*
X143087Y213304D01*
X143045Y213396D01*
X143007Y213489D01*
X142973Y213584D01*
X142942Y213679D01*
X142915Y213776D01*
X142892Y213874D01*
X142872Y213973D01*
X142857Y214073D01*
X142845Y214173D01*
X142837Y214273D01*
X142833Y214374D01*
X142833Y214474D01*
X142837Y214575D01*
X142845Y214675D01*
X142857Y214775D01*
X142872Y214875D01*
X142892Y214974D01*
X142915Y215072D01*
X142942Y215169D01*
X142973Y215264D01*
X143007Y215359D01*
X143045Y215452D01*
X143087Y215544D01*
X143132Y215634D01*
X143181Y215722D01*
X143233Y215808D01*
X143288Y215892D01*
X143347Y215974D01*
X143408Y216054D01*
X143473Y216131D01*
X143541Y216205D01*
X143611Y216277D01*
X143684Y216346D01*
X143760Y216413D01*
X143839Y216476D01*
X143919Y216536D01*
X144002Y216593D01*
X144088Y216647D01*
X144175Y216697D01*
X144264Y216744D01*
X144355Y216787D01*
X144447Y216827D01*
X144541Y216863D01*
X144636Y216896D01*
X144733Y216925D01*
X144830Y216950D01*
X144929Y216971D01*
X145028Y216989D01*
X145128Y217002D01*
X145228Y217012D01*
X145328Y217018D01*
X145429Y217020D01*
X146727Y217020D01*
X146727Y211828D01*
X150622Y226867D02*
X138938Y226867D01*
X150622Y226867D02*
X150622Y223622D01*
X150620Y223535D01*
X150614Y223447D01*
X150604Y223361D01*
X150591Y223274D01*
X150573Y223189D01*
X150552Y223104D01*
X150527Y223020D01*
X150498Y222938D01*
X150465Y222857D01*
X150429Y222777D01*
X150390Y222699D01*
X150346Y222623D01*
X150300Y222549D01*
X150250Y222478D01*
X150197Y222408D01*
X150141Y222341D01*
X150082Y222277D01*
X150020Y222215D01*
X149956Y222156D01*
X149889Y222100D01*
X149819Y222047D01*
X149748Y221997D01*
X149674Y221951D01*
X149598Y221907D01*
X149520Y221868D01*
X149440Y221832D01*
X149359Y221799D01*
X149277Y221770D01*
X149193Y221745D01*
X149108Y221724D01*
X149023Y221706D01*
X148936Y221693D01*
X148850Y221683D01*
X148762Y221677D01*
X148675Y221675D01*
X144780Y221675D01*
X144693Y221677D01*
X144605Y221683D01*
X144519Y221693D01*
X144432Y221706D01*
X144347Y221724D01*
X144262Y221745D01*
X144178Y221770D01*
X144096Y221799D01*
X144015Y221832D01*
X143935Y221868D01*
X143857Y221907D01*
X143781Y221951D01*
X143707Y221997D01*
X143636Y222047D01*
X143566Y222100D01*
X143499Y222156D01*
X143435Y222215D01*
X143373Y222277D01*
X143314Y222341D01*
X143258Y222408D01*
X143205Y222478D01*
X143155Y222549D01*
X143109Y222623D01*
X143065Y222699D01*
X143026Y222777D01*
X142990Y222857D01*
X142957Y222938D01*
X142928Y223020D01*
X142903Y223104D01*
X142882Y223189D01*
X142864Y223274D01*
X142851Y223361D01*
X142841Y223447D01*
X142835Y223535D01*
X142833Y223622D01*
X142833Y226867D01*
X138938Y99568D02*
X150622Y99568D01*
X150622Y106059D02*
X138938Y99568D01*
X138938Y106059D02*
X150622Y106059D01*
X146078Y113479D02*
X146078Y116400D01*
X146078Y113479D02*
X146080Y113385D01*
X146086Y113291D01*
X146095Y113198D01*
X146109Y113105D01*
X146126Y113013D01*
X146148Y112921D01*
X146172Y112831D01*
X146201Y112741D01*
X146233Y112653D01*
X146269Y112566D01*
X146309Y112481D01*
X146352Y112398D01*
X146398Y112316D01*
X146448Y112236D01*
X146501Y112159D01*
X146557Y112084D01*
X146616Y112011D01*
X146678Y111940D01*
X146743Y111872D01*
X146811Y111807D01*
X146882Y111745D01*
X146955Y111686D01*
X147030Y111630D01*
X147107Y111577D01*
X147187Y111527D01*
X147269Y111481D01*
X147352Y111438D01*
X147437Y111398D01*
X147524Y111362D01*
X147612Y111330D01*
X147702Y111301D01*
X147792Y111277D01*
X147884Y111255D01*
X147976Y111238D01*
X148069Y111224D01*
X148162Y111215D01*
X148256Y111209D01*
X148350Y111207D01*
X148444Y111209D01*
X148538Y111215D01*
X148631Y111224D01*
X148724Y111238D01*
X148816Y111255D01*
X148908Y111277D01*
X148998Y111301D01*
X149088Y111330D01*
X149176Y111362D01*
X149263Y111398D01*
X149348Y111438D01*
X149431Y111481D01*
X149513Y111527D01*
X149593Y111577D01*
X149670Y111630D01*
X149745Y111686D01*
X149818Y111745D01*
X149889Y111807D01*
X149957Y111872D01*
X150022Y111940D01*
X150084Y112011D01*
X150143Y112084D01*
X150199Y112159D01*
X150252Y112236D01*
X150302Y112316D01*
X150348Y112398D01*
X150391Y112481D01*
X150431Y112566D01*
X150467Y112653D01*
X150499Y112741D01*
X150528Y112831D01*
X150552Y112921D01*
X150574Y113013D01*
X150591Y113105D01*
X150605Y113198D01*
X150614Y113291D01*
X150620Y113385D01*
X150622Y113479D01*
X150622Y116400D01*
X144780Y116400D01*
X144693Y116398D01*
X144605Y116392D01*
X144519Y116382D01*
X144432Y116369D01*
X144347Y116351D01*
X144262Y116330D01*
X144178Y116305D01*
X144096Y116276D01*
X144015Y116243D01*
X143935Y116207D01*
X143857Y116168D01*
X143781Y116124D01*
X143707Y116078D01*
X143636Y116028D01*
X143566Y115975D01*
X143499Y115919D01*
X143435Y115860D01*
X143373Y115798D01*
X143314Y115734D01*
X143258Y115667D01*
X143205Y115597D01*
X143155Y115526D01*
X143109Y115452D01*
X143065Y115376D01*
X143026Y115298D01*
X142990Y115218D01*
X142957Y115137D01*
X142928Y115055D01*
X142903Y114971D01*
X142882Y114886D01*
X142864Y114801D01*
X142851Y114714D01*
X142841Y114628D01*
X142835Y114540D01*
X142833Y114453D01*
X142833Y111856D01*
X142833Y120586D02*
X142833Y124480D01*
X138938Y121884D02*
X148675Y121884D01*
X148762Y121886D01*
X148850Y121892D01*
X148936Y121902D01*
X149023Y121915D01*
X149108Y121933D01*
X149193Y121954D01*
X149277Y121979D01*
X149359Y122008D01*
X149440Y122041D01*
X149520Y122077D01*
X149598Y122116D01*
X149674Y122160D01*
X149748Y122206D01*
X149819Y122256D01*
X149889Y122309D01*
X149956Y122365D01*
X150020Y122424D01*
X150082Y122486D01*
X150141Y122550D01*
X150197Y122617D01*
X150250Y122687D01*
X150300Y122758D01*
X150346Y122832D01*
X150390Y122908D01*
X150429Y122986D01*
X150465Y123066D01*
X150498Y123147D01*
X150527Y123229D01*
X150552Y123313D01*
X150573Y123398D01*
X150591Y123483D01*
X150604Y123570D01*
X150614Y123656D01*
X150620Y123744D01*
X150622Y123831D01*
X150622Y124480D01*
X148675Y129173D02*
X142833Y129173D01*
X148675Y129173D02*
X148762Y129175D01*
X148850Y129181D01*
X148936Y129191D01*
X149023Y129204D01*
X149108Y129222D01*
X149193Y129243D01*
X149277Y129268D01*
X149359Y129297D01*
X149440Y129330D01*
X149520Y129366D01*
X149598Y129405D01*
X149674Y129449D01*
X149748Y129495D01*
X149819Y129545D01*
X149889Y129598D01*
X149956Y129654D01*
X150020Y129713D01*
X150082Y129775D01*
X150141Y129839D01*
X150197Y129906D01*
X150250Y129976D01*
X150300Y130047D01*
X150346Y130121D01*
X150390Y130197D01*
X150429Y130275D01*
X150465Y130355D01*
X150498Y130436D01*
X150527Y130518D01*
X150552Y130602D01*
X150573Y130687D01*
X150591Y130772D01*
X150604Y130859D01*
X150614Y130945D01*
X150620Y131033D01*
X150622Y131120D01*
X150622Y134366D01*
X142833Y134366D01*
X142833Y139907D02*
X150622Y139907D01*
X142833Y139907D02*
X142833Y143802D01*
X144131Y143802D01*
X146078Y149674D02*
X146078Y152595D01*
X146078Y149674D02*
X146080Y149580D01*
X146086Y149486D01*
X146095Y149393D01*
X146109Y149300D01*
X146126Y149208D01*
X146148Y149116D01*
X146172Y149026D01*
X146201Y148936D01*
X146233Y148848D01*
X146269Y148761D01*
X146309Y148676D01*
X146352Y148593D01*
X146398Y148511D01*
X146448Y148431D01*
X146501Y148354D01*
X146557Y148279D01*
X146616Y148206D01*
X146678Y148135D01*
X146743Y148067D01*
X146811Y148002D01*
X146882Y147940D01*
X146955Y147881D01*
X147030Y147825D01*
X147107Y147772D01*
X147187Y147722D01*
X147269Y147676D01*
X147352Y147633D01*
X147437Y147593D01*
X147524Y147557D01*
X147612Y147525D01*
X147702Y147496D01*
X147792Y147472D01*
X147884Y147450D01*
X147976Y147433D01*
X148069Y147419D01*
X148162Y147410D01*
X148256Y147404D01*
X148350Y147402D01*
X148444Y147404D01*
X148538Y147410D01*
X148631Y147419D01*
X148724Y147433D01*
X148816Y147450D01*
X148908Y147472D01*
X148998Y147496D01*
X149088Y147525D01*
X149176Y147557D01*
X149263Y147593D01*
X149348Y147633D01*
X149431Y147676D01*
X149513Y147722D01*
X149593Y147772D01*
X149670Y147825D01*
X149745Y147881D01*
X149818Y147940D01*
X149889Y148002D01*
X149957Y148067D01*
X150022Y148135D01*
X150084Y148206D01*
X150143Y148279D01*
X150199Y148354D01*
X150252Y148431D01*
X150302Y148511D01*
X150348Y148593D01*
X150391Y148676D01*
X150431Y148761D01*
X150467Y148848D01*
X150499Y148936D01*
X150528Y149026D01*
X150552Y149116D01*
X150574Y149208D01*
X150591Y149300D01*
X150605Y149393D01*
X150614Y149486D01*
X150620Y149580D01*
X150622Y149674D01*
X150622Y152595D01*
X144780Y152595D01*
X144693Y152593D01*
X144605Y152587D01*
X144519Y152577D01*
X144432Y152564D01*
X144347Y152546D01*
X144262Y152525D01*
X144178Y152500D01*
X144096Y152471D01*
X144015Y152438D01*
X143935Y152402D01*
X143857Y152363D01*
X143781Y152319D01*
X143707Y152273D01*
X143636Y152223D01*
X143566Y152170D01*
X143499Y152114D01*
X143435Y152055D01*
X143373Y151993D01*
X143314Y151929D01*
X143258Y151862D01*
X143205Y151792D01*
X143155Y151721D01*
X143109Y151647D01*
X143065Y151571D01*
X143026Y151493D01*
X142990Y151413D01*
X142957Y151332D01*
X142928Y151250D01*
X142903Y151166D01*
X142882Y151081D01*
X142864Y150996D01*
X142851Y150909D01*
X142841Y150823D01*
X142835Y150735D01*
X142833Y150648D01*
X142833Y148051D01*
X138938Y157898D02*
X148675Y157898D01*
X148762Y157900D01*
X148850Y157906D01*
X148936Y157916D01*
X149023Y157929D01*
X149108Y157947D01*
X149193Y157968D01*
X149277Y157993D01*
X149359Y158022D01*
X149440Y158055D01*
X149520Y158091D01*
X149598Y158130D01*
X149674Y158174D01*
X149748Y158220D01*
X149819Y158270D01*
X149889Y158323D01*
X149956Y158379D01*
X150020Y158438D01*
X150082Y158500D01*
X150141Y158564D01*
X150197Y158631D01*
X150250Y158701D01*
X150300Y158772D01*
X150346Y158846D01*
X150390Y158922D01*
X150429Y159000D01*
X150465Y159080D01*
X150498Y159161D01*
X150527Y159243D01*
X150552Y159327D01*
X150573Y159412D01*
X150591Y159497D01*
X150604Y159584D01*
X150614Y159670D01*
X150620Y159758D01*
X150622Y159845D01*
D13*
X157480Y166370D02*
X132080Y166370D01*
D11*
X138938Y328168D02*
X150622Y328168D01*
X138938Y328168D02*
X138938Y333361D01*
X144131Y333361D02*
X144131Y328168D01*
X145429Y337558D02*
X148026Y337558D01*
X145429Y337558D02*
X145328Y337560D01*
X145228Y337566D01*
X145128Y337576D01*
X145028Y337589D01*
X144929Y337607D01*
X144830Y337628D01*
X144733Y337653D01*
X144636Y337682D01*
X144541Y337715D01*
X144447Y337751D01*
X144355Y337791D01*
X144264Y337834D01*
X144175Y337881D01*
X144088Y337931D01*
X144002Y337985D01*
X143919Y338042D01*
X143839Y338102D01*
X143760Y338165D01*
X143684Y338232D01*
X143611Y338301D01*
X143541Y338373D01*
X143473Y338447D01*
X143408Y338524D01*
X143347Y338604D01*
X143288Y338686D01*
X143233Y338770D01*
X143181Y338856D01*
X143132Y338944D01*
X143087Y339034D01*
X143045Y339126D01*
X143007Y339219D01*
X142973Y339314D01*
X142942Y339409D01*
X142915Y339506D01*
X142892Y339604D01*
X142872Y339703D01*
X142857Y339803D01*
X142845Y339903D01*
X142837Y340003D01*
X142833Y340104D01*
X142833Y340204D01*
X142837Y340305D01*
X142845Y340405D01*
X142857Y340505D01*
X142872Y340605D01*
X142892Y340704D01*
X142915Y340802D01*
X142942Y340899D01*
X142973Y340994D01*
X143007Y341089D01*
X143045Y341182D01*
X143087Y341274D01*
X143132Y341364D01*
X143181Y341452D01*
X143233Y341538D01*
X143288Y341622D01*
X143347Y341704D01*
X143408Y341784D01*
X143473Y341861D01*
X143541Y341935D01*
X143611Y342007D01*
X143684Y342076D01*
X143760Y342143D01*
X143839Y342206D01*
X143919Y342266D01*
X144002Y342323D01*
X144088Y342377D01*
X144175Y342427D01*
X144264Y342474D01*
X144355Y342517D01*
X144447Y342557D01*
X144541Y342593D01*
X144636Y342626D01*
X144733Y342655D01*
X144830Y342680D01*
X144929Y342701D01*
X145028Y342719D01*
X145128Y342732D01*
X145228Y342742D01*
X145328Y342748D01*
X145429Y342750D01*
X148026Y342750D01*
X148127Y342748D01*
X148227Y342742D01*
X148327Y342732D01*
X148427Y342719D01*
X148526Y342701D01*
X148625Y342680D01*
X148722Y342655D01*
X148819Y342626D01*
X148914Y342593D01*
X149008Y342557D01*
X149100Y342517D01*
X149191Y342474D01*
X149280Y342427D01*
X149367Y342377D01*
X149453Y342323D01*
X149536Y342266D01*
X149616Y342206D01*
X149695Y342143D01*
X149771Y342076D01*
X149844Y342007D01*
X149914Y341935D01*
X149982Y341861D01*
X150047Y341784D01*
X150108Y341704D01*
X150167Y341622D01*
X150222Y341538D01*
X150274Y341452D01*
X150323Y341364D01*
X150368Y341274D01*
X150410Y341182D01*
X150448Y341089D01*
X150482Y340994D01*
X150513Y340899D01*
X150540Y340802D01*
X150563Y340704D01*
X150583Y340605D01*
X150598Y340505D01*
X150610Y340405D01*
X150618Y340305D01*
X150622Y340204D01*
X150622Y340104D01*
X150618Y340003D01*
X150610Y339903D01*
X150598Y339803D01*
X150583Y339703D01*
X150563Y339604D01*
X150540Y339506D01*
X150513Y339409D01*
X150482Y339314D01*
X150448Y339219D01*
X150410Y339126D01*
X150368Y339034D01*
X150323Y338944D01*
X150274Y338856D01*
X150222Y338770D01*
X150167Y338686D01*
X150108Y338604D01*
X150047Y338524D01*
X149982Y338447D01*
X149914Y338373D01*
X149844Y338301D01*
X149771Y338232D01*
X149695Y338165D01*
X149616Y338102D01*
X149536Y338042D01*
X149453Y337985D01*
X149367Y337931D01*
X149280Y337881D01*
X149191Y337834D01*
X149100Y337791D01*
X149008Y337751D01*
X148914Y337715D01*
X148819Y337682D01*
X148722Y337653D01*
X148625Y337628D01*
X148526Y337607D01*
X148427Y337589D01*
X148327Y337576D01*
X148227Y337566D01*
X148127Y337560D01*
X148026Y337558D01*
X150622Y347911D02*
X142833Y347911D01*
X142833Y351806D01*
X144131Y351806D01*
X150622Y357425D02*
X150622Y360022D01*
X150622Y357425D02*
X150620Y357338D01*
X150614Y357250D01*
X150604Y357164D01*
X150591Y357077D01*
X150573Y356992D01*
X150552Y356907D01*
X150527Y356823D01*
X150498Y356741D01*
X150465Y356660D01*
X150429Y356580D01*
X150390Y356502D01*
X150346Y356426D01*
X150300Y356352D01*
X150250Y356281D01*
X150197Y356211D01*
X150141Y356144D01*
X150082Y356080D01*
X150020Y356018D01*
X149956Y355959D01*
X149889Y355903D01*
X149819Y355850D01*
X149748Y355800D01*
X149674Y355754D01*
X149598Y355710D01*
X149520Y355671D01*
X149440Y355635D01*
X149359Y355602D01*
X149277Y355573D01*
X149193Y355548D01*
X149108Y355527D01*
X149023Y355509D01*
X148936Y355496D01*
X148850Y355486D01*
X148762Y355480D01*
X148675Y355478D01*
X144780Y355478D01*
X144693Y355480D01*
X144605Y355486D01*
X144519Y355496D01*
X144432Y355509D01*
X144347Y355527D01*
X144262Y355548D01*
X144178Y355573D01*
X144096Y355602D01*
X144015Y355635D01*
X143935Y355671D01*
X143857Y355710D01*
X143781Y355754D01*
X143707Y355800D01*
X143636Y355850D01*
X143566Y355903D01*
X143499Y355959D01*
X143435Y356018D01*
X143373Y356080D01*
X143314Y356144D01*
X143258Y356211D01*
X143205Y356281D01*
X143155Y356352D01*
X143109Y356426D01*
X143065Y356502D01*
X143026Y356580D01*
X142990Y356660D01*
X142957Y356741D01*
X142928Y356823D01*
X142903Y356907D01*
X142882Y356992D01*
X142864Y357077D01*
X142851Y357164D01*
X142841Y357250D01*
X142835Y357338D01*
X142833Y357425D01*
X142833Y360022D01*
X150622Y366175D02*
X150622Y369420D01*
X150622Y366175D02*
X150620Y366088D01*
X150614Y366000D01*
X150604Y365914D01*
X150591Y365827D01*
X150573Y365742D01*
X150552Y365657D01*
X150527Y365573D01*
X150498Y365491D01*
X150465Y365410D01*
X150429Y365330D01*
X150390Y365252D01*
X150346Y365176D01*
X150300Y365102D01*
X150250Y365031D01*
X150197Y364961D01*
X150141Y364894D01*
X150082Y364830D01*
X150020Y364768D01*
X149956Y364709D01*
X149889Y364653D01*
X149819Y364600D01*
X149748Y364550D01*
X149674Y364504D01*
X149598Y364460D01*
X149520Y364421D01*
X149440Y364385D01*
X149359Y364352D01*
X149277Y364323D01*
X149193Y364298D01*
X149108Y364277D01*
X149023Y364259D01*
X148936Y364246D01*
X148850Y364236D01*
X148762Y364230D01*
X148675Y364228D01*
X145429Y364228D01*
X145328Y364230D01*
X145228Y364236D01*
X145128Y364246D01*
X145028Y364259D01*
X144929Y364277D01*
X144830Y364298D01*
X144733Y364323D01*
X144636Y364352D01*
X144541Y364385D01*
X144447Y364421D01*
X144355Y364461D01*
X144264Y364504D01*
X144175Y364551D01*
X144088Y364601D01*
X144002Y364655D01*
X143919Y364712D01*
X143839Y364772D01*
X143760Y364835D01*
X143684Y364902D01*
X143611Y364971D01*
X143541Y365043D01*
X143473Y365117D01*
X143408Y365194D01*
X143347Y365274D01*
X143288Y365356D01*
X143233Y365440D01*
X143181Y365526D01*
X143132Y365614D01*
X143087Y365704D01*
X143045Y365796D01*
X143007Y365889D01*
X142973Y365984D01*
X142942Y366079D01*
X142915Y366176D01*
X142892Y366274D01*
X142872Y366373D01*
X142857Y366473D01*
X142845Y366573D01*
X142837Y366673D01*
X142833Y366774D01*
X142833Y366874D01*
X142837Y366975D01*
X142845Y367075D01*
X142857Y367175D01*
X142872Y367275D01*
X142892Y367374D01*
X142915Y367472D01*
X142942Y367569D01*
X142973Y367664D01*
X143007Y367759D01*
X143045Y367852D01*
X143087Y367944D01*
X143132Y368034D01*
X143181Y368122D01*
X143233Y368208D01*
X143288Y368292D01*
X143347Y368374D01*
X143408Y368454D01*
X143473Y368531D01*
X143541Y368605D01*
X143611Y368677D01*
X143684Y368746D01*
X143760Y368813D01*
X143839Y368876D01*
X143919Y368936D01*
X144002Y368993D01*
X144088Y369047D01*
X144175Y369097D01*
X144264Y369144D01*
X144355Y369187D01*
X144447Y369227D01*
X144541Y369263D01*
X144636Y369296D01*
X144733Y369325D01*
X144830Y369350D01*
X144929Y369371D01*
X145028Y369389D01*
X145128Y369402D01*
X145228Y369412D01*
X145328Y369418D01*
X145429Y369420D01*
X146727Y369420D01*
X146727Y364228D01*
X150622Y379267D02*
X138938Y379267D01*
X150622Y379267D02*
X150622Y376022D01*
X150620Y375935D01*
X150614Y375847D01*
X150604Y375761D01*
X150591Y375674D01*
X150573Y375589D01*
X150552Y375504D01*
X150527Y375420D01*
X150498Y375338D01*
X150465Y375257D01*
X150429Y375177D01*
X150390Y375099D01*
X150346Y375023D01*
X150300Y374949D01*
X150250Y374878D01*
X150197Y374808D01*
X150141Y374741D01*
X150082Y374677D01*
X150020Y374615D01*
X149956Y374556D01*
X149889Y374500D01*
X149819Y374447D01*
X149748Y374397D01*
X149674Y374351D01*
X149598Y374307D01*
X149520Y374268D01*
X149440Y374232D01*
X149359Y374199D01*
X149277Y374170D01*
X149193Y374145D01*
X149108Y374124D01*
X149023Y374106D01*
X148936Y374093D01*
X148850Y374083D01*
X148762Y374077D01*
X148675Y374075D01*
X144780Y374075D01*
X144693Y374077D01*
X144605Y374083D01*
X144519Y374093D01*
X144432Y374106D01*
X144347Y374124D01*
X144262Y374145D01*
X144178Y374170D01*
X144096Y374199D01*
X144015Y374232D01*
X143935Y374268D01*
X143857Y374307D01*
X143781Y374351D01*
X143707Y374397D01*
X143636Y374447D01*
X143566Y374500D01*
X143499Y374556D01*
X143435Y374615D01*
X143373Y374677D01*
X143314Y374741D01*
X143258Y374808D01*
X143205Y374878D01*
X143155Y374949D01*
X143109Y375023D01*
X143065Y375099D01*
X143026Y375177D01*
X142990Y375257D01*
X142957Y375338D01*
X142928Y375420D01*
X142903Y375504D01*
X142882Y375589D01*
X142864Y375674D01*
X142851Y375761D01*
X142841Y375847D01*
X142835Y375935D01*
X142833Y376022D01*
X142833Y379267D01*
X138938Y251968D02*
X150622Y251968D01*
X150622Y258459D02*
X138938Y251968D01*
X138938Y258459D02*
X150622Y258459D01*
X146078Y265879D02*
X146078Y268800D01*
X146078Y265879D02*
X146080Y265785D01*
X146086Y265691D01*
X146095Y265598D01*
X146109Y265505D01*
X146126Y265413D01*
X146148Y265321D01*
X146172Y265231D01*
X146201Y265141D01*
X146233Y265053D01*
X146269Y264966D01*
X146309Y264881D01*
X146352Y264798D01*
X146398Y264716D01*
X146448Y264636D01*
X146501Y264559D01*
X146557Y264484D01*
X146616Y264411D01*
X146678Y264340D01*
X146743Y264272D01*
X146811Y264207D01*
X146882Y264145D01*
X146955Y264086D01*
X147030Y264030D01*
X147107Y263977D01*
X147187Y263927D01*
X147269Y263881D01*
X147352Y263838D01*
X147437Y263798D01*
X147524Y263762D01*
X147612Y263730D01*
X147702Y263701D01*
X147792Y263677D01*
X147884Y263655D01*
X147976Y263638D01*
X148069Y263624D01*
X148162Y263615D01*
X148256Y263609D01*
X148350Y263607D01*
X148444Y263609D01*
X148538Y263615D01*
X148631Y263624D01*
X148724Y263638D01*
X148816Y263655D01*
X148908Y263677D01*
X148998Y263701D01*
X149088Y263730D01*
X149176Y263762D01*
X149263Y263798D01*
X149348Y263838D01*
X149431Y263881D01*
X149513Y263927D01*
X149593Y263977D01*
X149670Y264030D01*
X149745Y264086D01*
X149818Y264145D01*
X149889Y264207D01*
X149957Y264272D01*
X150022Y264340D01*
X150084Y264411D01*
X150143Y264484D01*
X150199Y264559D01*
X150252Y264636D01*
X150302Y264716D01*
X150348Y264798D01*
X150391Y264881D01*
X150431Y264966D01*
X150467Y265053D01*
X150499Y265141D01*
X150528Y265231D01*
X150552Y265321D01*
X150574Y265413D01*
X150591Y265505D01*
X150605Y265598D01*
X150614Y265691D01*
X150620Y265785D01*
X150622Y265879D01*
X150622Y268800D01*
X144780Y268800D01*
X144693Y268798D01*
X144605Y268792D01*
X144519Y268782D01*
X144432Y268769D01*
X144347Y268751D01*
X144262Y268730D01*
X144178Y268705D01*
X144096Y268676D01*
X144015Y268643D01*
X143935Y268607D01*
X143857Y268568D01*
X143781Y268524D01*
X143707Y268478D01*
X143636Y268428D01*
X143566Y268375D01*
X143499Y268319D01*
X143435Y268260D01*
X143373Y268198D01*
X143314Y268134D01*
X143258Y268067D01*
X143205Y267997D01*
X143155Y267926D01*
X143109Y267852D01*
X143065Y267776D01*
X143026Y267698D01*
X142990Y267618D01*
X142957Y267537D01*
X142928Y267455D01*
X142903Y267371D01*
X142882Y267286D01*
X142864Y267201D01*
X142851Y267114D01*
X142841Y267028D01*
X142835Y266940D01*
X142833Y266853D01*
X142833Y264256D01*
X142833Y272986D02*
X142833Y276880D01*
X138938Y274284D02*
X148675Y274284D01*
X148762Y274286D01*
X148850Y274292D01*
X148936Y274302D01*
X149023Y274315D01*
X149108Y274333D01*
X149193Y274354D01*
X149277Y274379D01*
X149359Y274408D01*
X149440Y274441D01*
X149520Y274477D01*
X149598Y274516D01*
X149674Y274560D01*
X149748Y274606D01*
X149819Y274656D01*
X149889Y274709D01*
X149956Y274765D01*
X150020Y274824D01*
X150082Y274886D01*
X150141Y274950D01*
X150197Y275017D01*
X150250Y275087D01*
X150300Y275158D01*
X150346Y275232D01*
X150390Y275308D01*
X150429Y275386D01*
X150465Y275466D01*
X150498Y275547D01*
X150527Y275629D01*
X150552Y275713D01*
X150573Y275798D01*
X150591Y275883D01*
X150604Y275970D01*
X150614Y276056D01*
X150620Y276144D01*
X150622Y276231D01*
X150622Y276880D01*
X148675Y281573D02*
X142833Y281573D01*
X148675Y281573D02*
X148762Y281575D01*
X148850Y281581D01*
X148936Y281591D01*
X149023Y281604D01*
X149108Y281622D01*
X149193Y281643D01*
X149277Y281668D01*
X149359Y281697D01*
X149440Y281730D01*
X149520Y281766D01*
X149598Y281805D01*
X149674Y281849D01*
X149748Y281895D01*
X149819Y281945D01*
X149889Y281998D01*
X149956Y282054D01*
X150020Y282113D01*
X150082Y282175D01*
X150141Y282239D01*
X150197Y282306D01*
X150250Y282376D01*
X150300Y282447D01*
X150346Y282521D01*
X150390Y282597D01*
X150429Y282675D01*
X150465Y282755D01*
X150498Y282836D01*
X150527Y282918D01*
X150552Y283002D01*
X150573Y283087D01*
X150591Y283172D01*
X150604Y283259D01*
X150614Y283345D01*
X150620Y283433D01*
X150622Y283520D01*
X150622Y286766D01*
X142833Y286766D01*
X142833Y292307D02*
X150622Y292307D01*
X142833Y292307D02*
X142833Y296202D01*
X144131Y296202D01*
X146078Y302074D02*
X146078Y304995D01*
X146078Y302074D02*
X146080Y301980D01*
X146086Y301886D01*
X146095Y301793D01*
X146109Y301700D01*
X146126Y301608D01*
X146148Y301516D01*
X146172Y301426D01*
X146201Y301336D01*
X146233Y301248D01*
X146269Y301161D01*
X146309Y301076D01*
X146352Y300993D01*
X146398Y300911D01*
X146448Y300831D01*
X146501Y300754D01*
X146557Y300679D01*
X146616Y300606D01*
X146678Y300535D01*
X146743Y300467D01*
X146811Y300402D01*
X146882Y300340D01*
X146955Y300281D01*
X147030Y300225D01*
X147107Y300172D01*
X147187Y300122D01*
X147269Y300076D01*
X147352Y300033D01*
X147437Y299993D01*
X147524Y299957D01*
X147612Y299925D01*
X147702Y299896D01*
X147792Y299872D01*
X147884Y299850D01*
X147976Y299833D01*
X148069Y299819D01*
X148162Y299810D01*
X148256Y299804D01*
X148350Y299802D01*
X148444Y299804D01*
X148538Y299810D01*
X148631Y299819D01*
X148724Y299833D01*
X148816Y299850D01*
X148908Y299872D01*
X148998Y299896D01*
X149088Y299925D01*
X149176Y299957D01*
X149263Y299993D01*
X149348Y300033D01*
X149431Y300076D01*
X149513Y300122D01*
X149593Y300172D01*
X149670Y300225D01*
X149745Y300281D01*
X149818Y300340D01*
X149889Y300402D01*
X149957Y300467D01*
X150022Y300535D01*
X150084Y300606D01*
X150143Y300679D01*
X150199Y300754D01*
X150252Y300831D01*
X150302Y300911D01*
X150348Y300993D01*
X150391Y301076D01*
X150431Y301161D01*
X150467Y301248D01*
X150499Y301336D01*
X150528Y301426D01*
X150552Y301516D01*
X150574Y301608D01*
X150591Y301700D01*
X150605Y301793D01*
X150614Y301886D01*
X150620Y301980D01*
X150622Y302074D01*
X150622Y304995D01*
X144780Y304995D01*
X144693Y304993D01*
X144605Y304987D01*
X144519Y304977D01*
X144432Y304964D01*
X144347Y304946D01*
X144262Y304925D01*
X144178Y304900D01*
X144096Y304871D01*
X144015Y304838D01*
X143935Y304802D01*
X143857Y304763D01*
X143781Y304719D01*
X143707Y304673D01*
X143636Y304623D01*
X143566Y304570D01*
X143499Y304514D01*
X143435Y304455D01*
X143373Y304393D01*
X143314Y304329D01*
X143258Y304262D01*
X143205Y304192D01*
X143155Y304121D01*
X143109Y304047D01*
X143065Y303971D01*
X143026Y303893D01*
X142990Y303813D01*
X142957Y303732D01*
X142928Y303650D01*
X142903Y303566D01*
X142882Y303481D01*
X142864Y303396D01*
X142851Y303309D01*
X142841Y303223D01*
X142835Y303135D01*
X142833Y303048D01*
X142833Y300451D01*
X138938Y310298D02*
X148675Y310298D01*
X148762Y310300D01*
X148850Y310306D01*
X148936Y310316D01*
X149023Y310329D01*
X149108Y310347D01*
X149193Y310368D01*
X149277Y310393D01*
X149359Y310422D01*
X149440Y310455D01*
X149520Y310491D01*
X149598Y310530D01*
X149674Y310574D01*
X149748Y310620D01*
X149819Y310670D01*
X149889Y310723D01*
X149956Y310779D01*
X150020Y310838D01*
X150082Y310900D01*
X150141Y310964D01*
X150197Y311031D01*
X150250Y311101D01*
X150300Y311172D01*
X150346Y311246D01*
X150390Y311322D01*
X150429Y311400D01*
X150465Y311480D01*
X150498Y311561D01*
X150527Y311643D01*
X150552Y311727D01*
X150573Y311812D01*
X150591Y311897D01*
X150604Y311984D01*
X150614Y312070D01*
X150620Y312158D01*
X150622Y312245D01*
D13*
X157480Y318770D02*
X132080Y318770D01*
D11*
X138938Y480568D02*
X150622Y480568D01*
X138938Y480568D02*
X138938Y485761D01*
X144131Y485761D02*
X144131Y480568D01*
X145429Y489958D02*
X148026Y489958D01*
X145429Y489958D02*
X145328Y489960D01*
X145228Y489966D01*
X145128Y489976D01*
X145028Y489989D01*
X144929Y490007D01*
X144830Y490028D01*
X144733Y490053D01*
X144636Y490082D01*
X144541Y490115D01*
X144447Y490151D01*
X144355Y490191D01*
X144264Y490234D01*
X144175Y490281D01*
X144088Y490331D01*
X144002Y490385D01*
X143919Y490442D01*
X143839Y490502D01*
X143760Y490565D01*
X143684Y490632D01*
X143611Y490701D01*
X143541Y490773D01*
X143473Y490847D01*
X143408Y490924D01*
X143347Y491004D01*
X143288Y491086D01*
X143233Y491170D01*
X143181Y491256D01*
X143132Y491344D01*
X143087Y491434D01*
X143045Y491526D01*
X143007Y491619D01*
X142973Y491714D01*
X142942Y491809D01*
X142915Y491906D01*
X142892Y492004D01*
X142872Y492103D01*
X142857Y492203D01*
X142845Y492303D01*
X142837Y492403D01*
X142833Y492504D01*
X142833Y492604D01*
X142837Y492705D01*
X142845Y492805D01*
X142857Y492905D01*
X142872Y493005D01*
X142892Y493104D01*
X142915Y493202D01*
X142942Y493299D01*
X142973Y493394D01*
X143007Y493489D01*
X143045Y493582D01*
X143087Y493674D01*
X143132Y493764D01*
X143181Y493852D01*
X143233Y493938D01*
X143288Y494022D01*
X143347Y494104D01*
X143408Y494184D01*
X143473Y494261D01*
X143541Y494335D01*
X143611Y494407D01*
X143684Y494476D01*
X143760Y494543D01*
X143839Y494606D01*
X143919Y494666D01*
X144002Y494723D01*
X144088Y494777D01*
X144175Y494827D01*
X144264Y494874D01*
X144355Y494917D01*
X144447Y494957D01*
X144541Y494993D01*
X144636Y495026D01*
X144733Y495055D01*
X144830Y495080D01*
X144929Y495101D01*
X145028Y495119D01*
X145128Y495132D01*
X145228Y495142D01*
X145328Y495148D01*
X145429Y495150D01*
X148026Y495150D01*
X148127Y495148D01*
X148227Y495142D01*
X148327Y495132D01*
X148427Y495119D01*
X148526Y495101D01*
X148625Y495080D01*
X148722Y495055D01*
X148819Y495026D01*
X148914Y494993D01*
X149008Y494957D01*
X149100Y494917D01*
X149191Y494874D01*
X149280Y494827D01*
X149367Y494777D01*
X149453Y494723D01*
X149536Y494666D01*
X149616Y494606D01*
X149695Y494543D01*
X149771Y494476D01*
X149844Y494407D01*
X149914Y494335D01*
X149982Y494261D01*
X150047Y494184D01*
X150108Y494104D01*
X150167Y494022D01*
X150222Y493938D01*
X150274Y493852D01*
X150323Y493764D01*
X150368Y493674D01*
X150410Y493582D01*
X150448Y493489D01*
X150482Y493394D01*
X150513Y493299D01*
X150540Y493202D01*
X150563Y493104D01*
X150583Y493005D01*
X150598Y492905D01*
X150610Y492805D01*
X150618Y492705D01*
X150622Y492604D01*
X150622Y492504D01*
X150618Y492403D01*
X150610Y492303D01*
X150598Y492203D01*
X150583Y492103D01*
X150563Y492004D01*
X150540Y491906D01*
X150513Y491809D01*
X150482Y491714D01*
X150448Y491619D01*
X150410Y491526D01*
X150368Y491434D01*
X150323Y491344D01*
X150274Y491256D01*
X150222Y491170D01*
X150167Y491086D01*
X150108Y491004D01*
X150047Y490924D01*
X149982Y490847D01*
X149914Y490773D01*
X149844Y490701D01*
X149771Y490632D01*
X149695Y490565D01*
X149616Y490502D01*
X149536Y490442D01*
X149453Y490385D01*
X149367Y490331D01*
X149280Y490281D01*
X149191Y490234D01*
X149100Y490191D01*
X149008Y490151D01*
X148914Y490115D01*
X148819Y490082D01*
X148722Y490053D01*
X148625Y490028D01*
X148526Y490007D01*
X148427Y489989D01*
X148327Y489976D01*
X148227Y489966D01*
X148127Y489960D01*
X148026Y489958D01*
X150622Y500311D02*
X142833Y500311D01*
X142833Y504206D01*
X144131Y504206D01*
X150622Y509825D02*
X150622Y512422D01*
X150622Y509825D02*
X150620Y509738D01*
X150614Y509650D01*
X150604Y509564D01*
X150591Y509477D01*
X150573Y509392D01*
X150552Y509307D01*
X150527Y509223D01*
X150498Y509141D01*
X150465Y509060D01*
X150429Y508980D01*
X150390Y508902D01*
X150346Y508826D01*
X150300Y508752D01*
X150250Y508681D01*
X150197Y508611D01*
X150141Y508544D01*
X150082Y508480D01*
X150020Y508418D01*
X149956Y508359D01*
X149889Y508303D01*
X149819Y508250D01*
X149748Y508200D01*
X149674Y508154D01*
X149598Y508110D01*
X149520Y508071D01*
X149440Y508035D01*
X149359Y508002D01*
X149277Y507973D01*
X149193Y507948D01*
X149108Y507927D01*
X149023Y507909D01*
X148936Y507896D01*
X148850Y507886D01*
X148762Y507880D01*
X148675Y507878D01*
X144780Y507878D01*
X144693Y507880D01*
X144605Y507886D01*
X144519Y507896D01*
X144432Y507909D01*
X144347Y507927D01*
X144262Y507948D01*
X144178Y507973D01*
X144096Y508002D01*
X144015Y508035D01*
X143935Y508071D01*
X143857Y508110D01*
X143781Y508154D01*
X143707Y508200D01*
X143636Y508250D01*
X143566Y508303D01*
X143499Y508359D01*
X143435Y508418D01*
X143373Y508480D01*
X143314Y508544D01*
X143258Y508611D01*
X143205Y508681D01*
X143155Y508752D01*
X143109Y508826D01*
X143065Y508902D01*
X143026Y508980D01*
X142990Y509060D01*
X142957Y509141D01*
X142928Y509223D01*
X142903Y509307D01*
X142882Y509392D01*
X142864Y509477D01*
X142851Y509564D01*
X142841Y509650D01*
X142835Y509738D01*
X142833Y509825D01*
X142833Y512422D01*
X150622Y518575D02*
X150622Y521820D01*
X150622Y518575D02*
X150620Y518488D01*
X150614Y518400D01*
X150604Y518314D01*
X150591Y518227D01*
X150573Y518142D01*
X150552Y518057D01*
X150527Y517973D01*
X150498Y517891D01*
X150465Y517810D01*
X150429Y517730D01*
X150390Y517652D01*
X150346Y517576D01*
X150300Y517502D01*
X150250Y517431D01*
X150197Y517361D01*
X150141Y517294D01*
X150082Y517230D01*
X150020Y517168D01*
X149956Y517109D01*
X149889Y517053D01*
X149819Y517000D01*
X149748Y516950D01*
X149674Y516904D01*
X149598Y516860D01*
X149520Y516821D01*
X149440Y516785D01*
X149359Y516752D01*
X149277Y516723D01*
X149193Y516698D01*
X149108Y516677D01*
X149023Y516659D01*
X148936Y516646D01*
X148850Y516636D01*
X148762Y516630D01*
X148675Y516628D01*
X145429Y516628D01*
X145328Y516630D01*
X145228Y516636D01*
X145128Y516646D01*
X145028Y516659D01*
X144929Y516677D01*
X144830Y516698D01*
X144733Y516723D01*
X144636Y516752D01*
X144541Y516785D01*
X144447Y516821D01*
X144355Y516861D01*
X144264Y516904D01*
X144175Y516951D01*
X144088Y517001D01*
X144002Y517055D01*
X143919Y517112D01*
X143839Y517172D01*
X143760Y517235D01*
X143684Y517302D01*
X143611Y517371D01*
X143541Y517443D01*
X143473Y517517D01*
X143408Y517594D01*
X143347Y517674D01*
X143288Y517756D01*
X143233Y517840D01*
X143181Y517926D01*
X143132Y518014D01*
X143087Y518104D01*
X143045Y518196D01*
X143007Y518289D01*
X142973Y518384D01*
X142942Y518479D01*
X142915Y518576D01*
X142892Y518674D01*
X142872Y518773D01*
X142857Y518873D01*
X142845Y518973D01*
X142837Y519073D01*
X142833Y519174D01*
X142833Y519274D01*
X142837Y519375D01*
X142845Y519475D01*
X142857Y519575D01*
X142872Y519675D01*
X142892Y519774D01*
X142915Y519872D01*
X142942Y519969D01*
X142973Y520064D01*
X143007Y520159D01*
X143045Y520252D01*
X143087Y520344D01*
X143132Y520434D01*
X143181Y520522D01*
X143233Y520608D01*
X143288Y520692D01*
X143347Y520774D01*
X143408Y520854D01*
X143473Y520931D01*
X143541Y521005D01*
X143611Y521077D01*
X143684Y521146D01*
X143760Y521213D01*
X143839Y521276D01*
X143919Y521336D01*
X144002Y521393D01*
X144088Y521447D01*
X144175Y521497D01*
X144264Y521544D01*
X144355Y521587D01*
X144447Y521627D01*
X144541Y521663D01*
X144636Y521696D01*
X144733Y521725D01*
X144830Y521750D01*
X144929Y521771D01*
X145028Y521789D01*
X145128Y521802D01*
X145228Y521812D01*
X145328Y521818D01*
X145429Y521820D01*
X146727Y521820D01*
X146727Y516628D01*
X150622Y531667D02*
X138938Y531667D01*
X150622Y531667D02*
X150622Y528422D01*
X150620Y528335D01*
X150614Y528247D01*
X150604Y528161D01*
X150591Y528074D01*
X150573Y527989D01*
X150552Y527904D01*
X150527Y527820D01*
X150498Y527738D01*
X150465Y527657D01*
X150429Y527577D01*
X150390Y527499D01*
X150346Y527423D01*
X150300Y527349D01*
X150250Y527278D01*
X150197Y527208D01*
X150141Y527141D01*
X150082Y527077D01*
X150020Y527015D01*
X149956Y526956D01*
X149889Y526900D01*
X149819Y526847D01*
X149748Y526797D01*
X149674Y526751D01*
X149598Y526707D01*
X149520Y526668D01*
X149440Y526632D01*
X149359Y526599D01*
X149277Y526570D01*
X149193Y526545D01*
X149108Y526524D01*
X149023Y526506D01*
X148936Y526493D01*
X148850Y526483D01*
X148762Y526477D01*
X148675Y526475D01*
X144780Y526475D01*
X144693Y526477D01*
X144605Y526483D01*
X144519Y526493D01*
X144432Y526506D01*
X144347Y526524D01*
X144262Y526545D01*
X144178Y526570D01*
X144096Y526599D01*
X144015Y526632D01*
X143935Y526668D01*
X143857Y526707D01*
X143781Y526751D01*
X143707Y526797D01*
X143636Y526847D01*
X143566Y526900D01*
X143499Y526956D01*
X143435Y527015D01*
X143373Y527077D01*
X143314Y527141D01*
X143258Y527208D01*
X143205Y527278D01*
X143155Y527349D01*
X143109Y527423D01*
X143065Y527499D01*
X143026Y527577D01*
X142990Y527657D01*
X142957Y527738D01*
X142928Y527820D01*
X142903Y527904D01*
X142882Y527989D01*
X142864Y528074D01*
X142851Y528161D01*
X142841Y528247D01*
X142835Y528335D01*
X142833Y528422D01*
X142833Y531667D01*
X138938Y404368D02*
X150622Y404368D01*
X150622Y410859D02*
X138938Y404368D01*
X138938Y410859D02*
X150622Y410859D01*
X146078Y418279D02*
X146078Y421200D01*
X146078Y418279D02*
X146080Y418185D01*
X146086Y418091D01*
X146095Y417998D01*
X146109Y417905D01*
X146126Y417813D01*
X146148Y417721D01*
X146172Y417631D01*
X146201Y417541D01*
X146233Y417453D01*
X146269Y417366D01*
X146309Y417281D01*
X146352Y417198D01*
X146398Y417116D01*
X146448Y417036D01*
X146501Y416959D01*
X146557Y416884D01*
X146616Y416811D01*
X146678Y416740D01*
X146743Y416672D01*
X146811Y416607D01*
X146882Y416545D01*
X146955Y416486D01*
X147030Y416430D01*
X147107Y416377D01*
X147187Y416327D01*
X147269Y416281D01*
X147352Y416238D01*
X147437Y416198D01*
X147524Y416162D01*
X147612Y416130D01*
X147702Y416101D01*
X147792Y416077D01*
X147884Y416055D01*
X147976Y416038D01*
X148069Y416024D01*
X148162Y416015D01*
X148256Y416009D01*
X148350Y416007D01*
X148444Y416009D01*
X148538Y416015D01*
X148631Y416024D01*
X148724Y416038D01*
X148816Y416055D01*
X148908Y416077D01*
X148998Y416101D01*
X149088Y416130D01*
X149176Y416162D01*
X149263Y416198D01*
X149348Y416238D01*
X149431Y416281D01*
X149513Y416327D01*
X149593Y416377D01*
X149670Y416430D01*
X149745Y416486D01*
X149818Y416545D01*
X149889Y416607D01*
X149957Y416672D01*
X150022Y416740D01*
X150084Y416811D01*
X150143Y416884D01*
X150199Y416959D01*
X150252Y417036D01*
X150302Y417116D01*
X150348Y417198D01*
X150391Y417281D01*
X150431Y417366D01*
X150467Y417453D01*
X150499Y417541D01*
X150528Y417631D01*
X150552Y417721D01*
X150574Y417813D01*
X150591Y417905D01*
X150605Y417998D01*
X150614Y418091D01*
X150620Y418185D01*
X150622Y418279D01*
X150622Y421200D01*
X144780Y421200D01*
X144693Y421198D01*
X144605Y421192D01*
X144519Y421182D01*
X144432Y421169D01*
X144347Y421151D01*
X144262Y421130D01*
X144178Y421105D01*
X144096Y421076D01*
X144015Y421043D01*
X143935Y421007D01*
X143857Y420968D01*
X143781Y420924D01*
X143707Y420878D01*
X143636Y420828D01*
X143566Y420775D01*
X143499Y420719D01*
X143435Y420660D01*
X143373Y420598D01*
X143314Y420534D01*
X143258Y420467D01*
X143205Y420397D01*
X143155Y420326D01*
X143109Y420252D01*
X143065Y420176D01*
X143026Y420098D01*
X142990Y420018D01*
X142957Y419937D01*
X142928Y419855D01*
X142903Y419771D01*
X142882Y419686D01*
X142864Y419601D01*
X142851Y419514D01*
X142841Y419428D01*
X142835Y419340D01*
X142833Y419253D01*
X142833Y416656D01*
X142833Y425386D02*
X142833Y429280D01*
X138938Y426684D02*
X148675Y426684D01*
X148762Y426686D01*
X148850Y426692D01*
X148936Y426702D01*
X149023Y426715D01*
X149108Y426733D01*
X149193Y426754D01*
X149277Y426779D01*
X149359Y426808D01*
X149440Y426841D01*
X149520Y426877D01*
X149598Y426916D01*
X149674Y426960D01*
X149748Y427006D01*
X149819Y427056D01*
X149889Y427109D01*
X149956Y427165D01*
X150020Y427224D01*
X150082Y427286D01*
X150141Y427350D01*
X150197Y427417D01*
X150250Y427487D01*
X150300Y427558D01*
X150346Y427632D01*
X150390Y427708D01*
X150429Y427786D01*
X150465Y427866D01*
X150498Y427947D01*
X150527Y428029D01*
X150552Y428113D01*
X150573Y428198D01*
X150591Y428283D01*
X150604Y428370D01*
X150614Y428456D01*
X150620Y428544D01*
X150622Y428631D01*
X150622Y429280D01*
X148675Y433973D02*
X142833Y433973D01*
X148675Y433973D02*
X148762Y433975D01*
X148850Y433981D01*
X148936Y433991D01*
X149023Y434004D01*
X149108Y434022D01*
X149193Y434043D01*
X149277Y434068D01*
X149359Y434097D01*
X149440Y434130D01*
X149520Y434166D01*
X149598Y434205D01*
X149674Y434249D01*
X149748Y434295D01*
X149819Y434345D01*
X149889Y434398D01*
X149956Y434454D01*
X150020Y434513D01*
X150082Y434575D01*
X150141Y434639D01*
X150197Y434706D01*
X150250Y434776D01*
X150300Y434847D01*
X150346Y434921D01*
X150390Y434997D01*
X150429Y435075D01*
X150465Y435155D01*
X150498Y435236D01*
X150527Y435318D01*
X150552Y435402D01*
X150573Y435487D01*
X150591Y435572D01*
X150604Y435659D01*
X150614Y435745D01*
X150620Y435833D01*
X150622Y435920D01*
X150622Y439166D01*
X142833Y439166D01*
X142833Y444707D02*
X150622Y444707D01*
X142833Y444707D02*
X142833Y448602D01*
X144131Y448602D01*
X146078Y454474D02*
X146078Y457395D01*
X146078Y454474D02*
X146080Y454380D01*
X146086Y454286D01*
X146095Y454193D01*
X146109Y454100D01*
X146126Y454008D01*
X146148Y453916D01*
X146172Y453826D01*
X146201Y453736D01*
X146233Y453648D01*
X146269Y453561D01*
X146309Y453476D01*
X146352Y453393D01*
X146398Y453311D01*
X146448Y453231D01*
X146501Y453154D01*
X146557Y453079D01*
X146616Y453006D01*
X146678Y452935D01*
X146743Y452867D01*
X146811Y452802D01*
X146882Y452740D01*
X146955Y452681D01*
X147030Y452625D01*
X147107Y452572D01*
X147187Y452522D01*
X147269Y452476D01*
X147352Y452433D01*
X147437Y452393D01*
X147524Y452357D01*
X147612Y452325D01*
X147702Y452296D01*
X147792Y452272D01*
X147884Y452250D01*
X147976Y452233D01*
X148069Y452219D01*
X148162Y452210D01*
X148256Y452204D01*
X148350Y452202D01*
X148444Y452204D01*
X148538Y452210D01*
X148631Y452219D01*
X148724Y452233D01*
X148816Y452250D01*
X148908Y452272D01*
X148998Y452296D01*
X149088Y452325D01*
X149176Y452357D01*
X149263Y452393D01*
X149348Y452433D01*
X149431Y452476D01*
X149513Y452522D01*
X149593Y452572D01*
X149670Y452625D01*
X149745Y452681D01*
X149818Y452740D01*
X149889Y452802D01*
X149957Y452867D01*
X150022Y452935D01*
X150084Y453006D01*
X150143Y453079D01*
X150199Y453154D01*
X150252Y453231D01*
X150302Y453311D01*
X150348Y453393D01*
X150391Y453476D01*
X150431Y453561D01*
X150467Y453648D01*
X150499Y453736D01*
X150528Y453826D01*
X150552Y453916D01*
X150574Y454008D01*
X150591Y454100D01*
X150605Y454193D01*
X150614Y454286D01*
X150620Y454380D01*
X150622Y454474D01*
X150622Y457395D01*
X144780Y457395D01*
X144693Y457393D01*
X144605Y457387D01*
X144519Y457377D01*
X144432Y457364D01*
X144347Y457346D01*
X144262Y457325D01*
X144178Y457300D01*
X144096Y457271D01*
X144015Y457238D01*
X143935Y457202D01*
X143857Y457163D01*
X143781Y457119D01*
X143707Y457073D01*
X143636Y457023D01*
X143566Y456970D01*
X143499Y456914D01*
X143435Y456855D01*
X143373Y456793D01*
X143314Y456729D01*
X143258Y456662D01*
X143205Y456592D01*
X143155Y456521D01*
X143109Y456447D01*
X143065Y456371D01*
X143026Y456293D01*
X142990Y456213D01*
X142957Y456132D01*
X142928Y456050D01*
X142903Y455966D01*
X142882Y455881D01*
X142864Y455796D01*
X142851Y455709D01*
X142841Y455623D01*
X142835Y455535D01*
X142833Y455448D01*
X142833Y452851D01*
X138938Y462698D02*
X148675Y462698D01*
X148762Y462700D01*
X148850Y462706D01*
X148936Y462716D01*
X149023Y462729D01*
X149108Y462747D01*
X149193Y462768D01*
X149277Y462793D01*
X149359Y462822D01*
X149440Y462855D01*
X149520Y462891D01*
X149598Y462930D01*
X149674Y462974D01*
X149748Y463020D01*
X149819Y463070D01*
X149889Y463123D01*
X149956Y463179D01*
X150020Y463238D01*
X150082Y463300D01*
X150141Y463364D01*
X150197Y463431D01*
X150250Y463501D01*
X150300Y463572D01*
X150346Y463646D01*
X150390Y463722D01*
X150429Y463800D01*
X150465Y463880D01*
X150498Y463961D01*
X150527Y464043D01*
X150552Y464127D01*
X150573Y464212D01*
X150591Y464297D01*
X150604Y464384D01*
X150614Y464470D01*
X150620Y464558D01*
X150622Y464645D01*
D13*
X157480Y471170D02*
X132080Y471170D01*
D12*
X179324Y592074D02*
X179324Y627126D01*
X189061Y627126D01*
X189298Y627123D01*
X189535Y627114D01*
X189772Y627100D01*
X190008Y627080D01*
X190244Y627054D01*
X190479Y627022D01*
X190713Y626985D01*
X190946Y626942D01*
X191178Y626893D01*
X191409Y626839D01*
X191638Y626779D01*
X191866Y626713D01*
X192092Y626642D01*
X192317Y626566D01*
X192539Y626484D01*
X192760Y626396D01*
X192978Y626303D01*
X193194Y626205D01*
X193407Y626102D01*
X193618Y625994D01*
X193826Y625880D01*
X194032Y625762D01*
X194234Y625638D01*
X194434Y625510D01*
X194630Y625376D01*
X194823Y625238D01*
X195012Y625096D01*
X195198Y624949D01*
X195380Y624797D01*
X195559Y624641D01*
X195733Y624480D01*
X195904Y624316D01*
X196071Y624147D01*
X196233Y623975D01*
X196391Y623798D01*
X196545Y623617D01*
X196695Y623433D01*
X196840Y623246D01*
X196980Y623055D01*
X197116Y622860D01*
X197246Y622662D01*
X197372Y622461D01*
X197493Y622258D01*
X197610Y622051D01*
X197721Y621841D01*
X197826Y621629D01*
X197927Y621414D01*
X198022Y621197D01*
X198112Y620978D01*
X198197Y620756D01*
X198276Y620533D01*
X198350Y620308D01*
X198419Y620080D01*
X198481Y619852D01*
X198539Y619622D01*
X198590Y619390D01*
X198636Y619158D01*
X198676Y618924D01*
X198711Y618689D01*
X198740Y618454D01*
X198763Y618218D01*
X198780Y617981D01*
X198792Y617745D01*
X198797Y617508D01*
X198797Y617270D01*
X198792Y617033D01*
X198780Y616797D01*
X198763Y616560D01*
X198740Y616324D01*
X198711Y616089D01*
X198676Y615854D01*
X198636Y615620D01*
X198590Y615388D01*
X198539Y615156D01*
X198481Y614926D01*
X198419Y614698D01*
X198350Y614470D01*
X198276Y614245D01*
X198197Y614022D01*
X198112Y613800D01*
X198022Y613581D01*
X197927Y613364D01*
X197826Y613149D01*
X197721Y612937D01*
X197610Y612727D01*
X197493Y612521D01*
X197372Y612317D01*
X197246Y612116D01*
X197116Y611918D01*
X196980Y611723D01*
X196840Y611532D01*
X196695Y611345D01*
X196545Y611161D01*
X196391Y610980D01*
X196233Y610803D01*
X196071Y610631D01*
X195904Y610462D01*
X195733Y610298D01*
X195559Y610137D01*
X195380Y609981D01*
X195198Y609829D01*
X195012Y609682D01*
X194823Y609540D01*
X194630Y609402D01*
X194434Y609268D01*
X194234Y609140D01*
X194032Y609016D01*
X193826Y608898D01*
X193618Y608784D01*
X193407Y608676D01*
X193194Y608573D01*
X192978Y608475D01*
X192760Y608382D01*
X192539Y608294D01*
X192317Y608212D01*
X192092Y608136D01*
X191866Y608065D01*
X191638Y607999D01*
X191409Y607939D01*
X191178Y607885D01*
X190946Y607836D01*
X190713Y607793D01*
X190479Y607756D01*
X190244Y607724D01*
X190008Y607698D01*
X189772Y607678D01*
X189535Y607664D01*
X189298Y607655D01*
X189061Y607652D01*
X189061Y607653D02*
X179324Y607653D01*
X207059Y607653D02*
X207059Y599863D01*
X207060Y607653D02*
X207062Y607843D01*
X207069Y608032D01*
X207081Y608222D01*
X207097Y608411D01*
X207118Y608599D01*
X207143Y608787D01*
X207173Y608974D01*
X207207Y609161D01*
X207246Y609347D01*
X207290Y609531D01*
X207338Y609715D01*
X207390Y609897D01*
X207447Y610078D01*
X207508Y610257D01*
X207574Y610435D01*
X207644Y610612D01*
X207718Y610786D01*
X207796Y610959D01*
X207879Y611130D01*
X207966Y611299D01*
X208057Y611465D01*
X208151Y611629D01*
X208250Y611791D01*
X208353Y611951D01*
X208460Y612108D01*
X208570Y612262D01*
X208684Y612413D01*
X208802Y612562D01*
X208923Y612708D01*
X209048Y612851D01*
X209176Y612990D01*
X209308Y613127D01*
X209443Y613260D01*
X209581Y613390D01*
X209722Y613517D01*
X209867Y613640D01*
X210014Y613760D01*
X210164Y613875D01*
X210317Y613988D01*
X210473Y614096D01*
X210631Y614201D01*
X210791Y614302D01*
X210955Y614398D01*
X211120Y614491D01*
X211288Y614580D01*
X211457Y614665D01*
X211629Y614745D01*
X211803Y614822D01*
X211978Y614894D01*
X212155Y614961D01*
X212334Y615025D01*
X212514Y615084D01*
X212696Y615139D01*
X212879Y615189D01*
X213063Y615234D01*
X213248Y615276D01*
X213434Y615312D01*
X213621Y615345D01*
X213809Y615372D01*
X213997Y615395D01*
X214186Y615414D01*
X214375Y615428D01*
X214565Y615437D01*
X214754Y615441D01*
X214944Y615441D01*
X215133Y615437D01*
X215323Y615428D01*
X215512Y615414D01*
X215701Y615395D01*
X215889Y615372D01*
X216077Y615345D01*
X216264Y615312D01*
X216450Y615276D01*
X216635Y615234D01*
X216819Y615189D01*
X217002Y615139D01*
X217184Y615084D01*
X217364Y615025D01*
X217543Y614961D01*
X217720Y614894D01*
X217895Y614822D01*
X218069Y614745D01*
X218241Y614665D01*
X218410Y614580D01*
X218578Y614491D01*
X218744Y614398D01*
X218907Y614302D01*
X219067Y614201D01*
X219225Y614096D01*
X219381Y613988D01*
X219534Y613875D01*
X219684Y613760D01*
X219831Y613640D01*
X219976Y613517D01*
X220117Y613390D01*
X220255Y613260D01*
X220390Y613127D01*
X220522Y612990D01*
X220650Y612851D01*
X220775Y612708D01*
X220896Y612562D01*
X221014Y612413D01*
X221128Y612262D01*
X221238Y612108D01*
X221345Y611951D01*
X221448Y611791D01*
X221547Y611629D01*
X221641Y611465D01*
X221732Y611299D01*
X221819Y611130D01*
X221902Y610959D01*
X221980Y610786D01*
X222054Y610612D01*
X222124Y610435D01*
X222190Y610257D01*
X222251Y610078D01*
X222308Y609897D01*
X222360Y609715D01*
X222408Y609531D01*
X222452Y609347D01*
X222491Y609161D01*
X222525Y608974D01*
X222555Y608787D01*
X222580Y608599D01*
X222601Y608411D01*
X222617Y608222D01*
X222629Y608032D01*
X222636Y607843D01*
X222638Y607653D01*
X222638Y599863D01*
X222636Y599673D01*
X222629Y599484D01*
X222617Y599294D01*
X222601Y599105D01*
X222580Y598917D01*
X222555Y598729D01*
X222525Y598542D01*
X222491Y598355D01*
X222452Y598169D01*
X222408Y597985D01*
X222360Y597801D01*
X222308Y597619D01*
X222251Y597438D01*
X222190Y597259D01*
X222124Y597081D01*
X222054Y596904D01*
X221980Y596730D01*
X221902Y596557D01*
X221819Y596386D01*
X221732Y596217D01*
X221641Y596051D01*
X221547Y595887D01*
X221448Y595725D01*
X221345Y595565D01*
X221238Y595408D01*
X221128Y595254D01*
X221014Y595103D01*
X220896Y594954D01*
X220775Y594808D01*
X220650Y594665D01*
X220522Y594526D01*
X220390Y594389D01*
X220255Y594256D01*
X220117Y594126D01*
X219976Y593999D01*
X219831Y593876D01*
X219684Y593756D01*
X219534Y593641D01*
X219381Y593528D01*
X219225Y593420D01*
X219067Y593315D01*
X218907Y593214D01*
X218744Y593118D01*
X218578Y593025D01*
X218410Y592936D01*
X218241Y592851D01*
X218069Y592771D01*
X217895Y592694D01*
X217720Y592622D01*
X217543Y592555D01*
X217364Y592491D01*
X217184Y592432D01*
X217002Y592377D01*
X216819Y592327D01*
X216635Y592282D01*
X216450Y592240D01*
X216264Y592204D01*
X216077Y592171D01*
X215889Y592144D01*
X215701Y592121D01*
X215512Y592102D01*
X215323Y592088D01*
X215133Y592079D01*
X214944Y592075D01*
X214754Y592075D01*
X214565Y592079D01*
X214375Y592088D01*
X214186Y592102D01*
X213997Y592121D01*
X213809Y592144D01*
X213621Y592171D01*
X213434Y592204D01*
X213248Y592240D01*
X213063Y592282D01*
X212879Y592327D01*
X212696Y592377D01*
X212514Y592432D01*
X212334Y592491D01*
X212155Y592555D01*
X211978Y592622D01*
X211803Y592694D01*
X211629Y592771D01*
X211457Y592851D01*
X211288Y592936D01*
X211120Y593025D01*
X210955Y593118D01*
X210791Y593214D01*
X210631Y593315D01*
X210473Y593420D01*
X210317Y593528D01*
X210164Y593641D01*
X210014Y593756D01*
X209867Y593876D01*
X209722Y593999D01*
X209581Y594126D01*
X209443Y594256D01*
X209308Y594389D01*
X209176Y594526D01*
X209048Y594665D01*
X208923Y594808D01*
X208802Y594954D01*
X208684Y595103D01*
X208570Y595254D01*
X208460Y595408D01*
X208353Y595565D01*
X208250Y595725D01*
X208151Y595887D01*
X208057Y596051D01*
X207966Y596217D01*
X207879Y596386D01*
X207796Y596557D01*
X207718Y596730D01*
X207644Y596904D01*
X207574Y597081D01*
X207508Y597259D01*
X207447Y597438D01*
X207390Y597619D01*
X207338Y597801D01*
X207290Y597985D01*
X207246Y598169D01*
X207207Y598355D01*
X207173Y598542D01*
X207143Y598729D01*
X207118Y598917D01*
X207097Y599105D01*
X207081Y599294D01*
X207069Y599484D01*
X207062Y599673D01*
X207060Y599863D01*
X230787Y615442D02*
X236629Y592074D01*
X242471Y607653D01*
X248313Y592074D01*
X254155Y615442D01*
X268146Y592074D02*
X277883Y592074D01*
X268146Y592074D02*
X267996Y592076D01*
X267845Y592082D01*
X267695Y592091D01*
X267545Y592105D01*
X267396Y592122D01*
X267247Y592144D01*
X267099Y592169D01*
X266951Y592198D01*
X266804Y592230D01*
X266658Y592267D01*
X266513Y592307D01*
X266369Y592351D01*
X266227Y592398D01*
X266085Y592450D01*
X265945Y592504D01*
X265807Y592563D01*
X265669Y592625D01*
X265534Y592690D01*
X265400Y592759D01*
X265269Y592832D01*
X265139Y592908D01*
X265011Y592987D01*
X264885Y593069D01*
X264761Y593155D01*
X264640Y593243D01*
X264520Y593335D01*
X264404Y593430D01*
X264289Y593528D01*
X264178Y593629D01*
X264069Y593732D01*
X263962Y593839D01*
X263859Y593948D01*
X263758Y594059D01*
X263660Y594174D01*
X263565Y594290D01*
X263473Y594410D01*
X263385Y594531D01*
X263299Y594655D01*
X263217Y594781D01*
X263138Y594909D01*
X263062Y595039D01*
X262989Y595170D01*
X262920Y595304D01*
X262855Y595439D01*
X262793Y595577D01*
X262734Y595715D01*
X262680Y595855D01*
X262628Y595997D01*
X262581Y596139D01*
X262537Y596283D01*
X262497Y596428D01*
X262460Y596574D01*
X262428Y596721D01*
X262399Y596869D01*
X262374Y597017D01*
X262352Y597166D01*
X262335Y597315D01*
X262321Y597465D01*
X262312Y597615D01*
X262306Y597766D01*
X262304Y597916D01*
X262304Y607653D01*
X262305Y607653D02*
X262307Y607843D01*
X262314Y608032D01*
X262326Y608222D01*
X262342Y608411D01*
X262363Y608599D01*
X262388Y608787D01*
X262418Y608974D01*
X262452Y609161D01*
X262491Y609347D01*
X262535Y609531D01*
X262583Y609715D01*
X262635Y609897D01*
X262692Y610078D01*
X262753Y610257D01*
X262819Y610435D01*
X262889Y610612D01*
X262963Y610786D01*
X263041Y610959D01*
X263124Y611130D01*
X263211Y611299D01*
X263302Y611465D01*
X263396Y611629D01*
X263495Y611791D01*
X263598Y611951D01*
X263705Y612108D01*
X263815Y612262D01*
X263929Y612413D01*
X264047Y612562D01*
X264168Y612708D01*
X264293Y612851D01*
X264421Y612990D01*
X264553Y613127D01*
X264688Y613260D01*
X264826Y613390D01*
X264967Y613517D01*
X265112Y613640D01*
X265259Y613760D01*
X265409Y613875D01*
X265562Y613988D01*
X265718Y614096D01*
X265876Y614201D01*
X266036Y614302D01*
X266200Y614398D01*
X266365Y614491D01*
X266533Y614580D01*
X266702Y614665D01*
X266874Y614745D01*
X267048Y614822D01*
X267223Y614894D01*
X267400Y614961D01*
X267579Y615025D01*
X267759Y615084D01*
X267941Y615139D01*
X268124Y615189D01*
X268308Y615234D01*
X268493Y615276D01*
X268679Y615312D01*
X268866Y615345D01*
X269054Y615372D01*
X269242Y615395D01*
X269431Y615414D01*
X269620Y615428D01*
X269810Y615437D01*
X269999Y615441D01*
X270189Y615441D01*
X270378Y615437D01*
X270568Y615428D01*
X270757Y615414D01*
X270946Y615395D01*
X271134Y615372D01*
X271322Y615345D01*
X271509Y615312D01*
X271695Y615276D01*
X271880Y615234D01*
X272064Y615189D01*
X272247Y615139D01*
X272429Y615084D01*
X272609Y615025D01*
X272788Y614961D01*
X272965Y614894D01*
X273140Y614822D01*
X273314Y614745D01*
X273486Y614665D01*
X273655Y614580D01*
X273823Y614491D01*
X273989Y614398D01*
X274152Y614302D01*
X274312Y614201D01*
X274470Y614096D01*
X274626Y613988D01*
X274779Y613875D01*
X274929Y613760D01*
X275076Y613640D01*
X275221Y613517D01*
X275362Y613390D01*
X275500Y613260D01*
X275635Y613127D01*
X275767Y612990D01*
X275895Y612851D01*
X276020Y612708D01*
X276141Y612562D01*
X276259Y612413D01*
X276373Y612262D01*
X276483Y612108D01*
X276590Y611951D01*
X276693Y611791D01*
X276792Y611629D01*
X276886Y611465D01*
X276977Y611299D01*
X277064Y611130D01*
X277147Y610959D01*
X277225Y610786D01*
X277299Y610612D01*
X277369Y610435D01*
X277435Y610257D01*
X277496Y610078D01*
X277553Y609897D01*
X277605Y609715D01*
X277653Y609531D01*
X277697Y609347D01*
X277736Y609161D01*
X277770Y608974D01*
X277800Y608787D01*
X277825Y608599D01*
X277846Y608411D01*
X277862Y608222D01*
X277874Y608032D01*
X277881Y607843D01*
X277883Y607653D01*
X277883Y603758D01*
X262304Y603758D01*
X287988Y592074D02*
X287988Y615442D01*
X299672Y615442D01*
X299672Y611547D01*
D14*
X342600Y312100D02*
X342600Y272100D01*
X368600Y272100D02*
X368600Y312100D01*
D11*
X383982Y289358D02*
X383982Y286762D01*
X383980Y286663D01*
X383974Y286563D01*
X383965Y286464D01*
X383952Y286366D01*
X383935Y286268D01*
X383914Y286170D01*
X383889Y286074D01*
X383861Y285979D01*
X383829Y285885D01*
X383794Y285792D01*
X383755Y285700D01*
X383712Y285610D01*
X383667Y285522D01*
X383617Y285435D01*
X383565Y285351D01*
X383509Y285268D01*
X383451Y285188D01*
X383389Y285110D01*
X383324Y285035D01*
X383256Y284962D01*
X383186Y284892D01*
X383113Y284824D01*
X383038Y284759D01*
X382960Y284697D01*
X382880Y284639D01*
X382797Y284583D01*
X382713Y284531D01*
X382626Y284481D01*
X382538Y284436D01*
X382448Y284393D01*
X382356Y284354D01*
X382263Y284319D01*
X382169Y284287D01*
X382074Y284259D01*
X381978Y284234D01*
X381880Y284213D01*
X381782Y284196D01*
X381684Y284183D01*
X381585Y284174D01*
X381485Y284168D01*
X381386Y284166D01*
X381386Y284165D02*
X374894Y284165D01*
X374795Y284167D01*
X374695Y284173D01*
X374596Y284182D01*
X374498Y284195D01*
X374400Y284213D01*
X374302Y284233D01*
X374206Y284258D01*
X374110Y284286D01*
X374016Y284318D01*
X373923Y284353D01*
X373832Y284392D01*
X373742Y284435D01*
X373653Y284480D01*
X373567Y284530D01*
X373482Y284582D01*
X373400Y284638D01*
X373320Y284697D01*
X373242Y284758D01*
X373166Y284823D01*
X373093Y284891D01*
X373023Y284961D01*
X372955Y285034D01*
X372890Y285110D01*
X372829Y285188D01*
X372770Y285268D01*
X372714Y285350D01*
X372662Y285435D01*
X372613Y285521D01*
X372567Y285610D01*
X372524Y285700D01*
X372485Y285791D01*
X372450Y285884D01*
X372418Y285978D01*
X372390Y286074D01*
X372365Y286170D01*
X372345Y286268D01*
X372327Y286366D01*
X372314Y286464D01*
X372305Y286563D01*
X372299Y286662D01*
X372297Y286762D01*
X372298Y286762D02*
X372298Y289358D01*
X374894Y293724D02*
X372298Y296969D01*
X383982Y296969D01*
X383982Y293724D02*
X383982Y300215D01*
D13*
X107900Y564600D02*
X107900Y600600D01*
X56900Y564600D02*
X-2100Y564600D01*
X80900Y564600D02*
X107900Y564600D01*
X107900Y654600D02*
X-2100Y654600D01*
X107900Y654600D02*
X107900Y618600D01*
X-2100Y654600D02*
X-2100Y564600D01*
D15*
X-12121Y619084D02*
X-15875Y619084D01*
X-12121Y619084D02*
X-12056Y619082D01*
X-11992Y619076D01*
X-11928Y619066D01*
X-11864Y619053D01*
X-11802Y619035D01*
X-11741Y619014D01*
X-11681Y618990D01*
X-11623Y618961D01*
X-11566Y618929D01*
X-11512Y618894D01*
X-11460Y618856D01*
X-11410Y618814D01*
X-11363Y618770D01*
X-11319Y618723D01*
X-11277Y618673D01*
X-11239Y618621D01*
X-11204Y618567D01*
X-11172Y618510D01*
X-11143Y618452D01*
X-11119Y618392D01*
X-11098Y618331D01*
X-11080Y618269D01*
X-11067Y618205D01*
X-11057Y618141D01*
X-11051Y618077D01*
X-11049Y618012D01*
X-11049Y617475D01*
X-14803Y622032D02*
X-15875Y623372D01*
X-11049Y623372D01*
X-11049Y622032D02*
X-11049Y624713D01*
D13*
X406400Y488950D02*
X412750Y482600D01*
X406400Y488950D02*
X406400Y501650D01*
X412750Y508000D01*
X425450Y508000D02*
X431800Y501650D01*
X431800Y488950D01*
X425450Y482600D01*
X406400Y450850D02*
X406400Y438150D01*
X406400Y450850D02*
X412750Y457200D01*
X425450Y457200D02*
X431800Y450850D01*
X412750Y457200D02*
X406400Y463550D01*
X406400Y476250D01*
X412750Y482600D01*
X425450Y482600D02*
X431800Y476250D01*
X431800Y463550D01*
X425450Y457200D01*
X425450Y431800D02*
X412750Y431800D01*
X406400Y438150D01*
X425450Y431800D02*
X431800Y438150D01*
X431800Y450850D01*
X425450Y508000D02*
X412750Y508000D01*
D15*
X403423Y434044D02*
X399669Y434044D01*
X403423Y434043D02*
X403488Y434041D01*
X403552Y434035D01*
X403616Y434025D01*
X403680Y434012D01*
X403742Y433994D01*
X403803Y433973D01*
X403863Y433949D01*
X403921Y433920D01*
X403978Y433888D01*
X404032Y433853D01*
X404084Y433815D01*
X404134Y433773D01*
X404181Y433729D01*
X404225Y433682D01*
X404267Y433632D01*
X404305Y433580D01*
X404340Y433526D01*
X404372Y433469D01*
X404401Y433411D01*
X404425Y433351D01*
X404446Y433290D01*
X404464Y433228D01*
X404477Y433164D01*
X404487Y433100D01*
X404493Y433036D01*
X404495Y432971D01*
X404495Y432435D01*
X399669Y438466D02*
X399671Y438534D01*
X399677Y438601D01*
X399686Y438668D01*
X399699Y438735D01*
X399716Y438800D01*
X399737Y438865D01*
X399761Y438928D01*
X399789Y438990D01*
X399820Y439050D01*
X399854Y439108D01*
X399892Y439164D01*
X399932Y439219D01*
X399976Y439270D01*
X400023Y439319D01*
X400072Y439366D01*
X400123Y439410D01*
X400178Y439450D01*
X400234Y439488D01*
X400292Y439522D01*
X400352Y439553D01*
X400414Y439581D01*
X400477Y439605D01*
X400542Y439626D01*
X400607Y439643D01*
X400674Y439656D01*
X400741Y439665D01*
X400808Y439671D01*
X400876Y439673D01*
X399669Y438466D02*
X399671Y438388D01*
X399677Y438310D01*
X399687Y438233D01*
X399700Y438156D01*
X399718Y438080D01*
X399739Y438005D01*
X399764Y437931D01*
X399793Y437859D01*
X399825Y437788D01*
X399861Y437719D01*
X399900Y437651D01*
X399943Y437586D01*
X399989Y437523D01*
X400038Y437462D01*
X400090Y437404D01*
X400145Y437349D01*
X400202Y437296D01*
X400262Y437247D01*
X400325Y437200D01*
X400390Y437157D01*
X400456Y437117D01*
X400525Y437080D01*
X400596Y437047D01*
X400668Y437017D01*
X400742Y436991D01*
X401814Y439271D02*
X401765Y439320D01*
X401713Y439367D01*
X401658Y439410D01*
X401601Y439451D01*
X401542Y439489D01*
X401481Y439523D01*
X401418Y439554D01*
X401354Y439582D01*
X401288Y439606D01*
X401222Y439626D01*
X401154Y439643D01*
X401085Y439656D01*
X401016Y439665D01*
X400946Y439671D01*
X400876Y439673D01*
X401814Y439271D02*
X404495Y436992D01*
X404495Y439673D01*
D13*
X406400Y336550D02*
X412750Y330200D01*
X406400Y336550D02*
X406400Y349250D01*
X412750Y355600D01*
X425450Y355600D02*
X431800Y349250D01*
X431800Y336550D01*
X425450Y330200D01*
X406400Y298450D02*
X406400Y285750D01*
X406400Y298450D02*
X412750Y304800D01*
X425450Y304800D02*
X431800Y298450D01*
X412750Y304800D02*
X406400Y311150D01*
X406400Y323850D01*
X412750Y330200D01*
X425450Y330200D02*
X431800Y323850D01*
X431800Y311150D01*
X425450Y304800D01*
X425450Y279400D02*
X412750Y279400D01*
X406400Y285750D01*
X425450Y279400D02*
X431800Y285750D01*
X431800Y298450D01*
X425450Y355600D02*
X412750Y355600D01*
D15*
X403423Y281644D02*
X399669Y281644D01*
X403423Y281643D02*
X403488Y281641D01*
X403552Y281635D01*
X403616Y281625D01*
X403680Y281612D01*
X403742Y281594D01*
X403803Y281573D01*
X403863Y281549D01*
X403921Y281520D01*
X403978Y281488D01*
X404032Y281453D01*
X404084Y281415D01*
X404134Y281373D01*
X404181Y281329D01*
X404225Y281282D01*
X404267Y281232D01*
X404305Y281180D01*
X404340Y281126D01*
X404372Y281069D01*
X404401Y281011D01*
X404425Y280951D01*
X404446Y280890D01*
X404464Y280828D01*
X404477Y280764D01*
X404487Y280700D01*
X404493Y280636D01*
X404495Y280571D01*
X404495Y280035D01*
X404495Y284592D02*
X404495Y285932D01*
X404493Y286003D01*
X404487Y286075D01*
X404478Y286145D01*
X404465Y286215D01*
X404448Y286285D01*
X404427Y286353D01*
X404403Y286420D01*
X404375Y286486D01*
X404344Y286550D01*
X404309Y286613D01*
X404271Y286673D01*
X404230Y286732D01*
X404186Y286788D01*
X404139Y286842D01*
X404090Y286893D01*
X404037Y286941D01*
X403982Y286987D01*
X403925Y287029D01*
X403865Y287069D01*
X403804Y287105D01*
X403740Y287138D01*
X403675Y287167D01*
X403609Y287193D01*
X403541Y287216D01*
X403472Y287235D01*
X403402Y287250D01*
X403332Y287261D01*
X403261Y287269D01*
X403190Y287273D01*
X403118Y287273D01*
X403047Y287269D01*
X402976Y287261D01*
X402906Y287250D01*
X402836Y287235D01*
X402767Y287216D01*
X402699Y287193D01*
X402633Y287167D01*
X402568Y287138D01*
X402504Y287105D01*
X402443Y287069D01*
X402383Y287029D01*
X402326Y286987D01*
X402271Y286941D01*
X402218Y286893D01*
X402169Y286842D01*
X402122Y286788D01*
X402078Y286732D01*
X402037Y286673D01*
X401999Y286613D01*
X401964Y286550D01*
X401933Y286486D01*
X401905Y286420D01*
X401881Y286353D01*
X401860Y286285D01*
X401843Y286215D01*
X401830Y286145D01*
X401821Y286075D01*
X401815Y286003D01*
X401813Y285932D01*
X399669Y286200D02*
X399669Y284592D01*
X399669Y286200D02*
X399671Y286265D01*
X399677Y286329D01*
X399687Y286393D01*
X399700Y286457D01*
X399718Y286519D01*
X399739Y286580D01*
X399763Y286640D01*
X399792Y286698D01*
X399824Y286755D01*
X399859Y286809D01*
X399897Y286861D01*
X399939Y286911D01*
X399983Y286958D01*
X400030Y287002D01*
X400080Y287044D01*
X400132Y287082D01*
X400186Y287117D01*
X400243Y287149D01*
X400301Y287178D01*
X400361Y287202D01*
X400422Y287223D01*
X400484Y287241D01*
X400548Y287254D01*
X400612Y287264D01*
X400676Y287270D01*
X400741Y287272D01*
X400806Y287270D01*
X400870Y287264D01*
X400934Y287254D01*
X400998Y287241D01*
X401060Y287223D01*
X401121Y287202D01*
X401181Y287178D01*
X401239Y287149D01*
X401296Y287117D01*
X401350Y287082D01*
X401402Y287044D01*
X401452Y287002D01*
X401499Y286958D01*
X401543Y286911D01*
X401585Y286861D01*
X401623Y286809D01*
X401658Y286755D01*
X401690Y286698D01*
X401719Y286640D01*
X401743Y286580D01*
X401764Y286519D01*
X401782Y286457D01*
X401795Y286393D01*
X401805Y286329D01*
X401811Y286265D01*
X401813Y286200D01*
X401814Y286200D02*
X401814Y285128D01*
D13*
X406400Y184150D02*
X412750Y177800D01*
X406400Y184150D02*
X406400Y196850D01*
X412750Y203200D01*
X425450Y203200D02*
X431800Y196850D01*
X431800Y184150D01*
X425450Y177800D01*
X406400Y146050D02*
X406400Y133350D01*
X406400Y146050D02*
X412750Y152400D01*
X425450Y152400D02*
X431800Y146050D01*
X412750Y152400D02*
X406400Y158750D01*
X406400Y171450D01*
X412750Y177800D01*
X425450Y177800D02*
X431800Y171450D01*
X431800Y158750D01*
X425450Y152400D01*
X425450Y127000D02*
X412750Y127000D01*
X406400Y133350D01*
X425450Y127000D02*
X431800Y133350D01*
X431800Y146050D01*
X425450Y203200D02*
X412750Y203200D01*
D15*
X403423Y129244D02*
X399669Y129244D01*
X403423Y129243D02*
X403488Y129241D01*
X403552Y129235D01*
X403616Y129225D01*
X403680Y129212D01*
X403742Y129194D01*
X403803Y129173D01*
X403863Y129149D01*
X403921Y129120D01*
X403978Y129088D01*
X404032Y129053D01*
X404084Y129015D01*
X404134Y128973D01*
X404181Y128929D01*
X404225Y128882D01*
X404267Y128832D01*
X404305Y128780D01*
X404340Y128726D01*
X404372Y128669D01*
X404401Y128611D01*
X404425Y128551D01*
X404446Y128490D01*
X404464Y128428D01*
X404477Y128364D01*
X404487Y128300D01*
X404493Y128236D01*
X404495Y128171D01*
X404495Y127635D01*
X403423Y132192D02*
X399669Y133264D01*
X403423Y132192D02*
X403423Y134873D01*
X404495Y134068D02*
X402350Y134068D01*
X290004Y139700D02*
X290008Y140063D01*
X290022Y140426D01*
X290044Y140788D01*
X290075Y141150D01*
X290115Y141511D01*
X290164Y141871D01*
X290222Y142230D01*
X290288Y142587D01*
X290364Y142942D01*
X290447Y143295D01*
X290540Y143646D01*
X290641Y143995D01*
X290751Y144341D01*
X290869Y144685D01*
X290995Y145025D01*
X291130Y145362D01*
X291273Y145696D01*
X291425Y146026D01*
X291584Y146352D01*
X291751Y146675D01*
X291926Y146993D01*
X292109Y147307D01*
X292300Y147616D01*
X292498Y147920D01*
X292703Y148220D01*
X292916Y148514D01*
X293136Y148803D01*
X293363Y149086D01*
X293596Y149364D01*
X293837Y149636D01*
X294084Y149902D01*
X294338Y150162D01*
X294598Y150416D01*
X294864Y150663D01*
X295136Y150904D01*
X295414Y151137D01*
X295697Y151364D01*
X295986Y151584D01*
X296280Y151797D01*
X296580Y152002D01*
X296884Y152200D01*
X297193Y152391D01*
X297507Y152574D01*
X297825Y152749D01*
X298148Y152916D01*
X298474Y153075D01*
X298804Y153227D01*
X299138Y153370D01*
X299475Y153505D01*
X299815Y153631D01*
X300159Y153749D01*
X300505Y153859D01*
X300854Y153960D01*
X301205Y154053D01*
X301558Y154136D01*
X301913Y154212D01*
X302270Y154278D01*
X302629Y154336D01*
X302989Y154385D01*
X303350Y154425D01*
X303712Y154456D01*
X304074Y154478D01*
X304437Y154492D01*
X304800Y154496D01*
X305163Y154492D01*
X305526Y154478D01*
X305888Y154456D01*
X306250Y154425D01*
X306611Y154385D01*
X306971Y154336D01*
X307330Y154278D01*
X307687Y154212D01*
X308042Y154136D01*
X308395Y154053D01*
X308746Y153960D01*
X309095Y153859D01*
X309441Y153749D01*
X309785Y153631D01*
X310125Y153505D01*
X310462Y153370D01*
X310796Y153227D01*
X311126Y153075D01*
X311452Y152916D01*
X311775Y152749D01*
X312093Y152574D01*
X312407Y152391D01*
X312716Y152200D01*
X313020Y152002D01*
X313320Y151797D01*
X313614Y151584D01*
X313903Y151364D01*
X314186Y151137D01*
X314464Y150904D01*
X314736Y150663D01*
X315002Y150416D01*
X315262Y150162D01*
X315516Y149902D01*
X315763Y149636D01*
X316004Y149364D01*
X316237Y149086D01*
X316464Y148803D01*
X316684Y148514D01*
X316897Y148220D01*
X317102Y147920D01*
X317300Y147616D01*
X317491Y147307D01*
X317674Y146993D01*
X317849Y146675D01*
X318016Y146352D01*
X318175Y146026D01*
X318327Y145696D01*
X318470Y145362D01*
X318605Y145025D01*
X318731Y144685D01*
X318849Y144341D01*
X318959Y143995D01*
X319060Y143646D01*
X319153Y143295D01*
X319236Y142942D01*
X319312Y142587D01*
X319378Y142230D01*
X319436Y141871D01*
X319485Y141511D01*
X319525Y141150D01*
X319556Y140788D01*
X319578Y140426D01*
X319592Y140063D01*
X319596Y139700D01*
X319592Y139337D01*
X319578Y138974D01*
X319556Y138612D01*
X319525Y138250D01*
X319485Y137889D01*
X319436Y137529D01*
X319378Y137170D01*
X319312Y136813D01*
X319236Y136458D01*
X319153Y136105D01*
X319060Y135754D01*
X318959Y135405D01*
X318849Y135059D01*
X318731Y134715D01*
X318605Y134375D01*
X318470Y134038D01*
X318327Y133704D01*
X318175Y133374D01*
X318016Y133048D01*
X317849Y132725D01*
X317674Y132407D01*
X317491Y132093D01*
X317300Y131784D01*
X317102Y131480D01*
X316897Y131180D01*
X316684Y130886D01*
X316464Y130597D01*
X316237Y130314D01*
X316004Y130036D01*
X315763Y129764D01*
X315516Y129498D01*
X315262Y129238D01*
X315002Y128984D01*
X314736Y128737D01*
X314464Y128496D01*
X314186Y128263D01*
X313903Y128036D01*
X313614Y127816D01*
X313320Y127603D01*
X313020Y127398D01*
X312716Y127200D01*
X312407Y127009D01*
X312093Y126826D01*
X311775Y126651D01*
X311452Y126484D01*
X311126Y126325D01*
X310796Y126173D01*
X310462Y126030D01*
X310125Y125895D01*
X309785Y125769D01*
X309441Y125651D01*
X309095Y125541D01*
X308746Y125440D01*
X308395Y125347D01*
X308042Y125264D01*
X307687Y125188D01*
X307330Y125122D01*
X306971Y125064D01*
X306611Y125015D01*
X306250Y124975D01*
X305888Y124944D01*
X305526Y124922D01*
X305163Y124908D01*
X304800Y124904D01*
X304437Y124908D01*
X304074Y124922D01*
X303712Y124944D01*
X303350Y124975D01*
X302989Y125015D01*
X302629Y125064D01*
X302270Y125122D01*
X301913Y125188D01*
X301558Y125264D01*
X301205Y125347D01*
X300854Y125440D01*
X300505Y125541D01*
X300159Y125651D01*
X299815Y125769D01*
X299475Y125895D01*
X299138Y126030D01*
X298804Y126173D01*
X298474Y126325D01*
X298148Y126484D01*
X297825Y126651D01*
X297507Y126826D01*
X297193Y127009D01*
X296884Y127200D01*
X296580Y127398D01*
X296280Y127603D01*
X295986Y127816D01*
X295697Y128036D01*
X295414Y128263D01*
X295136Y128496D01*
X294864Y128737D01*
X294598Y128984D01*
X294338Y129238D01*
X294084Y129498D01*
X293837Y129764D01*
X293596Y130036D01*
X293363Y130314D01*
X293136Y130597D01*
X292916Y130886D01*
X292703Y131180D01*
X292498Y131480D01*
X292300Y131784D01*
X292109Y132093D01*
X291926Y132407D01*
X291751Y132725D01*
X291584Y133048D01*
X291425Y133374D01*
X291273Y133704D01*
X291130Y134038D01*
X290995Y134375D01*
X290869Y134715D01*
X290751Y135059D01*
X290641Y135405D01*
X290540Y135754D01*
X290447Y136105D01*
X290364Y136458D01*
X290288Y136813D01*
X290222Y137170D01*
X290164Y137529D01*
X290115Y137889D01*
X290075Y138250D01*
X290044Y138612D01*
X290022Y138974D01*
X290008Y139337D01*
X290004Y139700D01*
D13*
X241300Y363220D02*
X190500Y363220D01*
X241300Y363220D02*
X241300Y355600D01*
X241300Y347980D01*
X190500Y347980D01*
X190500Y355600D01*
X190500Y363220D01*
X241300Y355600D02*
X243840Y355600D01*
X190500Y355600D02*
X187960Y355600D01*
D15*
X211848Y366395D02*
X211848Y371221D01*
X213189Y371221D01*
X213260Y371219D01*
X213332Y371213D01*
X213402Y371204D01*
X213472Y371191D01*
X213542Y371174D01*
X213610Y371153D01*
X213677Y371129D01*
X213743Y371101D01*
X213807Y371070D01*
X213870Y371035D01*
X213930Y370997D01*
X213989Y370956D01*
X214045Y370912D01*
X214099Y370865D01*
X214150Y370816D01*
X214198Y370763D01*
X214244Y370708D01*
X214286Y370651D01*
X214326Y370591D01*
X214362Y370530D01*
X214395Y370466D01*
X214424Y370401D01*
X214450Y370335D01*
X214473Y370267D01*
X214492Y370198D01*
X214507Y370128D01*
X214518Y370058D01*
X214526Y369987D01*
X214530Y369916D01*
X214530Y369844D01*
X214526Y369773D01*
X214518Y369702D01*
X214507Y369632D01*
X214492Y369562D01*
X214473Y369493D01*
X214450Y369425D01*
X214424Y369359D01*
X214395Y369294D01*
X214362Y369230D01*
X214326Y369169D01*
X214286Y369109D01*
X214244Y369052D01*
X214198Y368997D01*
X214150Y368944D01*
X214099Y368895D01*
X214045Y368848D01*
X213989Y368804D01*
X213930Y368763D01*
X213870Y368725D01*
X213807Y368690D01*
X213743Y368659D01*
X213677Y368631D01*
X213610Y368607D01*
X213542Y368586D01*
X213472Y368569D01*
X213402Y368556D01*
X213332Y368547D01*
X213260Y368541D01*
X213189Y368539D01*
X213189Y368540D02*
X211848Y368540D01*
X213457Y368540D02*
X214529Y366395D01*
X218745Y371221D02*
X218813Y371219D01*
X218880Y371213D01*
X218947Y371204D01*
X219014Y371191D01*
X219079Y371174D01*
X219144Y371153D01*
X219207Y371129D01*
X219269Y371101D01*
X219329Y371070D01*
X219387Y371036D01*
X219443Y370998D01*
X219498Y370958D01*
X219549Y370914D01*
X219598Y370867D01*
X219645Y370818D01*
X219689Y370767D01*
X219729Y370712D01*
X219767Y370656D01*
X219801Y370598D01*
X219832Y370538D01*
X219860Y370476D01*
X219884Y370413D01*
X219905Y370348D01*
X219922Y370283D01*
X219935Y370216D01*
X219944Y370149D01*
X219950Y370082D01*
X219952Y370014D01*
X218745Y371221D02*
X218667Y371219D01*
X218589Y371213D01*
X218512Y371203D01*
X218435Y371190D01*
X218359Y371172D01*
X218284Y371151D01*
X218210Y371126D01*
X218138Y371097D01*
X218067Y371065D01*
X217998Y371029D01*
X217930Y370990D01*
X217865Y370947D01*
X217802Y370901D01*
X217741Y370852D01*
X217683Y370800D01*
X217628Y370745D01*
X217575Y370688D01*
X217526Y370628D01*
X217479Y370565D01*
X217436Y370501D01*
X217396Y370434D01*
X217359Y370365D01*
X217326Y370294D01*
X217296Y370222D01*
X217270Y370149D01*
X219550Y369076D02*
X219599Y369125D01*
X219646Y369177D01*
X219689Y369232D01*
X219730Y369289D01*
X219768Y369348D01*
X219802Y369409D01*
X219833Y369472D01*
X219861Y369536D01*
X219885Y369602D01*
X219905Y369668D01*
X219922Y369736D01*
X219935Y369805D01*
X219944Y369874D01*
X219950Y369944D01*
X219952Y370014D01*
X219550Y369076D02*
X217271Y366395D01*
X219952Y366395D01*
D13*
X241300Y210820D02*
X190500Y210820D01*
X241300Y210820D02*
X241300Y203200D01*
X241300Y195580D01*
X190500Y195580D01*
X190500Y203200D01*
X190500Y210820D01*
X241300Y203200D02*
X243840Y203200D01*
X190500Y203200D02*
X187960Y203200D01*
D15*
X211848Y213995D02*
X211848Y218821D01*
X213189Y218821D01*
X213260Y218819D01*
X213332Y218813D01*
X213402Y218804D01*
X213472Y218791D01*
X213542Y218774D01*
X213610Y218753D01*
X213677Y218729D01*
X213743Y218701D01*
X213807Y218670D01*
X213870Y218635D01*
X213930Y218597D01*
X213989Y218556D01*
X214045Y218512D01*
X214099Y218465D01*
X214150Y218416D01*
X214198Y218363D01*
X214244Y218308D01*
X214286Y218251D01*
X214326Y218191D01*
X214362Y218130D01*
X214395Y218066D01*
X214424Y218001D01*
X214450Y217935D01*
X214473Y217867D01*
X214492Y217798D01*
X214507Y217728D01*
X214518Y217658D01*
X214526Y217587D01*
X214530Y217516D01*
X214530Y217444D01*
X214526Y217373D01*
X214518Y217302D01*
X214507Y217232D01*
X214492Y217162D01*
X214473Y217093D01*
X214450Y217025D01*
X214424Y216959D01*
X214395Y216894D01*
X214362Y216830D01*
X214326Y216769D01*
X214286Y216709D01*
X214244Y216652D01*
X214198Y216597D01*
X214150Y216544D01*
X214099Y216495D01*
X214045Y216448D01*
X213989Y216404D01*
X213930Y216363D01*
X213870Y216325D01*
X213807Y216290D01*
X213743Y216259D01*
X213677Y216231D01*
X213610Y216207D01*
X213542Y216186D01*
X213472Y216169D01*
X213402Y216156D01*
X213332Y216147D01*
X213260Y216141D01*
X213189Y216139D01*
X213189Y216140D02*
X211848Y216140D01*
X213457Y216140D02*
X214529Y213995D01*
X217271Y213995D02*
X218611Y213995D01*
X218682Y213997D01*
X218754Y214003D01*
X218824Y214012D01*
X218894Y214025D01*
X218964Y214042D01*
X219032Y214063D01*
X219099Y214087D01*
X219165Y214115D01*
X219229Y214146D01*
X219292Y214181D01*
X219352Y214219D01*
X219411Y214260D01*
X219467Y214304D01*
X219521Y214351D01*
X219572Y214400D01*
X219620Y214453D01*
X219666Y214508D01*
X219708Y214565D01*
X219748Y214625D01*
X219784Y214686D01*
X219817Y214750D01*
X219846Y214815D01*
X219872Y214881D01*
X219895Y214949D01*
X219914Y215018D01*
X219929Y215088D01*
X219940Y215158D01*
X219948Y215229D01*
X219952Y215300D01*
X219952Y215372D01*
X219948Y215443D01*
X219940Y215514D01*
X219929Y215584D01*
X219914Y215654D01*
X219895Y215723D01*
X219872Y215791D01*
X219846Y215857D01*
X219817Y215922D01*
X219784Y215986D01*
X219748Y216047D01*
X219708Y216107D01*
X219666Y216164D01*
X219620Y216219D01*
X219572Y216272D01*
X219521Y216321D01*
X219467Y216368D01*
X219411Y216412D01*
X219352Y216453D01*
X219292Y216491D01*
X219229Y216526D01*
X219165Y216557D01*
X219099Y216585D01*
X219032Y216609D01*
X218964Y216630D01*
X218894Y216647D01*
X218824Y216660D01*
X218754Y216669D01*
X218682Y216675D01*
X218611Y216677D01*
X218879Y218821D02*
X217271Y218821D01*
X218879Y218821D02*
X218944Y218819D01*
X219008Y218813D01*
X219072Y218803D01*
X219136Y218790D01*
X219198Y218772D01*
X219259Y218751D01*
X219319Y218727D01*
X219377Y218698D01*
X219434Y218666D01*
X219488Y218631D01*
X219540Y218593D01*
X219590Y218551D01*
X219637Y218507D01*
X219681Y218460D01*
X219723Y218410D01*
X219761Y218358D01*
X219796Y218304D01*
X219828Y218247D01*
X219857Y218189D01*
X219881Y218129D01*
X219902Y218068D01*
X219920Y218006D01*
X219933Y217942D01*
X219943Y217878D01*
X219949Y217814D01*
X219951Y217749D01*
X219949Y217684D01*
X219943Y217620D01*
X219933Y217556D01*
X219920Y217492D01*
X219902Y217430D01*
X219881Y217369D01*
X219857Y217309D01*
X219828Y217251D01*
X219796Y217194D01*
X219761Y217140D01*
X219723Y217088D01*
X219681Y217038D01*
X219637Y216991D01*
X219590Y216947D01*
X219540Y216905D01*
X219488Y216867D01*
X219434Y216832D01*
X219377Y216800D01*
X219319Y216771D01*
X219259Y216747D01*
X219198Y216726D01*
X219136Y216708D01*
X219072Y216695D01*
X219008Y216685D01*
X218944Y216679D01*
X218879Y216677D01*
X218879Y216676D02*
X217807Y216676D01*
X110900Y274500D02*
X110900Y360500D01*
X66900Y360500D02*
X66900Y274500D01*
X75900Y274500D01*
X101900Y274500D02*
X110900Y274500D01*
X110900Y360500D02*
X101900Y360500D01*
X75900Y360500D02*
X66900Y360500D01*
X110900Y208100D02*
X110900Y122100D01*
X66900Y122100D02*
X66900Y208100D01*
X66900Y122100D02*
X75900Y122100D01*
X101900Y122100D02*
X110900Y122100D01*
X110900Y208100D02*
X101900Y208100D01*
X75900Y208100D02*
X66900Y208100D01*
X110900Y426900D02*
X110900Y512900D01*
X66900Y512900D02*
X66900Y426900D01*
X75900Y426900D01*
X101900Y426900D02*
X110900Y426900D01*
X110900Y512900D02*
X101900Y512900D01*
X75900Y512900D02*
X66900Y512900D01*
D13*
X190500Y515620D02*
X241300Y515620D01*
X241300Y508000D01*
X241300Y500380D01*
X190500Y500380D01*
X190500Y508000D01*
X190500Y515620D01*
X241300Y508000D02*
X243840Y508000D01*
X190500Y508000D02*
X187960Y508000D01*
D15*
X211848Y518795D02*
X211848Y523621D01*
X213189Y523621D01*
X213260Y523619D01*
X213332Y523613D01*
X213402Y523604D01*
X213472Y523591D01*
X213542Y523574D01*
X213610Y523553D01*
X213677Y523529D01*
X213743Y523501D01*
X213807Y523470D01*
X213870Y523435D01*
X213930Y523397D01*
X213989Y523356D01*
X214045Y523312D01*
X214099Y523265D01*
X214150Y523216D01*
X214198Y523163D01*
X214244Y523108D01*
X214286Y523051D01*
X214326Y522991D01*
X214362Y522930D01*
X214395Y522866D01*
X214424Y522801D01*
X214450Y522735D01*
X214473Y522667D01*
X214492Y522598D01*
X214507Y522528D01*
X214518Y522458D01*
X214526Y522387D01*
X214530Y522316D01*
X214530Y522244D01*
X214526Y522173D01*
X214518Y522102D01*
X214507Y522032D01*
X214492Y521962D01*
X214473Y521893D01*
X214450Y521825D01*
X214424Y521759D01*
X214395Y521694D01*
X214362Y521630D01*
X214326Y521569D01*
X214286Y521509D01*
X214244Y521452D01*
X214198Y521397D01*
X214150Y521344D01*
X214099Y521295D01*
X214045Y521248D01*
X213989Y521204D01*
X213930Y521163D01*
X213870Y521125D01*
X213807Y521090D01*
X213743Y521059D01*
X213677Y521031D01*
X213610Y521007D01*
X213542Y520986D01*
X213472Y520969D01*
X213402Y520956D01*
X213332Y520947D01*
X213260Y520941D01*
X213189Y520939D01*
X213189Y520940D02*
X211848Y520940D01*
X213457Y520940D02*
X214529Y518795D01*
X217271Y522549D02*
X218611Y523621D01*
X218611Y518795D01*
X217271Y518795D02*
X219952Y518795D01*
M02*
