G04 EAGLE Gerber RS-274X export*
G75*
%MOMM*%
%FSLAX34Y34*%
%LPD*%
%INSoldermask Bottom*%
%IPPOS*%
%AMOC8*
5,1,8,0,0,1.08239X$1,22.5*%
G01*
%ADD10C,4.000500*%
%ADD11C,1.461200*%
%ADD12C,2.153200*%
%ADD13C,2.082800*%
%ADD14C,1.511200*%
%ADD15C,2.453200*%
%ADD16C,0.959600*%


D10*
X463550Y628650D03*
X44450Y44450D03*
X463550Y44450D03*
D11*
X355600Y267100D03*
X355600Y317100D03*
D12*
X98900Y609600D03*
X40900Y609600D03*
X68900Y561600D03*
D13*
X417830Y444500D03*
X420370Y469900D03*
X417830Y495300D03*
X417830Y292100D03*
X420370Y317500D03*
X417830Y342900D03*
X417830Y139700D03*
X420370Y165100D03*
X417830Y190500D03*
X355600Y114300D03*
X355600Y165100D03*
X177800Y355600D03*
X254000Y355600D03*
X177800Y203200D03*
X254000Y203200D03*
D14*
X88900Y317500D03*
D15*
X88900Y276500D03*
X88900Y358500D03*
D14*
X88900Y297500D03*
X88900Y337500D03*
X88900Y165100D03*
D15*
X88900Y124100D03*
X88900Y206100D03*
D14*
X88900Y145100D03*
X88900Y185100D03*
X88900Y469900D03*
D15*
X88900Y428900D03*
X88900Y510900D03*
D14*
X88900Y449900D03*
X88900Y489900D03*
D13*
X177800Y508000D03*
X254000Y508000D03*
D16*
X114300Y228600D03*
X114300Y381000D03*
X114300Y533400D03*
X266700Y50800D03*
X152400Y609600D03*
M02*
